<?xml version="1.0" standalone="no"?>
<!DOCTYPE svg PUBLIC "-//W3C//DTD SVG 1.1//EN" "http://www.w3.org/Graphics/SVG/1.1/DTD/svg11.dtd" >
<svg>
<metadata>
Created by FontForge 20090914 at Mon Jan 31 20:33:38 2022
 By www-data
Copyright (c) 2017 Marc Rouault / W+K. All rights reserved.
</metadata>
<defs>
<font id="Formula1-Display-Regular" horiz-adv-x="780" >
  <font-face 
    font-family="Formula1 Display-Regular"
    font-weight="400"
    font-stretch="normal"
    units-per-em="1000"
    panose-1="2 0 0 0 0 0 0 0 0 0"
    ascent="850"
    descent="-150"
    x-height="600"
    cap-height="750"
    bbox="-150 -190.001 1473 1016"
    underline-thickness="0"
    underline-position="0"
    unicode-range="U+0020-U+F6C3"
  />
<missing-glyph horiz-adv-x="0" 
 />
    <glyph glyph-name=".notdef" horiz-adv-x="0" 
 />
    <glyph glyph-name="space" unicode=" " horiz-adv-x="260" 
 />
    <glyph glyph-name="exclam" unicode="!" horiz-adv-x="266" 
d="M70 750h126l-13 -550h-100zM71 0v125h125v-125h-125z" />
    <glyph glyph-name="quotedbl" unicode="&#x22;" horiz-adv-x="450" 
d="M150 470h-100l40 280h100zM340 470h-100l40 280h100z" />
    <glyph glyph-name="numbersign" unicode="#" horiz-adv-x="833" 
d="M720 303v-93h-172l-55 -210h-105l55 210h-140l-55 -210h-105l55 210h-148v93h172l45 173h-154v94h178l52 200h105l-52 -200h140l52 200h105l-52 -200h142v-94h-166l-45 -173h148zM327 303h140l45 173h-140z" />
    <glyph glyph-name="dollar" unicode="$" horiz-adv-x="722" 
d="M324 -100v100h-259v100h259v240l-74 20c-65.333 18 -115.833 42 -151.5 72s-53.5 73 -53.5 129s21.167 101.5 63.5 136.5s106.833 52.5 193.5 52.5h22v100h100v-100h228v-100h-228v-227l47 -13c66 -18.667 116.833 -43.5 152.5 -74.5s53.5 -74.167 53.5 -129.5
c0 -62 -20.833 -111.833 -62.5 -149.5s-105.167 -56.5 -190.5 -56.5v-100h-100zM281 464l43 -11.998v198h-35c-48 0 -81.167 -8.33301 -99.5 -25s-27.5 -36.334 -27.5 -59.001c0 -26 8.5 -46.333 25.5 -61s48.167 -28.334 93.5 -41.001zM440 308.002l-16 3.99902v-212h11
c44 0 76.167 8.66699 96.5 26s30.5 40.666 30.5 69.999c0 30.667 -8.5 53.834 -25.5 69.501s-49.167 29.834 -96.5 42.501z" />
    <glyph glyph-name="percent" unicode="%" horiz-adv-x="858" 
d="M40 554v57c0 46 14.833 82.833 44.5 110.5s66.834 41.5 111.501 41.5h70c42 0 78.5 -13.833 109.5 -41.5s46.5 -64.5 46.5 -110.5v-57c0 -46 -15.5 -82.833 -46.5 -110.5s-67.5 -41.5 -109.5 -41.5h-70c-44.667 0 -81.834 13.833 -111.501 41.5s-44.5 64.5 -44.5 110.5z
M562 419h-113l195 331h114zM144 603v-45c0 -21.333 5 -38.666 15 -51.999s25.667 -20 47 -20h49c23.333 0 39.666 6.66699 48.999 20s14 30.666 14 51.999v45c0 22.667 -4.66699 41 -14 55s-25.666 21 -48.999 21h-49c-21.333 0 -37 -7 -47 -21s-15 -32.333 -15 -55z
M436 140v57c0 46 14.833 82.833 44.5 110.5s66.834 41.5 111.501 41.5h70c42 0 78.5 -13.833 109.5 -41.5s46.5 -64.5 46.5 -110.5v-57c0 -46 -15.5 -82.833 -46.5 -110.5s-67.5 -41.5 -109.5 -41.5h-70c-44.667 0 -81.834 13.833 -111.501 41.5s-44.5 64.5 -44.5 110.5z
M299 331h113l-195 -331h-114zM540 189v-45c0 -21.333 5 -38.666 15 -51.999s25.667 -20 47 -20h49c23.333 0 39.666 6.66699 48.999 20s14 30.666 14 51.999v45c0 22.667 -4.66699 41 -14 55s-25.666 21 -48.999 21h-49c-21.333 0 -37 -7 -47 -21s-15 -32.333 -15 -55z" />
    <glyph glyph-name="ampersand" unicode="&#x26;" horiz-adv-x="858" 
d="M699 0l-101.999 116l-16 -20c-30 -38 -59.833 -63.5 -89.5 -76.5s-69.834 -19.5 -120.501 -19.5h-113c-69.333 -0 -121.333 15.833 -156 47.5s-52 78.167 -52 139.5v63c0 59.333 19.333 105.5 58 138.5s91 49.5 157 49.5h49l-39 44c-18 20.667 -30.667 40.667 -38 60
s-11 39.333 -11 60c0 39.333 14.667 73.833 44 103.5s72 44.5 128 44.5h301v-105h-301c-19.333 0 -34 -4.83301 -44 -14.5s-15 -22.167 -15 -37.5c0 -8.66699 1.5 -16.5 4.5 -23.5s7.83301 -14.167 14.5 -21.5l236 -268l121 151h133l-184 -231l176 -200h-141zM376.001 102
c32 0 55.501 3.83398 70.501 11.501s30.5 21.5 46.5 41.5l33 41l-126 144h-154c-28.667 0 -49.334 -5.83301 -62.001 -17.5s-19 -31.834 -19 -60.501v-78c0 -29.333 7 -50.333 21 -63s32 -19 54 -19h136z" />
    <glyph glyph-name="quotesingle" unicode="'" horiz-adv-x="260" 
d="M150 470h-100l40 280h100z" />
    <glyph glyph-name="parenleft" unicode="(" horiz-adv-x="367" 
d="M90 6v569.001c0 60.667 15.667 105 47 133s73.333 42 126 42h44v-95h-39c-24.667 0 -42.167 -5.83301 -52.5 -17.5s-15.5 -32.834 -15.5 -63.501v-568c0 -30 5.16699 -51 15.5 -63s27.833 -18 52.5 -18h39v-95h-44c-52.667 0 -94.667 14.167 -126 42.5
s-47 72.833 -47 133.5z" />
    <glyph glyph-name="parenright" unicode=")" horiz-adv-x="367" 
d="M277 6c0 -60.667 -15.667 -105.168 -47 -133.501s-73.333 -42.5 -126 -42.5h-44v95h39c24.667 0 42.167 6 52.5 18s15.5 33 15.5 63v568c0 30.667 -5.16699 51.834 -15.5 63.501s-27.833 17.5 -52.5 17.5h-39v95h44c52.667 0 94.667 -14 126 -42s47 -72.333 47 -133v-569
z" />
    <glyph glyph-name="asterisk" unicode="*" horiz-adv-x="523" 
d="M351 378l-89 132l-89 -132l-67 44l85 111h-131v76h130l-84 111l67 44l89 -132l89 132l66 -44l-84 -111h130v-76h-130l84 -111z" />
    <glyph glyph-name="plus" unicode="+" horiz-adv-x="546" 
d="M50 325v100h173v173h100v-173h173v-100h-173v-173h-100v173h-173z" />
    <glyph glyph-name="comma" unicode="," horiz-adv-x="276" 
d="M43 -130l20.502 65.999c5 16.667 8.66699 30.667 11 42s3.83301 21.5 4.5 30.5s1 19.5 1 31.5v115h112v-115c0 -12 -0.333008 -22.667 -1 -32s-2.33398 -19.666 -5.00098 -30.999s-6.83398 -25.333 -12.501 -42l-22.5 -65h-108z" />
    <glyph glyph-name="hyphen" unicode="-" horiz-adv-x="336" 
d="M50 252v100h236v-100h-236z" />
    <glyph glyph-name="period" unicode="." horiz-adv-x="265" 
d="M70 0v125h125v-125h-125z" />
    <glyph glyph-name="slash" unicode="/" horiz-adv-x="330" 
d="M210 750h110l-200 -860h-110z" />
    <glyph glyph-name="zero" unicode="0" horiz-adv-x="800" 
d="M745 315c0 -49.333 -6.5 -94.166 -19.5 -134.499s-32.833 -74.666 -59.5 -102.999s-60.834 -50.333 -102.501 -66s-91.167 -23.5 -148.5 -23.5h-30c-57.333 0 -107 7.83301 -149 23.5s-76.333 37.667 -103 66s-46.334 62.666 -59.001 102.999s-19 85.166 -19 134.499v120
c0 50 6.33301 95.167 19 135.5s32.334 74.833 59.001 103.5s61 50.667 103 66s91.667 23 149 23h30c57.333 0 106.833 -7.66699 148.5 -23s75.834 -37.333 102.501 -66s46.5 -63.167 59.5 -103.5s19.5 -85.5 19.5 -135.5v-120zM180 288c0 -66.667 14.667 -116.667 44 -150
s78 -50 146 -50h60c68.667 0 117.5 16.667 146.5 50s43.5 83.333 43.5 150v175c0 67.333 -14.5 117.5 -43.5 150.5s-77.833 49.5 -146.5 49.5h-60c-68 0 -116.667 -16.5 -146 -49.5s-44 -83.167 -44 -150.5v-175z" />
    <glyph glyph-name="one" unicode="1" horiz-adv-x="627" 
d="M45 0v99.999h227v517c0 10.667 -2.5 18.834 -7.5 24.501s-12.5 8.5 -22.5 8.5h-174v100h192c44.667 0 77 -11 97 -33s30 -55 30 -99v-518h200v-100h-542z" />
    <glyph glyph-name="two" unicode="2" horiz-adv-x="728" 
d="M673 100l-0.00292969 -100h-617v123c0 42 10.167 79 30.5 111s53.5 61.333 99.5 88l296 168c26.667 14.667 46.5 28.667 59.5 42s19.5 30.333 19.5 51c0 18 -6 33.667 -18 47s-33.333 20 -64 20h-414v100h418c68.667 0 118.834 -15.5 150.501 -46.5
s47.5 -70.5 47.5 -118.5c0 -48.667 -12.667 -85.834 -38 -111.501s-57.666 -49.167 -96.999 -70.5l-306 -168c-21.333 -11.333 -38.166 -24.666 -50.499 -39.999s-18.5 -32.333 -18.5 -51v-44h502z" />
    <glyph glyph-name="three" unicode="3" horiz-adv-x="709" 
d="M171 435l279.999 214.998h-411v100h606v-80l-316 -244h88c77.333 0 135.166 -14.5 173.499 -43.5s57.5 -69.833 57.5 -122.5v-83c0 -69.333 -22.833 -116.166 -68.5 -140.499s-112.167 -36.5 -199.5 -36.5h-331v100h364c46.667 0 78.834 7 96.501 21s26.5 34.667 26.5 62
v53c0 27.333 -8.83301 49.833 -26.5 67.5s-50.5 26.5 -98.5 26.5h-208c-16.667 0 -30.667 3.5 -42 10.5s-18.333 15.5 -21 25.5c-3.33301 12 -2.66602 23.833 2.00098 35.5s14 22.834 28 33.501z" />
    <glyph glyph-name="four" unicode="4" horiz-adv-x="797" 
d="M160 148c-44.667 0 -76.667 10.168 -96 30.501s-29 45.166 -29 74.499c0 18 3.83301 35.333 11.5 52s19.834 34.334 36.501 53.001l259 297c34 39.333 63.667 67.166 89 83.499s53 24.5 83 24.5h7c39.333 0 69.666 -12 90.999 -36s32 -61.667 32 -113v-364h118v-102h-118
v-148h-115v148h-369zM185 250.001h343.998v378c0 10.667 -1.83301 18.667 -5.5 24s-10.5 8 -20.5 8c-8 0 -15.167 -2.5 -21.5 -7.5s-12.833 -11.5 -19.5 -19.5l-292 -330c-5.33301 -6 -9.16602 -11 -11.499 -15s-3.5 -9 -3.5 -15c0 -7.33301 2.33301 -13 7 -17
s12.334 -6 23.001 -6z" />
    <glyph glyph-name="five" unicode="5" horiz-adv-x="714" 
d="M430 449c74.667 0 131.5 -14.499 170.5 -43.499s58.5 -82.167 58.5 -159.5v-50c0 -73.333 -23.833 -124.333 -71.5 -153s-114.167 -43 -199.5 -43h-314v100h342c45.333 0 78 7.66699 98 23s30 37.666 30 66.999v69c0 28 -10 50 -30 66s-52.667 24 -98 24h-342v401h585
v-100h-470v-201h241z" />
    <glyph glyph-name="six" unicode="6" horiz-adv-x="723" 
d="M454 439c74.667 0 131.501 -14.5 170.501 -43.5s58.5 -82.167 58.5 -159.5v-53c0 -73.333 -23.833 -124.333 -71.5 -153s-114.167 -43 -199.5 -43h-43c-112.667 0 -193.167 22.833 -241.5 68.5s-72.5 119.5 -72.5 221.5v145c0 50 6.16699 95.167 18.5 135.5
s31.666 74.833 57.999 103.5s60.5 50.667 102.5 66s92.333 23 151 23h275v-100h-290c-73.333 0 -125 -16.5 -155 -49.5s-45 -83.167 -45 -150.5v-11h284zM354.001 87l77 0.000976562c54 0 91.167 7.66699 111.5 23s30.5 37.666 30.5 66.999v72c0 28 -7.5 50 -22.5 66
s-45.167 24 -90.5 24h-290v-89c0 -64.667 14 -108 42 -130s75.333 -33 142 -33z" />
    <glyph glyph-name="seven" unicode="7" horiz-adv-x="692" 
d="M283 0h-132l378 598c4 6 7 11.5 9 16.5s3 10.167 3 15.5c0 6.66699 -2.33301 11.667 -7 15s-11.334 5 -20.001 5h-478v100h497c42.667 0 73.834 -9 93.501 -27s29.5 -43.333 29.5 -76c0 -16 -3.5 -33.5 -10.5 -52.5s-16.5 -38.167 -28.5 -57.5z" />
    <glyph glyph-name="eight" unicode="8" horiz-adv-x="753" 
d="M76 566c0 31.333 4.32812 58.667 12.9951 82s23.834 42.5 45.501 57.5s50.834 26.167 87.501 33.5s82.334 11 137.001 11h35c54.667 0 100.334 -3.66699 137.001 -11s65.834 -18.5 87.501 -33.5s36.834 -34.167 45.501 -57.5s13 -50.666 13 -81.999v-27
c0 -40 -9 -73.5 -27 -100.5s-49 -46.833 -93 -59.5c49.333 -12.667 85.166 -31.834 107.499 -57.501s33.5 -57.167 33.5 -94.5v-39c0 -60 -21.167 -106.333 -63.5 -139s-115.833 -49 -220.5 -49h-75c-104.667 -0 -178.167 16.333 -220.5 49s-63.5 79 -63.5 139v36
c0 39.333 11.167 72 33.5 98s57.833 45 106.5 57c-44 13.333 -74.833 33.333 -92.5 60s-26.5 60 -26.5 100v27zM561.995 556.001c0 32.667 -11.333 56.5 -34 71.5s-56 22.5 -100 22.5h-103c-44 0 -77.333 -7.5 -100 -22.5s-34 -38.833 -34 -71.5v-37
c0 -32.667 10.5 -56 31.5 -70s54.833 -21 101.5 -21h105c46.667 0 80.5 7 101.5 21s31.5 37.333 31.5 70v37zM582.995 234.001c0 29.333 -12.002 53 -36.002 71s-63.333 27 -118 27h-105c-60 0 -100.667 -9 -122 -27s-32 -41.667 -32 -71v-37c0 -14.667 2.16699 -28 6.5 -40
s12.333 -22.167 24 -30.5s27.834 -14.833 48.501 -19.5s47.334 -7 80.001 -7h95c60 0 101.5 9 124.5 27s34.5 41.333 34.5 70v37z" />
    <glyph glyph-name="nine" unicode="9" horiz-adv-x="723" 
d="M269 311c-74.667 0 -131.501 14.5 -170.501 43.5s-58.5 82.167 -58.5 159.5v53c0 73.333 23.833 124.333 71.5 153s114.167 43 199.5 43h43c112.667 0 193.167 -22.833 241.5 -68.5s72.5 -119.5 72.5 -221.5v-145c0 -50 -6.16699 -95.167 -18.5 -135.5
s-31.666 -74.833 -57.999 -103.5s-60.5 -50.667 -102.5 -66s-92.333 -23 -151 -23h-275v100h290c73.333 0 125 16.5 155 49.5s45 83.167 45 150.5v11h-284zM262.999 411l290 -0.000976562v89c0 64.667 -14 108 -42 130s-75.333 33 -142 33h-77
c-54 0 -91.167 -7.66699 -111.5 -23s-30.5 -37.666 -30.5 -66.999v-72c0 -28 7.5 -50 22.5 -66s45.167 -24 90.5 -24z" />
    <glyph glyph-name="colon" unicode=":" horiz-adv-x="265" 
d="M195 475h-125v125h125v-125zM195 0h-125v125h125v-125z" />
    <glyph glyph-name="semicolon" unicode=";" horiz-adv-x="283" 
d="M75 475v125h125v-125h-125zM45 -130l20.502 65.999c5 16.667 8.66699 30.667 11 42s3.83301 21.5 4.5 30.5s1 19.5 1 31.5v115h112v-115c0 -12 -0.333008 -22.667 -1 -32s-2.33398 -19.666 -5.00098 -30.999s-6.83398 -25.333 -12.501 -42l-22.5 -65h-108z" />
    <glyph glyph-name="less" unicode="&#x3c;" horiz-adv-x="461" 
d="M371 258v-123l-254 168c-16.667 10.667 -28.667 22 -36 34s-11 23.333 -11 34v9c0 10.667 3.66699 22 11 34s19.333 23.333 36 34l254 168v-123l-191 -117z" />
    <glyph glyph-name="equal" unicode="=" horiz-adv-x="506" 
d="M50 425v100h406v-100h-406zM50 225v100h406v-100h-406z" />
    <glyph glyph-name="greater" unicode="&#x3e;" horiz-adv-x="461" 
d="M344 303l-254 -168v123l191 118l-191 117v123l254 -168c16.667 -10.667 28.667 -22 36 -34s11 -23.333 11 -34v-9c0 -10.667 -3.66699 -22 -11 -34s-19.333 -23.333 -36 -34z" />
    <glyph glyph-name="question" unicode="?" horiz-adv-x="626" 
d="M576 512c0 -82 -24.833 -143.167 -74.5 -183.5s-123.167 -60.5 -220.5 -60.5h-111v100h150c55.333 0 93.833 13.5 115.5 40.5s32.5 60.5 32.5 100.5c0 42 -11.667 76 -35 102s-64.333 39 -123 39h-260v100h231c97.333 0 170.833 -19.833 220.5 -59.5
s74.5 -99.167 74.5 -178.5zM170 0v125h125v-125h-125z" />
    <glyph glyph-name="at" unicode="@" horiz-adv-x="893" 
d="M82 613l-0.00195312 97h416c104.667 0 183.334 -27 236.001 -81s79 -126.333 79 -217v-412h-478c-83.333 -0 -146.666 14.833 -189.999 44.5s-65 80.167 -65 151.5v80c0 58 16.333 105.667 49 143s88 56 166 56h283v-383h125v328c0 62 -16.833 109.667 -50.5 143
s-85.167 50 -154.5 50h-416zM291.998 92l176 -0.000976562v293h-176c-38 0 -64.5 -7.66699 -79.5 -23s-22.5 -40.666 -22.5 -75.999v-93c0 -35.333 7.5 -61 22.5 -77s41.5 -24 79.5 -24z" />
    <glyph glyph-name="A" unicode="A" horiz-adv-x="860" 
d="M725 0l-86 202h-420l-86 -202h-123l283 640c16 36 33.167 65.5 51.5 88.5s46.833 34.5 85.5 34.5c38 0 66.5 -11 85.5 -33s35.167 -48.333 48.5 -79l286 -651h-125zM399 626l-135 -317.999h330l-135 317c-4.66699 12 -9.33398 20.167 -14.001 24.5s-10 6.5 -16 6.5
s-11.167 -1.83301 -15.5 -5.5s-9.16602 -11.834 -14.499 -24.501z" />
    <glyph glyph-name="B" unicode="B" 
d="M429 750c88.667 0 157 -12.832 205 -38.499s72 -75.167 72 -148.5v-35c0 -32 -8 -60.833 -24 -86.5s-45.667 -45.5 -89 -59.5c48 -15.333 82 -37.333 102 -66s30 -59.334 30 -92.001v-37c0 -73.333 -24.5 -122.833 -73.5 -148.5s-120.5 -38.5 -214.5 -38.5h-347v750h339z
M468 650.001h-263v-226h261c44 0 75 7.83301 93 23.5s27 39.167 27 70.5v47c0 28.667 -9.16699 50 -27.5 64s-48.5 21 -90.5 21zM485 324.001h-280v-224h281c45.333 0 76.5 7.16699 93.5 21.5s25.5 35.833 25.5 64.5v47c0 26.667 -8.5 48.5 -25.5 65.5
s-48.5 25.5 -94.5 25.5z" />
    <glyph glyph-name="C" unicode="C" horiz-adv-x="756" 
d="M716 100v-100h-331c-58.667 0 -109 7.66699 -151 23s-76.167 37.333 -102.5 66s-45.666 63.167 -57.999 103.5s-18.5 85.5 -18.5 135.5v94c0 50 6.16699 95.167 18.5 135.5s31.666 74.833 57.999 103.5s60.5 50.667 102.5 66s92.333 23 151 23h326v-100h-341
c-69.333 0 -118.333 -16.5 -147 -49.5s-43 -83.167 -43 -150.5v-150c0 -67.333 14.333 -117.5 43 -150.5s77.667 -49.5 147 -49.5h346z" />
    <glyph glyph-name="D" unicode="D" horiz-adv-x="815" 
d="M430 750c112 0 198.333 -27.6689 259 -83.002s91 -132.666 91 -231.999v-120c0 -99.333 -29.833 -176.666 -89.5 -231.999s-148.167 -83 -265.5 -83h-335v750h340zM445 649.998h-240.001v-550h235c69.333 0 122.5 14.5 159.5 43.5s55.5 77.167 55.5 144.5v175
c0 67.333 -18.167 115.333 -54.5 144s-88.166 43 -155.499 43z" />
    <glyph glyph-name="E" unicode="E" horiz-adv-x="758" 
d="M90 0v750h601v-100h-486v-219h486v-100h-486v-231h486v-100h-601z" />
    <glyph glyph-name="F" unicode="F" horiz-adv-x="738" 
d="M90 0v750h601v-100h-486v-219h486v-100h-486v-331h-115z" />
    <glyph glyph-name="G" unicode="G" horiz-adv-x="830" 
d="M744 750l0.00195312 -100.001h-374c-69.333 0 -118.333 -16.5 -147 -49.5s-43 -83.167 -43 -150.5v-162c0 -67.333 14 -117.666 42 -150.999s75.667 -50 143 -50h110c71.333 0 120 7.83301 146 23.5s39 45.167 39 88.5v122h-252v100h367v-204c0 -47.333 -6 -86 -18 -116
s-30.5 -53.333 -55.5 -70s-57.5 -28.167 -97.5 -34.5s-88 -9.5 -144 -9.5h-80c-56 0 -104.5 7.66699 -145.5 23s-74.833 37.333 -101.5 66s-46.334 63.167 -59.001 103.5s-19 85.5 -19 135.5v107c0 50 6.16699 95.167 18.5 135.5s31.666 74.833 57.999 103.5
s60.5 50.667 102.5 66s92.333 23 151 23h359z" />
    <glyph glyph-name="H" unicode="H" horiz-adv-x="885" 
d="M90 0v750h115v-315h475v315h115v-750h-115v330h-475v-330h-115z" />
    <glyph glyph-name="I" unicode="I" horiz-adv-x="315" 
d="M100 0v750h115v-750h-115z" />
    <glyph glyph-name="J" unicode="J" horiz-adv-x="630" 
d="M55 0v107.001h230c50 0 85.833 13.167 107.5 39.5s32.5 63.166 32.5 110.499v493h115v-485c0 -79.333 -22.333 -143.333 -67 -192s-115.667 -73 -213 -73h-205z" />
    <glyph glyph-name="K" unicode="K" horiz-adv-x="785" 
d="M90 0l-0.00292969 750h115v-319h54c32.667 0 56.834 3.33301 72.501 10s32.834 20.667 51.501 42l238 267h141l-329 -367l342 -383h-148l-244 269c-19.333 20.667 -36.666 34.5 -51.999 41.5s-39.333 10.5 -72 10.5h-54v-321h-115z" />
    <glyph glyph-name="L" unicode="L" horiz-adv-x="671" 
d="M90 0v750h115v-650h446v-100h-561z" />
    <glyph glyph-name="M" unicode="M" horiz-adv-x="1141" 
d="M45 0l115.003 629.999c8 44 22 77.167 42 99.5s49 33.5 87 33.5c42 0 73.167 -13.5 93.5 -40.5s35.166 -60.5 44.499 -100.5l122 -515c2 -8.66699 4.16699 -15.5 6.5 -20.5s6.16602 -7.5 11.499 -7.5c6 0 10 2.33301 12 7s4 11.334 6 20.001l124 516
c9.33301 40 25 73.5 47 100.5s52.667 40.5 92 40.5c41.333 0 72.166 -11.167 92.499 -33.5s34.5 -55.5 42.5 -99.5l113 -630h-122l-104 635c-1.33301 10 -3.66602 17 -6.99902 21s-7.66602 6 -12.999 6c-6 0 -11 -2 -15 -6s-7.33301 -11.333 -10 -22l-122 -514
c-10 -42.667 -24.833 -75.5 -44.5 -98.5s-50.167 -34.5 -91.5 -34.5c-42.667 0 -73.334 12.5 -92.001 37.5s-32.334 55.5 -41.001 91.5l-121 517c-2.66699 11.333 -5.66699 19 -9 23s-8 6 -14 6c-5.33301 0 -10 -2 -14 -6s-6.66699 -11 -8 -21l-106 -635h-117z" />
    <glyph glyph-name="N" unicode="N" horiz-adv-x="970" 
d="M90 0v609.998c0 42.667 10.667 78.834 32 108.501s56.666 44.5 105.999 44.5c34.667 0 63.334 -10 86.001 -30s45.667 -49 69 -87l320 -517c6 -9.33301 12 -17 18 -23s12 -9 18 -9c8 0 14.333 2.83301 19 8.5s7 13.834 7 24.501v620h115v-617
c0 -44 -11.167 -79.333 -33.5 -106s-55.166 -40 -98.499 -40c-36.667 0 -66.167 9.66699 -88.5 29s-43.5 45 -63.5 77l-327 525c-6.66699 10.667 -12.334 19.167 -17.001 25.5s-11 9.5 -19 9.5c-10 0 -17.167 -3.33301 -21.5 -10s-6.5 -15.667 -6.5 -27v-616h-115z" />
    <glyph glyph-name="O" unicode="O" horiz-adv-x="870" 
d="M815 315c0 -49.333 -6.5 -94.166 -19.5 -134.499s-32.833 -74.666 -59.5 -102.999s-60.834 -50.333 -102.501 -66s-91.167 -23.5 -148.5 -23.5h-100c-57.333 0 -107 7.83301 -149 23.5s-76.333 37.667 -103 66s-46.334 62.666 -59.001 102.999s-19 85.166 -19 134.499
v120c0 50 6.33301 95.167 19 135.5s32.334 74.833 59.001 103.5s61 50.667 103 66s91.667 23 149 23h100c57.333 0 106.833 -7.66699 148.5 -23s75.834 -37.333 102.501 -66s46.5 -63.167 59.5 -103.5s19.5 -85.5 19.5 -135.5v-120zM180 288
c0 -66.667 14.667 -116.667 44 -150s78 -50 146 -50h130c68.667 0 117.5 16.667 146.5 50s43.5 83.333 43.5 150v175c0 67.333 -14.5 117.5 -43.5 150.5s-77.833 49.5 -146.5 49.5h-130c-68 0 -116.667 -16.5 -146 -49.5s-44 -83.167 -44 -150.5v-175z" />
    <glyph glyph-name="P" unicode="P" horiz-adv-x="786" 
d="M746 542v-44c0 -40.667 -7.5 -74.5 -22.5 -101.5s-35.167 -48.333 -60.5 -64s-54.5 -26.667 -87.5 -33s-67.5 -9.5 -103.5 -9.5h-267v-290h-115v750h382c36 0 70.5 -3.16699 103.5 -9.5s62.167 -17.333 87.5 -33s45.5 -37 60.5 -64s22.5 -60.833 22.5 -101.5zM626 496v48
c0 36 -9.83301 62.667 -29.5 80s-55.167 26 -106.5 26h-285v-260h285c51.333 0 86.833 8.66699 106.5 26s29.5 44 29.5 80z" />
    <glyph glyph-name="Q" unicode="Q" horiz-adv-x="850" 
d="M530 -150l-115.001 138.002h-30c-57.333 0 -107 7.83301 -149 23.5s-76.333 37.667 -103 66s-46.334 62.666 -59.001 102.999s-19 85.166 -19 134.499v120c0 50 6.33301 95.167 19 135.5s32.334 74.833 59.001 103.5s61 50.667 103 66s91.667 23 149 23h100
c57.333 0 106.833 -7.66699 148.5 -23s75.834 -37.333 102.501 -66s46.5 -63.167 59.5 -103.5s19.5 -85.5 19.5 -135.5v-120c0 -89.333 -21.5 -163 -64.5 -221s-110.833 -92.333 -203.5 -103l118 -141h-135zM179.999 288.002c0 -66.667 14.667 -116.667 44 -150
s78 -50 146 -50h130c68.667 0 117.5 16.667 146.5 50s43.5 83.333 43.5 150v175c0 67.333 -14.5 117.5 -43.5 150.5s-77.833 49.5 -146.5 49.5h-130c-68 0 -116.667 -16.5 -146 -49.5s-44 -83.167 -44 -150.5v-175z" />
    <glyph glyph-name="R" unicode="R" horiz-adv-x="803" 
d="M740 0h-142.001l-294 321c-10 10.667 -16.833 22.667 -20.5 36s-3.83398 25.666 -0.500977 36.999c3.33301 10.667 10.5 19.834 21.5 27.501s24.833 11.5 41.5 11.5h173c43.333 0 73.5 6.66699 90.5 20s25.5 38 25.5 74v31c0 36 -8.5 60.333 -25.5 73
s-47.167 19 -90.5 19h-314v-650h-115v750h404c36.667 0 70.834 -3 102.501 -9s59.167 -16.333 82.5 -31s41.5 -34.5 54.5 -59.5s19.5 -56.5 19.5 -94.5v-27c0 -76 -23.167 -127.333 -69.5 -154s-111.166 -40 -194.499 -40h-57z" />
    <glyph glyph-name="S" unicode="S" horiz-adv-x="722" 
d="M440 308l-190 52.001c-65.333 18 -115.833 42 -151.5 72s-53.5 73 -53.5 129s21.167 101.5 63.5 136.5s106.833 52.5 193.5 52.5h350v-100h-363c-48 0 -81.167 -8.33301 -99.5 -25s-27.5 -36.334 -27.5 -59.001c0 -26 8.5 -46.333 25.5 -61s48.167 -28.334 93.5 -41.001
l190 -54c66 -18.667 116.833 -43.5 152.5 -74.5s53.5 -74.167 53.5 -129.5c0 -62 -20.833 -111.833 -62.5 -149.5s-105.167 -56.5 -190.5 -56.5h-359v100h370c44 0 76.167 8.66699 96.5 26s30.5 40.666 30.5 69.999c0 30.667 -8.5 53.834 -25.5 69.501
s-49.167 29.834 -96.5 42.501z" />
    <glyph glyph-name="T" unicode="T" horiz-adv-x="745" 
d="M315 0v650h-300v100h715v-100h-300v-650h-115z" />
    <glyph glyph-name="U" unicode="U" horiz-adv-x="880" 
d="M370 -13c-97.333 0 -168.332 19.667 -212.999 59s-67 101.666 -67 186.999v517h115v-525c0 -46.667 11.833 -81.334 35.5 -104.001s60.5 -34 110.5 -34h180c47.333 0 83.166 11.333 107.499 34s36.5 57.334 36.5 104.001v525h115v-517
c0 -85.333 -22.667 -147.666 -68 -186.999s-119.333 -59 -222 -59h-130z" />
    <glyph glyph-name="V" unicode="V" horiz-adv-x="810" 
d="M160 750l215.998 -612.001c4 -12 8.16699 -20.167 12.5 -24.5s9.5 -6.5 15.5 -6.5s11.167 1.83301 15.5 5.5s8.83301 11.834 13.5 24.501l225 613h122l-238 -642c-13.333 -36 -29.5 -65.167 -48.5 -87.5s-47.5 -33.5 -85.5 -33.5c-39.333 0 -69.166 10.667 -89.499 32
s-36.166 47.333 -47.499 78l-241 653h130z" />
    <glyph glyph-name="W" unicode="W" horiz-adv-x="1232" 
d="M155 750l171.999 -621.999c2.66699 -9.33301 5.66699 -16.166 9 -20.499s8 -6.5 14 -6.5s10.333 1.66699 13 5s5.33398 10.333 8.00098 21l115 493c10 42.667 24 77.167 42 103.5s47.667 39.5 89 39.5c42.667 0 73 -13.833 91 -41.5s31.667 -62.167 41 -103.5l113 -489
c2.66699 -11.333 5.5 -18.833 8.5 -22.5s7.83301 -5.5 14.5 -5.5c5.33301 0 9.5 2.16699 12.5 6.5s5.83301 11.166 8.5 20.499l172 622h119l-177 -630c-12 -42 -27.667 -74.667 -47 -98s-49 -35 -89 -35c-44 0 -75.667 12.333 -95 37s-33.333 57 -42 97l-112 498
c-2 8.66699 -4.16699 15.5 -6.5 20.5s-6.16602 7.5 -11.499 7.5c-6 0 -10 -2.33301 -12 -7s-4 -11.334 -6 -20.001l-114 -499c-8.66699 -40 -22.5 -72.333 -41.5 -97s-50.167 -37 -93.5 -37c-40.667 0 -70.834 11.5 -90.501 34.5s-35.5 55.833 -47.5 98.5l-177 630h120z" />
    <glyph glyph-name="X" unicode="X" horiz-adv-x="809" 
d="M462 276c-12 16.667 -21.167 28.667 -27.5 36s-16.5 11 -30.5 11s-24.333 -3.66699 -31 -11s-15.667 -19.333 -27 -36l-186 -276h-135l261 370l-271 380h142l189 -275c12 -16.667 21.167 -28.667 27.5 -36s16.5 -11 30.5 -11s24.167 3.66699 30.5 11s15.5 19.333 27.5 36
l188 275h134l-261 -371l271 -379h-142z" />
    <glyph glyph-name="Y" unicode="Y" 
d="M333 0v268l-323 482h137l225 -354c4 -6.66699 10.167 -10 18.5 -10s14.5 3.33301 18.5 10l231 354h130l-322 -481v-269h-115z" />
    <glyph glyph-name="Z" unicode="Z" horiz-adv-x="705" 
d="M657 0l-456.999 -0.000976562c-56.667 0 -97.5 12 -122.5 36s-37.5 54.333 -37.5 91c0 30.667 10.667 58.667 32 84s51.666 53 90.999 83l343 262c14 10.667 24 19.834 30 27.501s9 17.5 9 29.5c0 12.667 -4.5 22 -13.5 28s-22.167 9 -39.5 9h-434v100h434
c61.333 0 105.5 -12 132.5 -36s40.5 -57 40.5 -99c0 -30.667 -7.66699 -56.667 -23 -78s-39.333 -44 -72 -68l-367 -274c-15.333 -11.333 -26.333 -21 -33 -29s-10 -17.667 -10 -29c0 -12.667 4.16699 -22 12.5 -28s18.833 -9 31.5 -9h453v-100z" />
    <glyph glyph-name="bracketleft" unicode="[" horiz-adv-x="367" 
d="M90 -170v920h217v-95h-107v-730h107v-95h-217z" />
    <glyph glyph-name="backslash" unicode="\" horiz-adv-x="330" 
d="M120 750l200 -860h-110l-200 860h110z" />
    <glyph glyph-name="bracketright" unicode="]" horiz-adv-x="367" 
d="M277 -170h-217v95h107v730h-107v95h217v-920z" />
    <glyph glyph-name="asciicircum" unicode="^" horiz-adv-x="707" 
d="M425 332l-71 109l-72 -109h-103l109 156c7.33301 10.667 16 19.667 26 27s23.333 11 40 11s29.667 -3.66699 39 -11s18 -16.333 26 -27l109 -156h-103z" />
    <glyph glyph-name="underscore" unicode="_" horiz-adv-x="386" 
d="M0 -100v100h386v-100h-386z" />
    <glyph glyph-name="grave" unicode="`" horiz-adv-x="707" 
d="M411 672h-98l-78 188h106z" />
    <glyph glyph-name="a" unicode="a" horiz-adv-x="683" 
d="M603 383l-0.000976562 -383h-370c-57.333 0 -102.166 11.667 -134.499 35s-48.5 59.333 -48.5 108c0 32.667 11.833 61.5 35.5 86.5s56.5 53.167 98.5 84.5l253 191h-380v95h319c76 0 132.833 -19.667 170.5 -59s56.5 -92 56.5 -158zM227.999 100h265.001v327l-269 -204
c-18.667 -14 -33.334 -25.833 -44.001 -35.5s-16 -23.167 -16 -40.5c0 -16.667 6.33301 -28.667 19 -36s27.667 -11 45 -11z" />
    <glyph glyph-name="b" unicode="b" horiz-adv-x="727" 
d="M80 0v750h110v-150h225c80 0 141.167 -22.333 183.5 -67s63.5 -108.667 63.5 -192v-82c0 -83.333 -21.167 -147.333 -63.5 -192s-103.5 -67 -183.5 -67h-335zM405 505h-215v-410h215c52 0 88.667 11.5 110 34.5s32 61.167 32 114.5v111c0 54 -10.667 92.5 -32 115.5
s-58 34.5 -110 34.5z" />
    <glyph glyph-name="c" unicode="c" horiz-adv-x="642" 
d="M328 505c-52.667 0 -90.5 -10.168 -113.5 -30.501s-34.5 -57.166 -34.5 -110.499v-127c0 -54 11.5 -91.167 34.5 -111.5s60.833 -30.5 113.5 -30.5h259v-95h-264c-76.667 0 -138.834 21 -186.501 63s-71.5 104.667 -71.5 188v98c0 83.333 23.833 146 71.5 188
s109.834 63 186.501 63h264v-95h-259z" />
    <glyph glyph-name="d" unicode="d" horiz-adv-x="727" 
d="M647 750v-750h-335c-80 -0 -141.167 22.333 -183.5 67s-63.5 108.667 -63.5 192v82c0 83.333 21.167 147.333 63.5 192s103.5 67 183.5 67h225v150h110zM322 95h215v410h-215c-52 0 -88.667 -11.5 -110 -34.5s-32 -61.167 -32 -114.5v-111c0 -54 10.667 -92.5 32 -115.5
s58 -34.5 110 -34.5z" />
    <glyph glyph-name="e" unicode="e" horiz-adv-x="717" 
d="M652 262h-471.998v-49c0 -40 12.5 -69.667 37.5 -89s63.167 -29 114.5 -29h301v-95h-286c-41.333 0 -79.333 4.5 -114 13.5s-64.334 23.167 -89.001 42.5s-44 44 -58 74s-21 66 -21 108v105c0 88 23.167 154.333 69.5 199s113.5 67 201.5 67h55
c87.333 0 152.666 -19.667 195.999 -59s65 -98.333 65 -177v-111zM405.002 514h-83.999c-50.667 0 -86.834 -11.333 -108.501 -34s-32.5 -63.334 -32.5 -122.001v-5h357v35c0 44.667 -9 76.834 -27 96.501s-53 29.5 -105 29.5z" />
    <glyph glyph-name="f" unicode="f" horiz-adv-x="465" 
d="M112 0l-0.000976562 505h-97v95h97c0 59.333 15.833 102.5 47.5 129.5s76.834 40.5 135.501 40.5h150v-87h-159c-24 0 -41.333 -4.83301 -52 -14.5s-16 -27.167 -16 -52.5v-16h227v-95h-223v-505h-110z" />
    <glyph glyph-name="g" unicode="g" horiz-adv-x="707" 
d="M371 -150l-274 -0.000976562v95h292c50.667 0 84.667 6.66699 102 20s26 35.666 26 66.999v18h-215c-80 0 -141.167 21.333 -183.5 64s-63.5 104.334 -63.5 185.001v52c0 80.667 21.167 142.334 63.5 185.001s103.5 64 183.5 64h325v-541
c0 -74 -21.167 -127.333 -63.5 -160s-106.5 -49 -192.5 -49zM312 149.999h205v350h-205c-52 0 -88.667 -10 -110 -30s-32 -55 -32 -105v-81c0 -50 10.667 -84.833 32 -104.5s58 -29.5 110 -29.5z" />
    <glyph glyph-name="h" unicode="h" horiz-adv-x="715" 
d="M80 0l-0.000976562 750h110v-150h228c76 0 131.167 -18.333 165.5 -55s51.5 -90 51.5 -160v-385h-110v397c0 39.333 -7.66699 66.333 -23 81s-40.666 22 -75.999 22h-236v-500h-110z" />
    <glyph glyph-name="i" unicode="i" horiz-adv-x="290" 
d="M200 682h-110v108h110v-108zM90 0v600h110v-600h-110z" />
    <glyph glyph-name="j" unicode="j" horiz-adv-x="290" 
d="M210 682h-110v108h110v-108zM100 600l110 -0.000976562v-590c0 -56 -14.667 -96.667 -44 -122s-73.333 -38 -132 -38h-57v95h70c18.667 0 32.167 4.33301 40.5 13s12.5 23.334 12.5 44.001v598z" />
    <glyph glyph-name="k" unicode="k" horiz-adv-x="701" 
d="M80 0v750h110v-398h64c22.667 0 39.834 2.5 51.501 7.5s25.167 15.833 40.5 32.5l195 208h132l-278 -295l286 -305h-140l-195 214c-15.333 16.667 -28.833 27.5 -40.5 32.5s-28.834 7.5 -51.501 7.5h-64v-254h-110z" />
    <glyph glyph-name="l" unicode="l" horiz-adv-x="290" 
d="M90 750h110v-750h-110v750z" />
    <glyph glyph-name="m" unicode="m" horiz-adv-x="1070" 
d="M80 0l-0.00195312 600h694c74.667 0 129.334 -19 164.001 -57s52 -86.667 52 -146v-397h-110v402c0 37.333 -7.66699 63 -23 77s-40.666 21 -75.999 21h-191v-500h-110v500h-290v-500h-110z" />
    <glyph glyph-name="n" unicode="n" horiz-adv-x="715" 
d="M80 0l-0.000976562 600h338c75.333 0 130.333 -18.333 165 -55s52 -90 52 -160v-385h-110v397c0 39.333 -7.66699 66.333 -23 81s-40.666 22 -75.999 22h-236v-500h-110z" />
    <glyph glyph-name="o" unicode="o" horiz-adv-x="747" 
d="M682 349v-98c0 -83.333 -23 -148.166 -69 -194.499s-113.333 -69.5 -202 -69.5h-75c-93.333 0 -161.833 23.167 -205.5 69.5s-65.5 111.166 -65.5 194.499v98c0 83.333 21.833 148.166 65.5 194.499s112.167 69.5 205.5 69.5h75c88.667 0 156 -23.167 202 -69.5
s69 -111.166 69 -194.499zM567 364c0 53.333 -10.167 92.333 -30.5 117s-57.5 37 -111.5 37h-104c-50.667 0 -86.834 -12.333 -108.501 -37s-32.5 -63.667 -32.5 -117v-128c0 -53.333 10.833 -92.333 32.5 -117s57.834 -37 108.501 -37h104c54 0 91.167 12.333 111.5 37
s30.5 63.667 30.5 117v128z" />
    <glyph glyph-name="p" unicode="p" horiz-adv-x="737" 
d="M90 -150v750h335c79.333 0 140.333 -22.333 183 -67s64 -108.667 64 -192v-82c0 -83.333 -21.333 -147.333 -64 -192s-103.667 -67 -183 -67h-225v-150h-110zM415 500l-215 0.000976562v-400h215c52 0 88.667 10.667 110 32s32 59 32 113v111
c0 53.333 -10.667 90.666 -32 111.999s-58 32 -110 32z" />
    <glyph glyph-name="q" unicode="q" horiz-adv-x="727" 
d="M647 600v-750h-110v150h-225c-79.333 -0 -140.333 22.333 -183 67s-64 108.667 -64 192v82c0 83.333 21.333 147.333 64 192s103.667 67 183 67h335zM322 100l215 -0.000976562v400h-215c-52 0 -88.667 -10.667 -110 -32s-32 -58.666 -32 -111.999v-111
c0 -54 10.667 -91.667 32 -113s58 -32 110 -32z" />
    <glyph glyph-name="r" unicode="r" horiz-adv-x="477" 
d="M80 415c0 60.667 19.167 106.668 57.5 138.001s86.833 47 145.5 47h174v-95h-179c-31.333 0 -53.833 -5.83301 -67.5 -17.5s-20.5 -32.834 -20.5 -63.501v-424h-110v415z" />
    <glyph glyph-name="s" unicode="s" horiz-adv-x="627" 
d="M371 239l-147 31c-56 12 -99.833 30.833 -131.5 56.5s-47.5 61.834 -47.5 108.501c0 49.333 18.333 89.166 55 119.499s91.667 45.5 165 45.5h302v-95h-322c-34 0 -57 -6.33301 -69 -19s-18 -27.667 -18 -45c0 -18.667 6.33301 -33.5 19 -44.5s35.667 -19.833 69 -26.5
l145 -30c62 -12.667 110.167 -31.167 144.5 -55.5s51.5 -61.5 51.5 -111.5c0 -52 -19 -93.833 -57 -125.5s-100 -47.5 -186 -47.5h-289v95h315c42 0 70.333 6.5 85 19.5s22 29.833 22 50.5c0 20 -7.66699 35.167 -23 45.5s-43 19.833 -83 28.5z" />
    <glyph glyph-name="t" unicode="t" horiz-adv-x="490" 
d="M15 505v95h100v117h107v-117h223v-95h-223v-343c0 -25.333 5.33301 -42.833 16 -52.5s28 -14.5 52 -14.5h155v-95h-154c-56 0 -99.833 14 -131.5 42s-47.5 70 -47.5 126v337h-97z" />
    <glyph glyph-name="u" unicode="u" horiz-adv-x="715" 
d="M635 600l0.000976562 -600h-338c-75.333 -0 -130.333 18.333 -165 55s-52 90 -52 160v385h110v-397c0 -39.333 7.66699 -66.333 23 -81s40.666 -22 75.999 -22h236v500h110z" />
    <glyph glyph-name="v" unicode="v" horiz-adv-x="723" 
d="M143 600l204 -483.999c2.66699 -5.33301 5.16699 -9.5 7.5 -12.5s5.83301 -4.5 10.5 -4.5s8.16699 1.5 10.5 4.5s4.83301 7.16699 7.5 12.5l203 484h117l-229 -524c-11.333 -26 -25.333 -47 -42 -63s-40 -24 -70 -24c-28.667 0 -51.5 8.16699 -68.5 24.5
s-30.833 37.166 -41.5 62.499l-232 524h123z" />
    <glyph glyph-name="w" unicode="w" horiz-adv-x="1010" 
d="M506 613c32.667 0 59.335 -10.333 80.002 -31s35.667 -51 45 -91l88 -382c1.33301 -5.33301 3.33301 -10 6 -14s6.66699 -6 12 -6s9.16602 1.66699 11.499 5s4.16602 8.33301 5.49902 15l122 491h109l-134 -510c-8 -30.667 -21.167 -55.5 -39.5 -74.5
s-42.5 -28.5 -72.5 -28.5c-38 0 -65.5 9.5 -82.5 28.5s-29.5 45.5 -37.5 79.5l-94 398c-2 7.33301 -4.5 13 -7.5 17s-6.83301 6 -11.5 6c-6.66699 0 -11.5 -2.16699 -14.5 -6.5s-5.16699 -9.83301 -6.5 -16.5l-94 -398c-8 -34 -20.667 -60.5 -38 -79.5s-44 -28.5 -80 -28.5
c-31.333 0 -56 9 -74 27s-31.333 43.333 -40 76l-134 510h112l119 -490c1.33301 -6 3.33301 -11 6 -15s6.66699 -6 12 -6c4.66699 0 8.33398 2 11.001 6s4.66699 9 6 15l89 381c9.33301 40 23.666 70.333 42.999 91s47 31 83 31z" />
    <glyph glyph-name="x" unicode="x" horiz-adv-x="691" 
d="M364 225c-5.33301 6.66699 -11.5 10 -18.5 10s-13.167 -3.33301 -18.5 -10l-174 -225h-138l245 302l-242 298h135l174 -221c5.33301 -6.66699 11.5 -10 18.5 -10s13.167 3.33301 18.5 10l174 221h132l-241 -296l247 -304h-135z" />
    <glyph glyph-name="y" unicode="y" horiz-adv-x="672" 
d="M329 152c2.66699 -4.66699 5.6709 -8.33301 9.00391 -11s6.66602 -4 9.99902 -4s6.66602 1.33301 9.99902 4s6 6.33398 8 11.001l180 448h121l-257 -613c-22 -52 -49.167 -87.833 -81.5 -107.5s-75.5 -29.5 -129.5 -29.5h-138v92h137c32 0 55.667 5.16699 71 15.5
s27 24.833 35 43.5l20 49h-5c-18.667 0 -36.334 5.16699 -53.001 15.5s-31.334 29.166 -44.001 56.499l-217 478h126z" />
    <glyph glyph-name="z" unicode="z" horiz-adv-x="648" 
d="M594 0l-419.999 0.00390625c-44.667 0 -77.834 9.33301 -99.501 28s-32.5 42 -32.5 70c0 22.667 5.66699 42.667 17 60s31.333 36.666 60 57.999l329 245c4.66699 3.33301 8.16699 6.83301 10.5 10.5s3.5 8.16699 3.5 13.5c0 6.66699 -2.16699 11.667 -6.5 15
s-10.833 5 -19.5 5h-374v95h373c44.667 0 80.334 -7.5 107.001 -22.5s40 -41.167 40 -78.5c0 -20.667 -7.16699 -40.834 -21.5 -60.501s-37.833 -41.834 -70.5 -66.501l-313 -236c-4.66699 -4 -8.33398 -7.66699 -11.001 -11s-4 -7.33301 -4 -12
c0 -6.66699 2.33301 -11.334 7 -14.001s10.667 -4 18 -4h407v-95z" />
    <glyph glyph-name="braceleft" unicode="{" horiz-adv-x="365" 
d="M160 292v-4c28 -4.66699 48 -16 60 -34s18 -44 18 -78v-170c0 -30.667 5.16699 -51.834 15.5 -63.501s27.833 -17.5 52.5 -17.5h39v-95h-44c-52.667 0 -94.667 14 -126 42s-47 72.333 -47 133v167c0 22.667 -4.5 39.334 -13.5 50.001s-23.833 16 -44.5 16h-30v104h30
c20.667 0 35.5 5.33301 44.5 16s13.5 27.334 13.5 50.001v167c0 60.667 15.667 105 47 133s73.333 42 126 42h44v-95h-39c-24.667 0 -42.167 -5.83301 -52.5 -17.5s-15.5 -32.834 -15.5 -63.501v-170c0 -34 -6 -60 -18 -78s-32 -29.333 -60 -34z" />
    <glyph glyph-name="bar" unicode="|" horiz-adv-x="310" 
d="M100 750h110v-860h-110v860z" />
    <glyph glyph-name="braceright" unicode="}" horiz-adv-x="365" 
d="M205 292c-28 4.66699 -48 16 -60 34s-18 44 -18 78v170c0 30.667 -5.16699 51.834 -15.5 63.501s-27.833 17.5 -52.5 17.5h-39v95h44c52.667 0 94.667 -14 126 -42s47 -72.333 47 -133v-167c0 -22.667 4.5 -39.334 13.5 -50.001s23.833 -16 44.5 -16h30v-104h-30
c-20.667 0 -35.5 -5.33301 -44.5 -16s-13.5 -27.334 -13.5 -50.001v-167c0 -60.667 -15.667 -105 -47 -133s-73.333 -42 -126 -42h-44v95h39c24.667 0 42.167 5.83301 52.5 17.5s15.5 32.834 15.5 63.501v170c0 34 6 60 18 78s32 29.333 60 34v4z" />
    <glyph glyph-name="asciitilde" unicode="~" horiz-adv-x="860" 
d="M485 410c6.66699 -6.66699 12.001 -11.668 16.001 -15.001s9 -5 15 -5c5.33301 0 9.66602 2 12.999 6s5 10.333 5 19v81h87v-76c0 -35.333 -8.66699 -63.166 -26 -83.499s-42 -30.5 -74 -30.5c-22.667 0 -42 4.66699 -58 14s-33.333 23.666 -52 42.999l-34 35
c-6.66699 6.66699 -12 11.667 -16 15s-8.66699 5 -14 5s-9.83301 -2 -13.5 -6s-5.5 -10.333 -5.5 -19v-81h-87v78c0 36 9 63.667 27 83s42.333 29 73 29c22.667 0 42 -4.66699 58 -14s33.333 -23.666 52 -42.999z" />
    <glyph glyph-name="exclamdown" unicode="&#xa1;" horiz-adv-x="266" 
d="M195 600v-125h-125v125h125zM196 -150h-126l13 550h100z" />
    <glyph glyph-name="cent" unicode="&#xa2;" horiz-adv-x="692" 
d="M354 -150v150h-41c-76.667 0 -138.834 21 -186.501 63s-71.5 104.667 -71.5 188v98c0 83.333 23.833 146 71.5 188s109.834 63 186.501 63h41v150h100v-150h183v-95h-183v-410h183v-95h-183v-150h-100zM318 505c-52.667 0 -90.5 -10.168 -113.5 -30.501
s-34.5 -57.166 -34.5 -110.499v-127c0 -54 11.5 -91.167 34.5 -111.5s60.833 -30.5 113.5 -30.5h36v410h-36z" />
    <glyph glyph-name="sterling" unicode="&#xa3;" horiz-adv-x="756" 
d="M30 0l-0.000976562 100.001h145v225h-145v100h145c0 49.333 6.33301 94.166 19 134.499s32.167 74.5 58.5 102.5s60.333 49.667 102 65s91.834 23 150.501 23h211v-100h-226c-69.333 0 -118.333 -16.5 -147 -49.5s-43 -83.167 -43 -150.5v-25h416v-100h-416v-225h416
v-100h-686z" />
    <glyph glyph-name="currency" unicode="&#xa4;" horiz-adv-x="688" 
d="M344 88c-26.667 0 -52.333 3.83008 -77 11.4971s-47 18.834 -67 33.501l-96 -98l-50 50l96 95c-14.667 18.667 -26.167 39.834 -34.5 63.501s-12.5 48.834 -12.5 75.501s4.33301 52.167 13 76.5s20.334 45.833 35.001 64.5l-97 96l50 50l97 -99
c20 14.667 42.167 25.834 66.5 33.501s49.833 11.5 76.5 11.5s52.167 -3.83301 76.5 -11.5s46.833 -18.5 67.5 -32.5l96 98l50 -51l-96 -94c14.667 -19.333 26.334 -41.166 35.001 -65.499s13 -49.833 13 -76.5s-4.16699 -51.834 -12.5 -75.501
s-19.833 -44.834 -34.5 -63.501l95 -94l-50 -51l-95 97c-20.667 -14 -43.334 -24.833 -68.001 -32.5s-50.334 -11.5 -77.001 -11.5zM344.001 184.997c18 0 35.333 3.66699 52 11s31.5 17.166 44.5 29.499s23.333 26.666 31 42.999s11.5 33.166 11.5 50.499
c0 18 -3.83301 35.333 -11.5 52s-18 31.167 -31 43.5s-27.833 22.166 -44.5 29.499s-34 11 -52 11c-17.333 0 -34.5 -3.66699 -51.5 -11s-31.833 -17.166 -44.5 -29.499s-23 -26.833 -31 -43.5s-12 -34 -12 -52c0 -17.333 4 -34.166 12 -50.499s18.333 -30.666 31 -42.999
s27.5 -22.166 44.5 -29.499s34.167 -11 51.5 -11z" />
    <glyph glyph-name="yen" unicode="&#xa5;" 
d="M62 95v100h271v70h-271v100h206l-258 385h137l225 -354c4 -6.66699 10.167 -10 18.5 -10s14.5 3.33301 18.5 10l231 354h130l-258 -385h207v-100h-271v-70h271v-100h-271v-95h-115v95h-271z" />
    <glyph glyph-name="brokenbar" unicode="&#xa6;" horiz-adv-x="310" 
d="M100 439v311h110v-311h-110zM210 -110h-110v311h110v-311z" />
    <glyph glyph-name="section" unicode="&#xa7;" horiz-adv-x="681" 
d="M621 27c0 -52.667 -19 -95.3311 -57 -127.998s-100 -49 -186 -49h-329v95h365c38 0 63.667 6.83301 77 20.5s20 31.5 20 53.5c0 18.667 -6.16699 35 -18.5 49s-34.833 24.333 -67.5 31l-216 41c-55.333 10.667 -99 30 -131 58s-48 67 -48 117
c0 30.667 6.83301 57.667 20.5 81s34.167 42 61.5 56c-16.667 14.667 -29.5 32.5 -38.5 53.5s-13.5 44.833 -13.5 71.5c0 52 19 93.833 57 125.5s100 47.5 186 47.5h329v-95h-355c-42 0 -70.333 -6.83301 -85 -20.5s-22 -31.5 -22 -53.5c0 -18.667 6.16699 -35 18.5 -49
s34.833 -24.333 67.5 -31l216 -41c55.333 -10.667 99 -30 131 -58s48 -67 48 -117c0 -30 -6.83301 -56.667 -20.5 -80s-34.167 -42.333 -61.5 -57c16.667 -14.667 29.5 -31.834 38.5 -51.501s13.5 -42.834 13.5 -69.501zM446 200.003l9.99902 -2.00098l10 -2
c24.667 2.66699 42.834 12 54.501 28s17.5 34.333 17.5 55s-6.33301 37.834 -19 51.501s-35.667 23.5 -69 29.5l-215 40l-10 2c-3.33301 0.666992 -6.33301 1.33398 -9 2.00098c-24.667 -2.66699 -43 -12 -55 -28s-18 -34.333 -18 -55s6.33301 -37.834 19 -51.501
s35.667 -23.5 69 -29.5z" />
    <glyph glyph-name="dieresis" unicode="&#xa8;" horiz-adv-x="510" 
d="M215 692h-110v106h110v-106zM405 692h-110v106h110v-106z" />
    <glyph glyph-name="copyright" unicode="&#xa9;" horiz-adv-x="930" 
d="M875 315c0 -49.333 -6.5 -94.166 -19.5 -134.499s-32.833 -74.666 -59.5 -102.999s-60.834 -50.333 -102.501 -66s-91.167 -23.5 -148.5 -23.5h-160c-57.333 0 -107 7.83301 -149 23.5s-76.333 37.667 -103 66s-46.334 62.666 -59.001 102.999s-19 85.166 -19 134.499
v120c0 50 6.33301 95.167 19 135.5s32.334 74.833 59.001 103.5s61 50.667 103 66s91.667 23 149 23h160c57.333 0 106.833 -7.66699 148.5 -23s75.834 -37.333 102.501 -66s46.5 -63.167 59.5 -103.5s19.5 -85.5 19.5 -135.5v-120zM161 285
c0 -68.667 16.833 -120.167 50.5 -154.5s85.5 -51.5 155.5 -51.5h196c70.667 0 122.667 17.167 156 51.5s50 85.833 50 154.5v181c0 69.333 -16.667 121 -50 155s-85.333 51 -156 51h-196c-70 0 -121.833 -17 -155.5 -51s-50.5 -85.667 -50.5 -155v-181zM467 501
c-38 0 -65.167 -7.16504 -81.5 -21.498s-24.5 -40.5 -24.5 -78.5v-50c0 -38.667 8.16699 -65.334 24.5 -80.001s43.5 -22 81.5 -22h165v-89h-189c-54.667 0 -99 15.167 -133 45.5s-51 75.166 -51 134.499v71c0 58.667 17 103.167 51 133.5s78.333 45.5 133 45.5h189v-89
h-165z" />
    <glyph glyph-name="ordfeminine" unicode="&#xaa;" horiz-adv-x="372" 
d="M341 604l0.000976562 -185.001h-219c-32.667 0 -57.834 7 -75.501 21s-26.5 33 -26.5 57s8.16699 43.333 24.5 58s35.833 30.334 58.5 47.001l97 73h-175v74h150c58.667 0 101 -12.833 127 -38.5s39 -61.167 39 -106.5zM111.001 500.999h139v112z" />
    <glyph glyph-name="guillemotleft" unicode="&#xab;" horiz-adv-x="761" 
d="M371 258v-123l-254 168c-16.667 10.667 -28.667 22 -36 34s-11 23.333 -11 34v9c0 10.667 3.66699 22 11 34s19.333 23.333 36 34l254 168v-123l-191 -117zM671 258v-123l-254 168c-16.667 10.667 -28.667 22 -36 34s-11 23.333 -11 34v9c0 10.667 3.66699 22 11 34
s19.333 23.333 36 34l254 168v-123l-191 -117z" />
    <glyph glyph-name="registered" unicode="&#xae;" horiz-adv-x="712" 
d="M657 432c0 -71.333 -19.333 -128.833 -58 -172.5s-100 -65.5 -184 -65.5h-118c-84 0 -145.333 21.833 -184 65.5s-58 101.167 -58 172.5v90c0 73.333 19.333 131.833 58 175.5s100 65.5 184 65.5h118c84 0 145.333 -21.833 184 -65.5s58 -102.167 58 -175.5v-90zM132 412
c0 -50.667 12.333 -88.667 37 -114s63 -38 115 -38h144c52 0 90.333 12.667 115 38s37 63.333 37 114v133c0 50.667 -12.333 88.667 -37 114s-63 38 -115 38h-144c-52 0 -90.333 -12.667 -115 -38s-37 -63.333 -37 -114v-133zM496 319l-87.999 -0.000976562l-92 128
c-8.66699 10.667 -10.834 23.334 -6.50098 38.001s16.833 22 37.5 22h41c18.667 0 31.667 2 39 6s11 12.333 11 25v6c0 12.667 -3.66699 21.167 -11 25.5s-20.333 6.5 -39 6.5h-104v-257h-71v318h187c30.667 0 56.667 -5.5 78 -16.5s32 -32.833 32 -65.5v-11
c0 -37.333 -10 -62.333 -30 -75s-47.333 -19 -82 -19h-1z" />
    <glyph glyph-name="macron" unicode="&#xaf;" horiz-adv-x="510" 
d="M375 682h-240v78h240v-78z" />
    <glyph glyph-name="degree" unicode="&#xb0;" horiz-adv-x="432" 
d="M50 584v50c0 40 13 71.833 39 95.5s58.667 35.5 98 35.5h58c38 0 70.333 -11.833 97 -35.5s40 -55.5 40 -95.5v-50c0 -39.333 -13.333 -71.333 -40 -96s-59 -37 -97 -37h-58c-39.333 0 -72 12.333 -98 37s-39 56.667 -39 96zM145 625v-37
c0 -17.333 4.33301 -31.5 13 -42.5s21 -16.5 37 -16.5h42c20 0 33.333 5.5 40 16.5s10 25.167 10 42.5v37c0 18.667 -3.33301 33.667 -10 45s-20 17 -40 17h-42c-16 0 -28.333 -5.66699 -37 -17s-13 -26.333 -13 -45z" />
    <glyph glyph-name="plusminus" unicode="&#xb1;" horiz-adv-x="546" 
d="M50 410v100h173v143h100v-143h173v-100h-173v-143h-100v143h-173zM80 100v100h386v-100h-386z" />
    <glyph glyph-name="twosuperior" unicode="&#xb2;" horiz-adv-x="303" 
d="M285 491l0.000976562 -72.001h-273v54c0 29.333 7 53 21 71s40.333 37.333 79 58l63 32c6.66699 3.33301 11.5 6.83301 14.5 10.5s4.5 7.83398 4.5 12.501c0 8 -2.83301 13.333 -8.5 16s-12.834 4 -21.501 4h-145v73h153c40 0 69.5 -7.33301 88.5 -22
s28.5 -34.334 28.5 -59.001c0 -28.667 -8.5 -50.167 -25.5 -64.5s-41.5 -30.166 -73.5 -47.499l-55 -30c-10 -5.33301 -16.333 -10 -19 -14s-4 -8.66699 -4 -14v-8h173z" />
    <glyph glyph-name="threesuperior" unicode="&#xb3;" horiz-adv-x="312" 
d="M95 620l74 56.0029h-150v74h277v-60l-110 -80c42 0 70.833 -7.33301 86.5 -22s23.5 -31.334 23.5 -50.001v-32c0 -28.667 -10.833 -50.334 -32.5 -65.001s-53.5 -22 -95.5 -22h-142v74h153c8 0 14 1.5 18 4.5s6 9.5 6 19.5v10c0 9.33301 -2.16699 15.333 -6.5 18
s-9.83301 4 -16.5 4h-78c-12 0 -21 3.16699 -27 9.5s-9 14.166 -9 23.499c0 8.66699 2.66699 15.667 8 21s12.333 11 21 17z" />
    <glyph glyph-name="acute" unicode="&#xb4;" horiz-adv-x="707" 
d="M298 672l70 188h106l-78 -188h-98z" />
    <glyph glyph-name="paragraph" unicode="&#xb6;" horiz-adv-x="835" 
d="M40 542c0 40.667 7.5 74.5 22.5 101.5s35.167 48.333 60.5 64s54.5 26.667 87.5 33s67.5 9.5 103.5 9.5h222v-900h-115v440h-107c-36 0 -70.5 3.16699 -103.5 9.5s-62.167 17.333 -87.5 33s-45.5 37 -60.5 64s-22.5 60.833 -22.5 101.5v44zM630 -150v900h115v-900h-115z
" />
    <glyph glyph-name="periodcentered" unicode="&#xb7;" horiz-adv-x="305" 
d="M130 237v125h125v-125h-125z" />
    <glyph glyph-name="cedilla" unicode="&#xb8;" horiz-adv-x="637" 
d="M368 0l-70 -188h-106l78 188h98z" />
    <glyph glyph-name="onesuperior" unicode="&#xb9;" horiz-adv-x="279" 
d="M12 419v69.999h82v171c0 4.66699 -1.16699 8.33398 -3.5 11.001s-5.5 4 -9.5 4h-69v75h89c24.667 0 45 -8 61 -24s24 -35.667 24 -59v-178h81v-70h-255z" />
    <glyph glyph-name="ordmasculine" unicode="&#xba;" horiz-adv-x="400" 
d="M378 605v-42c0 -46 -13.667 -82.5 -41 -109.5s-66.333 -40.5 -117 -40.5h-39c-51.333 0 -90.666 13.5 -117.999 40.5s-41 63.5 -41 109.5v42c0 46 13.667 82.5 41 109.5s66.666 40.5 117.999 40.5h39c50.667 0 89.667 -13.5 117 -40.5s41 -63.5 41 -109.5zM279 614
c0 22.667 -4.16699 39.5 -12.5 50.5s-23.833 16.5 -46.5 16.5h-40c-22 0 -37.333 -5.5 -46 -16.5s-13 -27.833 -13 -50.5v-59c0 -23.333 4.33301 -40.5 13 -51.5s24 -16.5 46 -16.5h40c22.667 0 38.167 5.5 46.5 16.5s12.5 28.167 12.5 51.5v59z" />
    <glyph glyph-name="guillemotright" unicode="&#xbb;" horiz-adv-x="761" 
d="M644 303l-254 -168v123l191 118l-191 117v123l254 -168c16.667 -10.667 28.667 -22 36 -34s11 -23.333 11 -34v-9c0 -10.667 -3.66699 -22 -11 -34s-19.333 -23.333 -36 -34zM344 303l-254 -168v123l191 118l-191 117v123l254 -168c16.667 -10.667 28.667 -22 36 -34
s11 -23.333 11 -34v-9c0 -10.667 -3.66699 -22 -11 -34s-19.333 -23.333 -36 -34z" />
    <glyph glyph-name="onequarter" unicode="&#xbc;" horiz-adv-x="840" 
d="M574 419h-108l155 331h109zM100 419v69.999h82v171c0 4.66699 -1.16699 8.33398 -3.5 11.001s-5.5 4 -9.5 4h-69v75h89c24.667 0 45 -8 61 -24s24 -35.667 24 -59v-178h81v-70h-255zM479 48.999c-28 0 -48.667 5.66699 -62 17s-20 25.666 -20 42.999
c0 11.333 2.83301 22.833 8.5 34.5s15.167 25.834 28.5 42.501l76 96c12.667 16 26.667 28.833 42 38.5s32 14.5 50 14.5h13c20.667 0 38.167 -6.5 52.5 -19.5s21.5 -33.5 21.5 -61.5v-135h51v-70h-51v-49h-90v49h-120zM281 330.999h108l-155 -331h-109zM507 118.999
h91.9971v127c0 2.66699 -0.666992 4.5 -2 5.5s-3 1.5 -5 1.5c-1.33301 0 -2.66602 -0.333008 -3.99902 -1s-2.66602 -1.66699 -3.99902 -3l-85 -113c-1.33301 -1.33301 -2.33301 -2.83301 -3 -4.5s-1 -3.16699 -1 -4.5c0 -2 0.833008 -3.83301 2.5 -5.5
s4.83398 -2.5 9.50098 -2.5z" />
    <glyph glyph-name="onehalf" unicode="&#xbd;" horiz-adv-x="840" 
d="M574 419h-108l155 331h109zM100 419v69.999h82v171c0 4.66699 -1.16699 8.33398 -3.5 11.001s-5.5 4 -9.5 4h-69v75h89c24.667 0 45 -8 61 -24s24 -35.667 24 -59v-178h81v-70h-255zM281 330.999h108l-155 -331h-109zM736 71.999l0.000976562 -72.001h-273v54
c0 29.333 7 53 21 71s40.333 37.333 79 58l63 32c6.66699 3.33301 11.5 6.83301 14.5 10.5s4.5 7.83398 4.5 12.501c0 8 -2.83301 13.333 -8.5 16s-12.834 4 -21.501 4h-145v73h153c40 0 69.5 -7.33301 88.5 -22s28.5 -34.334 28.5 -59.001
c0 -28.667 -8.5 -50.167 -25.5 -64.5s-41.5 -30.166 -73.5 -47.499l-55 -30c-10 -5.33301 -16.333 -10 -19 -14s-4 -8.66699 -4 -14v-8h173z" />
    <glyph glyph-name="questiondown" unicode="&#xbf;" horiz-adv-x="626" 
d="M456 600v-125h-125v125h125zM50 88c0 82 24.833 143.167 74.5 183.5s123.167 60.5 220.5 60.5h111v-100h-150c-55.333 0 -93.833 -13.5 -115.5 -40.5s-32.5 -60.5 -32.5 -100.5c0 -42 11.667 -76 35 -102s64.333 -39 123 -39h260v-100h-231
c-97.333 0 -170.833 19.833 -220.5 59.5s-74.5 99.167 -74.5 178.5z" />
    <glyph glyph-name="Agrave" unicode="&#xc0;" horiz-adv-x="860" 
d="M725 0l-86 202h-420l-86 -202h-123l283 640c16 36 33.167 65.5 51.5 88.5s46.833 34.5 85.5 34.5c38 0 66.5 -11 85.5 -33s35.167 -48.333 48.5 -79l286 -651h-125zM399 626l-135 -317.999h330l-135 317c-4.66699 12 -9.33398 20.167 -14.001 24.5s-10 6.5 -16 6.5
s-11.167 -1.83301 -15.5 -5.5s-9.16602 -11.834 -14.499 -24.501zM488 822.001h-98l-78 188h106z" />
    <glyph glyph-name="Aacute" unicode="&#xc1;" horiz-adv-x="860" 
d="M725 0l-86 202h-420l-86 -202h-123l283 640c16 36 33.167 65.5 51.5 88.5s46.833 34.5 85.5 34.5c38 0 66.5 -11 85.5 -33s35.167 -48.333 48.5 -79l286 -651h-125zM399 626l-135 -317.999h330l-135 317c-4.66699 12 -9.33398 20.167 -14.001 24.5s-10 6.5 -16 6.5
s-11.167 -1.83301 -15.5 -5.5s-9.16602 -11.834 -14.499 -24.501zM386 822.001l70 188h106l-78 -188h-98z" />
    <glyph glyph-name="Acircumflex" unicode="&#xc2;" horiz-adv-x="860" 
d="M725 0l-86 202h-420l-86 -202h-123l283 640c16 36 33.167 65.5 51.5 88.5s46.833 34.5 85.5 34.5c38 0 66.5 -11 85.5 -33s35.167 -48.333 48.5 -79l286 -651h-125zM399 626l-135 -317.999h330l-135 317c-4.66699 12 -9.33398 20.167 -14.001 24.5s-10 6.5 -16 6.5
s-11.167 -1.83301 -15.5 -5.5s-9.16602 -11.834 -14.499 -24.501zM501 822.001l-71 109l-72 -109h-103l109 156c7.33301 10.667 16 19.667 26 27s23.333 11 40 11s29.667 -3.66699 39 -11s18 -16.333 26 -27l109 -156h-103z" />
    <glyph glyph-name="Atilde" unicode="&#xc3;" horiz-adv-x="860" 
d="M725 0l-86 202h-420l-86 -202h-123l283 640c16 36 33.167 65.5 51.5 88.5s46.833 34.5 85.5 34.5c38 0 66.5 -11 85.5 -33s35.167 -48.333 48.5 -79l286 -651h-125zM399 626l-135 -317.999h330l-135 317c-4.66699 12 -9.33398 20.167 -14.001 24.5s-10 6.5 -16 6.5
s-11.167 -1.83301 -15.5 -5.5s-9.16602 -11.834 -14.499 -24.501zM485 920.001c6.66699 -6.66699 12.001 -11.668 16.001 -15.001s9 -5 15 -5c5.33301 0 9.66602 2 12.999 6s5 10.333 5 19v81h87v-76c0 -35.333 -8.66699 -63.166 -26 -83.499s-42 -30.5 -74 -30.5
c-22.667 0 -42 4.66699 -58 14s-33.333 23.666 -52 42.999l-34 35c-6.66699 6.66699 -12 11.667 -16 15s-8.66699 5 -14 5s-9.83301 -2 -13.5 -6s-5.5 -10.333 -5.5 -19v-81h-87v78c0 36 9 63.667 27 83s42.333 29 73 29c22.667 0 42 -4.66699 58 -14
s33.333 -23.666 52 -42.999z" />
    <glyph glyph-name="Adieresis" unicode="&#xc4;" horiz-adv-x="860" 
d="M725 0l-86 202h-420l-86 -202h-123l283 640c16 36 33.167 65.5 51.5 88.5s46.833 34.5 85.5 34.5c38 0 66.5 -11 85.5 -33s35.167 -48.333 48.5 -79l286 -651h-125zM399 626l-135 -317.999h330l-135 317c-4.66699 12 -9.33398 20.167 -14.001 24.5s-10 6.5 -16 6.5
s-11.167 -1.83301 -15.5 -5.5s-9.16602 -11.834 -14.499 -24.501zM390 842.001h-110v106h110v-106zM580 842.001h-110v106h110v-106z" />
    <glyph glyph-name="Aring" unicode="&#xc5;" horiz-adv-x="860" 
d="M725 0l-86 202h-420l-86 -202h-123l283 640c16 36 33.167 65.5 51.5 88.5s46.833 34.5 85.5 34.5c38 0 66.5 -11 85.5 -33s35.167 -48.333 48.5 -79l286 -651h-125zM399 626l-135 -317.999h330l-135 317c-4.66699 12 -9.33398 20.167 -14.001 24.5s-10 6.5 -16 6.5
s-11.167 -1.83301 -15.5 -5.5s-9.16602 -11.834 -14.499 -24.501zM323 904.001v24c0 26 8.5 47 25.5 63s37.833 24 62.5 24h39c24.667 0 45.5 -8 62.5 -24s25.5 -37 25.5 -63v-24c0 -26 -8.5 -47 -25.5 -63s-37.833 -24 -62.5 -24h-39c-24.667 0 -45.5 8 -62.5 24
s-25.5 37 -25.5 63zM383 926.001v-20c0 -11.333 3.33301 -20.5 10 -27.5s15 -10.5 25 -10.5h25c10 0 18.5 3.5 25.5 10.5s10.5 16.167 10.5 27.5v20c0 11.333 -3.5 20.5 -10.5 27.5s-15.5 10.5 -25.5 10.5h-25c-10 0 -18.333 -3.5 -25 -10.5s-10 -16.167 -10 -27.5z" />
    <glyph glyph-name="AE" unicode="&#xc6;" horiz-adv-x="1283" 
d="M615 0v750h601v-100h-486v-219h486v-100h-486v-231h486v-100h-601zM10 0l312 583c28.667 54 60.5 95.333 95.5 124s84.167 43 147.5 43h165v-750h-115v201h-372l-104 -201h-129zM422 545l-126 -241.999h319v347h-47c-38 0 -66.667 -7.83301 -86 -23.5
s-39.333 -42.834 -60 -81.501z" />
    <glyph glyph-name="Ccedilla" unicode="&#xc7;" horiz-adv-x="756" 
d="M716 100v-100h-331c-58.667 0 -109 7.66699 -151 23s-76.167 37.333 -102.5 66s-45.666 63.167 -57.999 103.5s-18.5 85.5 -18.5 135.5v94c0 50 6.16699 95.167 18.5 135.5s31.666 74.833 57.999 103.5s60.5 50.667 102.5 66s92.333 23 151 23h326v-100h-341
c-69.333 0 -118.333 -16.5 -147 -49.5s-43 -83.167 -43 -150.5v-150c0 -67.333 14.333 -117.5 43 -150.5s77.667 -49.5 147 -49.5h346zM510 0l-70 -188h-106l78 188h98z" />
    <glyph glyph-name="Egrave" unicode="&#xc8;" horiz-adv-x="758" 
d="M90 0v750h601v-100h-486v-219h486v-100h-486v-231h486v-100h-601zM462 822h-98l-78 188h106z" />
    <glyph glyph-name="Eacute" unicode="&#xc9;" horiz-adv-x="758" 
d="M90 0v750h601v-100h-486v-219h486v-100h-486v-231h486v-100h-601zM360 822l70 188h106l-78 -188h-98z" />
    <glyph glyph-name="Ecircumflex" unicode="&#xca;" horiz-adv-x="758" 
d="M90 0v750h601v-100h-486v-219h486v-100h-486v-231h486v-100h-601zM475 822l-71 109l-72 -109h-103l109 156c7.33301 10.667 16 19.667 26 27s23.333 11 40 11s29.667 -3.66699 39 -11s18 -16.333 26 -27l109 -156h-103z" />
    <glyph glyph-name="Edieresis" unicode="&#xcb;" horiz-adv-x="758" 
d="M90 0v750h601v-100h-486v-219h486v-100h-486v-231h486v-100h-601zM364 842h-110v106h110v-106zM554 842h-110v106h110v-106z" />
    <glyph glyph-name="Igrave" unicode="&#xcc;" horiz-adv-x="315" 
d="M100 0v750h115v-750h-115zM215 822h-98l-78 188h106z" />
    <glyph glyph-name="Iacute" unicode="&#xcd;" horiz-adv-x="315" 
d="M100 0v750h115v-750h-115zM113 822l70 188h106l-78 -188h-98z" />
    <glyph glyph-name="Icircumflex" unicode="&#xce;" horiz-adv-x="315" 
d="M100 0v750h115v-750h-115zM228 822l-71 109l-72 -109h-103l109 156c7.33301 10.667 16 19.667 26 27s23.333 11 40 11s29.667 -3.66699 39 -11s18 -16.333 26 -27l109 -156h-103z" />
    <glyph glyph-name="Idieresis" unicode="&#xcf;" horiz-adv-x="315" 
d="M100 0v750h115v-750h-115zM117 842h-110v106h110v-106zM307 842h-110v106h110v-106z" />
    <glyph glyph-name="Eth" unicode="&#xd0;" horiz-adv-x="815" 
d="M15 334v94.998h75v321h340c112 0 198.333 -27.667 259 -83s91 -132.666 91 -231.999v-120c0 -99.333 -29.833 -176.666 -89.5 -231.999s-148.167 -83 -265.5 -83h-335v334h-75zM445 649.998h-240.001v-221h245v-95h-245v-234h235c69.333 0 122.5 14.5 159.5 43.5
s55.5 77.167 55.5 144.5v175c0 67.333 -18.167 115.333 -54.5 144s-88.166 43 -155.499 43z" />
    <glyph glyph-name="Ntilde" unicode="&#xd1;" horiz-adv-x="970" 
d="M90 0v609.998c0 42.667 10.667 78.834 32 108.501s56.666 44.5 105.999 44.5c34.667 0 63.334 -10 86.001 -30s45.667 -49 69 -87l320 -517c6 -9.33301 12 -17 18 -23s12 -9 18 -9c8 0 14.333 2.83301 19 8.5s7 13.834 7 24.501v620h115v-617
c0 -44 -11.167 -79.333 -33.5 -106s-55.166 -40 -98.499 -40c-36.667 0 -66.167 9.66699 -88.5 29s-43.5 45 -63.5 77l-327 525c-6.66699 10.667 -12.334 19.167 -17.001 25.5s-11 9.5 -19 9.5c-10 0 -17.167 -3.33301 -21.5 -10s-6.5 -15.667 -6.5 -27v-616h-115z
M540 919.998c6.66699 -6.66699 12.001 -11.668 16.001 -15.001s9 -5 15 -5c5.33301 0 9.66602 2 12.999 6s5 10.333 5 19v81h87v-76c0 -35.333 -8.66699 -63.166 -26 -83.499s-42 -30.5 -74 -30.5c-22.667 0 -42 4.66699 -58 14s-33.333 23.666 -52 42.999l-34 35
c-6.66699 6.66699 -12 11.667 -16 15s-8.66699 5 -14 5s-9.83301 -2 -13.5 -6s-5.5 -10.333 -5.5 -19v-81h-87v78c0 36 9 63.667 27 83s42.333 29 73 29c22.667 0 42 -4.66699 58 -14s33.333 -23.666 52 -42.999z" />
    <glyph glyph-name="Ograve" unicode="&#xd2;" horiz-adv-x="870" 
d="M815 315c0 -49.333 -6.5 -94.166 -19.5 -134.499s-32.833 -74.666 -59.5 -102.999s-60.834 -50.333 -102.501 -66s-91.167 -23.5 -148.5 -23.5h-100c-57.333 0 -107 7.83301 -149 23.5s-76.333 37.667 -103 66s-46.334 62.666 -59.001 102.999s-19 85.166 -19 134.499
v120c0 50 6.33301 95.167 19 135.5s32.334 74.833 59.001 103.5s61 50.667 103 66s91.667 23 149 23h100c57.333 0 106.833 -7.66699 148.5 -23s75.834 -37.333 102.501 -66s46.5 -63.167 59.5 -103.5s19.5 -85.5 19.5 -135.5v-120zM180 288
c0 -66.667 14.667 -116.667 44 -150s78 -50 146 -50h130c68.667 0 117.5 16.667 146.5 50s43.5 83.333 43.5 150v175c0 67.333 -14.5 117.5 -43.5 150.5s-77.833 49.5 -146.5 49.5h-130c-68 0 -116.667 -16.5 -146 -49.5s-44 -83.167 -44 -150.5v-175zM493 822h-98l-78 188
h106z" />
    <glyph glyph-name="Oacute" unicode="&#xd3;" horiz-adv-x="870" 
d="M815 315c0 -49.333 -6.5 -94.166 -19.5 -134.499s-32.833 -74.666 -59.5 -102.999s-60.834 -50.333 -102.501 -66s-91.167 -23.5 -148.5 -23.5h-100c-57.333 0 -107 7.83301 -149 23.5s-76.333 37.667 -103 66s-46.334 62.666 -59.001 102.999s-19 85.166 -19 134.499
v120c0 50 6.33301 95.167 19 135.5s32.334 74.833 59.001 103.5s61 50.667 103 66s91.667 23 149 23h100c57.333 0 106.833 -7.66699 148.5 -23s75.834 -37.333 102.501 -66s46.5 -63.167 59.5 -103.5s19.5 -85.5 19.5 -135.5v-120zM180 288
c0 -66.667 14.667 -116.667 44 -150s78 -50 146 -50h130c68.667 0 117.5 16.667 146.5 50s43.5 83.333 43.5 150v175c0 67.333 -14.5 117.5 -43.5 150.5s-77.833 49.5 -146.5 49.5h-130c-68 0 -116.667 -16.5 -146 -49.5s-44 -83.167 -44 -150.5v-175zM391 822l70 188h106
l-78 -188h-98z" />
    <glyph glyph-name="Ocircumflex" unicode="&#xd4;" horiz-adv-x="870" 
d="M815 315c0 -49.333 -6.5 -94.166 -19.5 -134.499s-32.833 -74.666 -59.5 -102.999s-60.834 -50.333 -102.501 -66s-91.167 -23.5 -148.5 -23.5h-100c-57.333 0 -107 7.83301 -149 23.5s-76.333 37.667 -103 66s-46.334 62.666 -59.001 102.999s-19 85.166 -19 134.499
v120c0 50 6.33301 95.167 19 135.5s32.334 74.833 59.001 103.5s61 50.667 103 66s91.667 23 149 23h100c57.333 0 106.833 -7.66699 148.5 -23s75.834 -37.333 102.501 -66s46.5 -63.167 59.5 -103.5s19.5 -85.5 19.5 -135.5v-120zM180 288
c0 -66.667 14.667 -116.667 44 -150s78 -50 146 -50h130c68.667 0 117.5 16.667 146.5 50s43.5 83.333 43.5 150v175c0 67.333 -14.5 117.5 -43.5 150.5s-77.833 49.5 -146.5 49.5h-130c-68 0 -116.667 -16.5 -146 -49.5s-44 -83.167 -44 -150.5v-175zM506 822l-71 109
l-72 -109h-103l109 156c7.33301 10.667 16 19.667 26 27s23.333 11 40 11s29.667 -3.66699 39 -11s18 -16.333 26 -27l109 -156h-103z" />
    <glyph glyph-name="Otilde" unicode="&#xd5;" horiz-adv-x="870" 
d="M815 315c0 -49.333 -6.5 -94.166 -19.5 -134.499s-32.833 -74.666 -59.5 -102.999s-60.834 -50.333 -102.501 -66s-91.167 -23.5 -148.5 -23.5h-100c-57.333 0 -107 7.83301 -149 23.5s-76.333 37.667 -103 66s-46.334 62.666 -59.001 102.999s-19 85.166 -19 134.499
v120c0 50 6.33301 95.167 19 135.5s32.334 74.833 59.001 103.5s61 50.667 103 66s91.667 23 149 23h100c57.333 0 106.833 -7.66699 148.5 -23s75.834 -37.333 102.501 -66s46.5 -63.167 59.5 -103.5s19.5 -85.5 19.5 -135.5v-120zM180 288
c0 -66.667 14.667 -116.667 44 -150s78 -50 146 -50h130c68.667 0 117.5 16.667 146.5 50s43.5 83.333 43.5 150v175c0 67.333 -14.5 117.5 -43.5 150.5s-77.833 49.5 -146.5 49.5h-130c-68 0 -116.667 -16.5 -146 -49.5s-44 -83.167 -44 -150.5v-175zM490 920
c6.66699 -6.66699 12.001 -11.668 16.001 -15.001s9 -5 15 -5c5.33301 0 9.66602 2 12.999 6s5 10.333 5 19v81h87v-76c0 -35.333 -8.66699 -63.166 -26 -83.499s-42 -30.5 -74 -30.5c-22.667 0 -42 4.66699 -58 14s-33.333 23.666 -52 42.999l-34 35
c-6.66699 6.66699 -12 11.667 -16 15s-8.66699 5 -14 5s-9.83301 -2 -13.5 -6s-5.5 -10.333 -5.5 -19v-81h-87v78c0 36 9 63.667 27 83s42.333 29 73 29c22.667 0 42 -4.66699 58 -14s33.333 -23.666 52 -42.999z" />
    <glyph glyph-name="Odieresis" unicode="&#xd6;" horiz-adv-x="870" 
d="M815 315c0 -49.333 -6.5 -94.166 -19.5 -134.499s-32.833 -74.666 -59.5 -102.999s-60.834 -50.333 -102.501 -66s-91.167 -23.5 -148.5 -23.5h-100c-57.333 0 -107 7.83301 -149 23.5s-76.333 37.667 -103 66s-46.334 62.666 -59.001 102.999s-19 85.166 -19 134.499
v120c0 50 6.33301 95.167 19 135.5s32.334 74.833 59.001 103.5s61 50.667 103 66s91.667 23 149 23h100c57.333 0 106.833 -7.66699 148.5 -23s75.834 -37.333 102.501 -66s46.5 -63.167 59.5 -103.5s19.5 -85.5 19.5 -135.5v-120zM180 288
c0 -66.667 14.667 -116.667 44 -150s78 -50 146 -50h130c68.667 0 117.5 16.667 146.5 50s43.5 83.333 43.5 150v175c0 67.333 -14.5 117.5 -43.5 150.5s-77.833 49.5 -146.5 49.5h-130c-68 0 -116.667 -16.5 -146 -49.5s-44 -83.167 -44 -150.5v-175zM395 842h-110v106h110
v-106zM585 842h-110v106h110v-106z" />
    <glyph glyph-name="multiply" unicode="&#xd7;" horiz-adv-x="528" 
d="M50 519l70 70l144 -144l144 144l70 -70l-144 -144l144 -144l-70 -70l-144 144l-144 -144l-70 70l144 144z" />
    <glyph glyph-name="Oslash" unicode="&#xd8;" horiz-adv-x="870" 
d="M815 315c0 -49.333 -6.50098 -94.1689 -19.501 -134.502s-32.833 -74.666 -59.5 -102.999s-60.834 -50.333 -102.501 -66s-91.167 -23.5 -148.5 -23.5h-100c-42.667 0 -81.167 4.33301 -115.5 13s-64.166 21.334 -89.499 38.001l-35 -39h-95l76 85
c-24 28.667 -41.833 62.5 -53.5 101.5s-17.5 81.833 -17.5 128.5v120c0 50 6.33301 95.167 19 135.5s32.334 74.833 59.001 103.5s61 50.667 103 66s91.667 23 149 23h100c42 0 80 -4.16699 114 -12.5s63.667 -20.5 89 -36.5l32 36h100l-76 -85
c24 -28 41.833 -61.5 53.5 -100.5s17.5 -82.167 17.5 -129.5v-120zM179.999 287.997c0 -24 1.83398 -45.833 5.50098 -65.5s9.16699 -37.167 16.5 -52.5l417 467c-14.667 8.66699 -31.834 15.167 -51.501 19.5s-42.167 6.5 -67.5 6.5h-130c-68 0 -116.667 -16.5 -146 -49.5
s-44 -83.167 -44 -150.5v-175zM370 87.9971h130.001c68.667 0 117.5 16.667 146.5 50s43.5 83.333 43.5 150v175c0 24 -1.83301 46 -5.5 66s-9.16699 37.333 -16.5 52l-419 -465c14.667 -9.33301 32.167 -16.333 52.5 -21s43.166 -7 68.499 -7z" />
    <glyph glyph-name="Ugrave" unicode="&#xd9;" horiz-adv-x="880" 
d="M370 -13c-97.333 0 -168.332 19.667 -212.999 59s-67 101.666 -67 186.999v517h115v-525c0 -46.667 11.833 -81.334 35.5 -104.001s60.5 -34 110.5 -34h180c47.333 0 83.166 11.333 107.499 34s36.5 57.334 36.5 104.001v525h115v-517
c0 -85.333 -22.667 -147.666 -68 -186.999s-119.333 -59 -222 -59h-130zM498.001 822h-98l-78 188h106z" />
    <glyph glyph-name="Uacute" unicode="&#xda;" horiz-adv-x="880" 
d="M370 -13c-97.333 0 -168.332 19.667 -212.999 59s-67 101.666 -67 186.999v517h115v-525c0 -46.667 11.833 -81.334 35.5 -104.001s60.5 -34 110.5 -34h180c47.333 0 83.166 11.333 107.499 34s36.5 57.334 36.5 104.001v525h115v-517
c0 -85.333 -22.667 -147.666 -68 -186.999s-119.333 -59 -222 -59h-130zM396.001 822l70 188h106l-78 -188h-98z" />
    <glyph glyph-name="Ucircumflex" unicode="&#xdb;" horiz-adv-x="880" 
d="M370 -13c-97.333 0 -168.332 19.667 -212.999 59s-67 101.666 -67 186.999v517h115v-525c0 -46.667 11.833 -81.334 35.5 -104.001s60.5 -34 110.5 -34h180c47.333 0 83.166 11.333 107.499 34s36.5 57.334 36.5 104.001v525h115v-517
c0 -85.333 -22.667 -147.666 -68 -186.999s-119.333 -59 -222 -59h-130zM511.001 822l-71 109l-72 -109h-103l109 156c7.33301 10.667 16 19.667 26 27s23.333 11 40 11s29.667 -3.66699 39 -11s18 -16.333 26 -27l109 -156h-103z" />
    <glyph glyph-name="Udieresis" unicode="&#xdc;" horiz-adv-x="880" 
d="M370 -13c-97.333 0 -168.332 19.667 -212.999 59s-67 101.666 -67 186.999v517h115v-525c0 -46.667 11.833 -81.334 35.5 -104.001s60.5 -34 110.5 -34h180c47.333 0 83.166 11.333 107.499 34s36.5 57.334 36.5 104.001v525h115v-517
c0 -85.333 -22.667 -147.666 -68 -186.999s-119.333 -59 -222 -59h-130zM400.001 842h-110v106h110v-106zM590.001 842h-110v106h110v-106z" />
    <glyph glyph-name="Yacute" unicode="&#xdd;" 
d="M333 0v268l-323 482h137l225 -354c4 -6.66699 10.167 -10 18.5 -10s14.5 3.33301 18.5 10l231 354h130l-322 -481v-269h-115zM346 822l70 188h106l-78 -188h-98z" />
    <glyph glyph-name="Thorn" unicode="&#xde;" horiz-adv-x="786" 
d="M205 750v-145h267c36 0 70.5 -3.16699 103.5 -9.5s62.167 -17.333 87.5 -33s45.5 -37 60.5 -64s22.5 -60.833 22.5 -101.5v-44c0 -40.667 -7.5 -74.5 -22.5 -101.5s-35.167 -48.333 -60.5 -64s-54.5 -26.667 -87.5 -33s-67.5 -9.5 -103.5 -9.5h-267v-145h-115v750h115z
M490 505h-285v-260h285c51.333 0 86.833 8.66699 106.5 26s29.5 44 29.5 80v48c0 36 -9.83301 62.667 -29.5 80s-55.167 26 -106.5 26z" />
    <glyph glyph-name="germandbls" unicode="&#xdf;" horiz-adv-x="792" 
d="M323 750l163.001 0.000976562c73.333 0 128.666 -15.333 165.999 -46s56 -75.334 56 -134.001v-48c0 -27.333 -7 -52.833 -21 -76.5s-42.667 -41.5 -86 -53.5c48 -8.66699 81.833 -26.667 101.5 -54s29.5 -62.333 29.5 -105v-41
c0 -75.333 -19.833 -126.166 -59.5 -152.499s-97.5 -39.5 -173.5 -39.5h-201v100h230c30.667 0 52.334 6.66699 65.001 20s19 32.666 19 57.999v75c0 26 -6.83301 46.333 -20.5 61s-34.834 22 -63.501 22h-230v100h212c32.667 0 55 7.33301 67 22s18 35.667 18 63v47
c0 26.667 -7 47 -21 61s-37 21 -69 21h-211c-29.333 0 -52.333 -7.33301 -69 -22s-25 -41.667 -25 -81v-547h-110v526c0 78 21.5 134.833 64.5 170.5s99.167 53.5 168.5 53.5z" />
    <glyph glyph-name="agrave" unicode="&#xe0;" horiz-adv-x="683" 
d="M603 383l-0.000976562 -383h-370c-57.333 0 -102.166 11.667 -134.499 35s-48.5 59.333 -48.5 108c0 32.667 11.833 61.5 35.5 86.5s56.5 53.167 98.5 84.5l253 191h-380v95h319c76 0 132.833 -19.667 170.5 -59s56.5 -92 56.5 -158zM227.999 100h265.001v327l-269 -204
c-18.667 -14 -33.334 -25.833 -44.001 -35.5s-16 -23.167 -16 -40.5c0 -16.667 6.33301 -28.667 19 -36s27.667 -11 45 -11zM397 672h-98l-78 188h106z" />
    <glyph glyph-name="aacute" unicode="&#xe1;" horiz-adv-x="683" 
d="M603 383l-0.000976562 -383h-370c-57.333 0 -102.166 11.667 -134.499 35s-48.5 59.333 -48.5 108c0 32.667 11.833 61.5 35.5 86.5s56.5 53.167 98.5 84.5l253 191h-380v95h319c76 0 132.833 -19.667 170.5 -59s56.5 -92 56.5 -158zM227.999 100h265.001v327l-269 -204
c-18.667 -14 -33.334 -25.833 -44.001 -35.5s-16 -23.167 -16 -40.5c0 -16.667 6.33301 -28.667 19 -36s27.667 -11 45 -11zM296 672l70 188h106l-78 -188h-98z" />
    <glyph glyph-name="acircumflex" unicode="&#xe2;" horiz-adv-x="683" 
d="M603 383l-0.000976562 -383h-370c-57.333 0 -102.166 11.667 -134.499 35s-48.5 59.333 -48.5 108c0 32.667 11.833 61.5 35.5 86.5s56.5 53.167 98.5 84.5l253 191h-380v95h319c76 0 132.833 -19.667 170.5 -59s56.5 -92 56.5 -158zM227.999 100h265.001v327l-269 -204
c-18.667 -14 -33.334 -25.833 -44.001 -35.5s-16 -23.167 -16 -40.5c0 -16.667 6.33301 -28.667 19 -36s27.667 -11 45 -11zM411 672l-71 109l-72 -109h-103l109 156c7.33301 10.667 16 19.667 26 27s23.333 11 40 11s29.667 -3.66699 39 -11s18 -16.333 26 -27l109 -156
h-103z" />
    <glyph glyph-name="atilde" unicode="&#xe3;" horiz-adv-x="683" 
d="M603 383l-0.000976562 -383h-370c-57.333 0 -102.166 11.667 -134.499 35s-48.5 59.333 -48.5 108c0 32.667 11.833 61.5 35.5 86.5s56.5 53.167 98.5 84.5l253 191h-380v95h319c76 0 132.833 -19.667 170.5 -59s56.5 -92 56.5 -158zM227.999 100h265.001v327l-269 -204
c-18.667 -14 -33.334 -25.833 -44.001 -35.5s-16 -23.167 -16 -40.5c0 -16.667 6.33301 -28.667 19 -36s27.667 -11 45 -11zM395 770c6.66699 -6.66699 12.001 -11.668 16.001 -15.001s9 -5 15 -5c5.33301 0 9.66602 2 12.999 6s5 10.333 5 19v81h87v-76
c0 -35.333 -8.66699 -63.166 -26 -83.499s-42 -30.5 -74 -30.5c-22.667 0 -42 4.66699 -58 14s-33.333 23.666 -52 42.999l-34 35c-6.66699 6.66699 -12 11.667 -16 15s-8.66699 5 -14 5s-9.83301 -2 -13.5 -6s-5.5 -10.333 -5.5 -19v-81h-87v78c0 36 9 63.667 27 83
s42.333 29 73 29c22.667 0 42 -4.66699 58 -14s33.333 -23.666 52 -42.999z" />
    <glyph glyph-name="adieresis" unicode="&#xe4;" horiz-adv-x="683" 
d="M603 383l-0.000976562 -383h-370c-57.333 0 -102.166 11.667 -134.499 35s-48.5 59.333 -48.5 108c0 32.667 11.833 61.5 35.5 86.5s56.5 53.167 98.5 84.5l253 191h-380v95h319c76 0 132.833 -19.667 170.5 -59s56.5 -92 56.5 -158zM227.999 100h265.001v327l-269 -204
c-18.667 -14 -33.334 -25.833 -44.001 -35.5s-16 -23.167 -16 -40.5c0 -16.667 6.33301 -28.667 19 -36s27.667 -11 45 -11zM300 692h-110v106h110v-106zM490 692h-110v106h110v-106z" />
    <glyph glyph-name="aring" unicode="&#xe5;" horiz-adv-x="683" 
d="M603 383l-0.000976562 -383h-370c-57.333 0 -102.166 11.667 -134.499 35s-48.5 59.333 -48.5 108c0 32.667 11.833 61.5 35.5 86.5s56.5 53.167 98.5 84.5l253 191h-380v95h319c76 0 132.833 -19.667 170.5 -59s56.5 -92 56.5 -158zM227.999 100h265.001v327l-269 -204
c-18.667 -14 -33.334 -25.833 -44.001 -35.5s-16 -23.167 -16 -40.5c0 -16.667 6.33301 -28.667 19 -36s27.667 -11 45 -11zM232 754v24c0 26 8.5 47 25.5 63s37.833 24 62.5 24h39c24.667 0 45.5 -8 62.5 -24s25.5 -37 25.5 -63v-24c0 -26 -8.5 -47 -25.5 -63
s-37.833 -24 -62.5 -24h-39c-24.667 0 -45.5 8 -62.5 24s-25.5 37 -25.5 63zM292 776v-20c0 -11.333 3.33301 -20.5 10 -27.5s15 -10.5 25 -10.5h25c10 0 18.5 3.5 25.5 10.5s10.5 16.167 10.5 27.5v20c0 11.333 -3.5 20.5 -10.5 27.5s-15.5 10.5 -25.5 10.5h-25
c-10 0 -18.333 -3.5 -25 -10.5s-10 -16.167 -10 -27.5z" />
    <glyph glyph-name="ae" unicode="&#xe6;" horiz-adv-x="1142" 
d="M764 0c-48.667 0 -90.6699 7 -126.003 21s-63.666 34 -84.999 60c-17.333 -28 -42.666 -48.5 -75.999 -61.5s-78.666 -19.5 -135.999 -19.5h-98c-60 -0 -107.167 11.333 -141.5 34s-51.5 58.334 -51.5 107.001c0 37.333 11.833 69.666 35.5 96.999s57.5 56.333 101.5 87
l262 180h-367v95h309c46 0 81.833 -5.5 107.5 -16.5s45.834 -27.833 60.501 -50.5c21.333 22.667 49.833 39.5 85.5 50.5s77.167 16.5 124.5 16.5h62c87.333 0 150.166 -20.333 188.499 -61s57.5 -100.334 57.5 -179.001v-98h-464v-29
c0 -49.333 10.833 -84.666 32.5 -105.999s53.167 -32 94.5 -32h318v-95h-294zM859.997 505l-130 0.000976562c-42 0 -72 -10.333 -90 -31s-27 -55.334 -27 -104.001v-17h354v42c0 38 -7.33301 65.833 -22 83.5s-43 26.5 -85 26.5zM227.997 100.001h123
c56 0 96.167 9.66699 120.5 29s36.5 60 36.5 122v174l-284 -199c-18.667 -13.333 -33.667 -25 -45 -35s-17 -23.667 -17 -41s6.5 -30 19.5 -38s28.5 -12 46.5 -12z" />
    <glyph glyph-name="ccedilla" unicode="&#xe7;" horiz-adv-x="642" 
d="M328 505c-52.667 0 -90.5 -10.168 -113.5 -30.501s-34.5 -57.166 -34.5 -110.499v-127c0 -54 11.5 -91.167 34.5 -111.5s60.833 -30.5 113.5 -30.5h259v-95h-264c-76.667 0 -138.834 21 -186.501 63s-71.5 104.667 -71.5 188v98c0 83.333 23.833 146 71.5 188
s109.834 63 186.501 63h264v-95h-259zM429 -0.000976562l-70 -188h-106l78 188h98z" />
    <glyph glyph-name="egrave" unicode="&#xe8;" horiz-adv-x="717" 
d="M652 262h-471.998v-49c0 -40 12.5 -69.667 37.5 -89s63.167 -29 114.5 -29h301v-95h-286c-41.333 0 -79.333 4.5 -114 13.5s-64.334 23.167 -89.001 42.5s-44 44 -58 74s-21 66 -21 108v105c0 88 23.167 154.333 69.5 199s113.5 67 201.5 67h55
c87.333 0 152.666 -19.667 195.999 -59s65 -98.333 65 -177v-111zM405.002 514h-83.999c-50.667 0 -86.834 -11.333 -108.501 -34s-32.5 -63.334 -32.5 -122.001v-5h357v35c0 44.667 -9 76.834 -27 96.501s-53 29.5 -105 29.5zM427.003 672h-98l-78 188h106z" />
    <glyph glyph-name="eacute" unicode="&#xe9;" horiz-adv-x="717" 
d="M652 262h-471.998v-49c0 -40 12.5 -69.667 37.5 -89s63.167 -29 114.5 -29h301v-95h-286c-41.333 0 -79.333 4.5 -114 13.5s-64.334 23.167 -89.001 42.5s-44 44 -58 74s-21 66 -21 108v105c0 88 23.167 154.333 69.5 199s113.5 67 201.5 67h55
c87.333 0 152.666 -19.667 195.999 -59s65 -98.333 65 -177v-111zM405.002 514h-83.999c-50.667 0 -86.834 -11.333 -108.501 -34s-32.5 -63.334 -32.5 -122.001v-5h357v35c0 44.667 -9 76.834 -27 96.501s-53 29.5 -105 29.5zM325.003 672l70 188h106l-78 -188h-98z" />
    <glyph glyph-name="ecircumflex" unicode="&#xea;" horiz-adv-x="717" 
d="M652 262h-471.998v-49c0 -40 12.5 -69.667 37.5 -89s63.167 -29 114.5 -29h301v-95h-286c-41.333 0 -79.333 4.5 -114 13.5s-64.334 23.167 -89.001 42.5s-44 44 -58 74s-21 66 -21 108v105c0 88 23.167 154.333 69.5 199s113.5 67 201.5 67h55
c87.333 0 152.666 -19.667 195.999 -59s65 -98.333 65 -177v-111zM405.002 514h-83.999c-50.667 0 -86.834 -11.333 -108.501 -34s-32.5 -63.334 -32.5 -122.001v-5h357v35c0 44.667 -9 76.834 -27 96.501s-53 29.5 -105 29.5zM440.003 672l-71 109l-72 -109h-103l109 156
c7.33301 10.667 16 19.667 26 27s23.333 11 40 11s29.667 -3.66699 39 -11s18 -16.333 26 -27l109 -156h-103z" />
    <glyph glyph-name="edieresis" unicode="&#xeb;" horiz-adv-x="717" 
d="M652 262h-471.998v-49c0 -40 12.5 -69.667 37.5 -89s63.167 -29 114.5 -29h301v-95h-286c-41.333 0 -79.333 4.5 -114 13.5s-64.334 23.167 -89.001 42.5s-44 44 -58 74s-21 66 -21 108v105c0 88 23.167 154.333 69.5 199s113.5 67 201.5 67h55
c87.333 0 152.666 -19.667 195.999 -59s65 -98.333 65 -177v-111zM405.002 514h-83.999c-50.667 0 -86.834 -11.333 -108.501 -34s-32.5 -63.334 -32.5 -122.001v-5h357v35c0 44.667 -9 76.834 -27 96.501s-53 29.5 -105 29.5zM329.003 692h-110v106h110v-106zM519.003 692
h-110v106h110v-106z" />
    <glyph glyph-name="igrave" unicode="&#xec;" horiz-adv-x="290" 
d="M90 0v600h110v-600h-110zM202 672h-98l-78 188h106z" />
    <glyph glyph-name="iacute" unicode="&#xed;" horiz-adv-x="290" 
d="M90 0v600h110v-600h-110zM101 672l70 188h106l-78 -188h-98z" />
    <glyph glyph-name="icircumflex" unicode="&#xee;" horiz-adv-x="290" 
d="M90 0v600h110v-600h-110zM216 672l-71 109l-72 -109h-103l109 156c7.33301 10.667 16 19.667 26 27s23.333 11 40 11s29.667 -3.66699 39 -11s18 -16.333 26 -27l109 -156h-103z" />
    <glyph glyph-name="idieresis" unicode="&#xef;" horiz-adv-x="290" 
d="M90 0v600h110v-600h-110zM105 692h-110v106h110v-106zM295 692h-110v106h110v-106z" />
    <glyph glyph-name="eth" unicode="&#xf0;" horiz-adv-x="740" 
d="M265 478l0.000976562 94.999l117 50l-182 127h174l120 -79l191 82v-95l-106 -45c37.333 -29.333 62.666 -57.5 75.999 -84.5s20 -62.5 20 -106.5v-145c0 -102 -23.333 -175.833 -70 -221.5s-124.667 -68.5 -234 -68.5h-63c-85.333 0 -151.833 14.333 -199.5 43
s-71.5 79.667 -71.5 153v43c0 77.333 19.5 130.5 58.5 159.5s95.833 43.5 170.5 43.5h294c-0.666992 28.667 -7.5 51.834 -20.5 69.501s-37.5 39.5 -73.5 65.5zM386.001 86.999c63.333 0 108.167 10.999 134.5 32.999s39.5 65.333 39.5 130v79h-295
c-45.333 0 -75.5 -8 -90.5 -24s-22.5 -38 -22.5 -66v-62c0 -29.333 10.167 -51.666 30.5 -66.999s57.5 -23 111.5 -23h92z" />
    <glyph glyph-name="ntilde" unicode="&#xf1;" horiz-adv-x="715" 
d="M80 0l-0.000976562 600h338c75.333 0 130.333 -18.333 165 -55s52 -90 52 -160v-385h-110v397c0 39.333 -7.66699 66.333 -23 81s-40.666 22 -75.999 22h-236v-500h-110zM412.999 770c6.66699 -6.66699 12.001 -11.668 16.001 -15.001s9 -5 15 -5
c5.33301 0 9.66602 2 12.999 6s5 10.333 5 19v81h87v-76c0 -35.333 -8.66699 -63.166 -26 -83.499s-42 -30.5 -74 -30.5c-22.667 0 -42 4.66699 -58 14s-33.333 23.666 -52 42.999l-34 35c-6.66699 6.66699 -12 11.667 -16 15s-8.66699 5 -14 5s-9.83301 -2 -13.5 -6
s-5.5 -10.333 -5.5 -19v-81h-87v78c0 36 9 63.667 27 83s42.333 29 73 29c22.667 0 42 -4.66699 58 -14s33.333 -23.666 52 -42.999z" />
    <glyph glyph-name="ograve" unicode="&#xf2;" horiz-adv-x="747" 
d="M682 349v-98c0 -83.333 -23 -148.166 -69 -194.499s-113.333 -69.5 -202 -69.5h-75c-93.333 0 -161.833 23.167 -205.5 69.5s-65.5 111.166 -65.5 194.499v98c0 83.333 21.833 148.166 65.5 194.499s112.167 69.5 205.5 69.5h75c88.667 0 156 -23.167 202 -69.5
s69 -111.166 69 -194.499zM567 364c0 53.333 -10.167 92.333 -30.5 117s-57.5 37 -111.5 37h-104c-50.667 0 -86.834 -12.333 -108.501 -37s-32.5 -63.667 -32.5 -117v-128c0 -53.333 10.833 -92.333 32.5 -117s57.834 -37 108.501 -37h104c54 0 91.167 12.333 111.5 37
s30.5 63.667 30.5 117v128zM432 672h-98l-78 188h106z" />
    <glyph glyph-name="oacute" unicode="&#xf3;" horiz-adv-x="747" 
d="M682 349v-98c0 -83.333 -23 -148.166 -69 -194.499s-113.333 -69.5 -202 -69.5h-75c-93.333 0 -161.833 23.167 -205.5 69.5s-65.5 111.166 -65.5 194.499v98c0 83.333 21.833 148.166 65.5 194.499s112.167 69.5 205.5 69.5h75c88.667 0 156 -23.167 202 -69.5
s69 -111.166 69 -194.499zM567 364c0 53.333 -10.167 92.333 -30.5 117s-57.5 37 -111.5 37h-104c-50.667 0 -86.834 -12.333 -108.501 -37s-32.5 -63.667 -32.5 -117v-128c0 -53.333 10.833 -92.333 32.5 -117s57.834 -37 108.501 -37h104c54 0 91.167 12.333 111.5 37
s30.5 63.667 30.5 117v128zM330 672l70 188h106l-78 -188h-98z" />
    <glyph glyph-name="ocircumflex" unicode="&#xf4;" horiz-adv-x="747" 
d="M682 349v-98c0 -83.333 -23 -148.166 -69 -194.499s-113.333 -69.5 -202 -69.5h-75c-93.333 0 -161.833 23.167 -205.5 69.5s-65.5 111.166 -65.5 194.499v98c0 83.333 21.833 148.166 65.5 194.499s112.167 69.5 205.5 69.5h75c88.667 0 156 -23.167 202 -69.5
s69 -111.166 69 -194.499zM567 364c0 53.333 -10.167 92.333 -30.5 117s-57.5 37 -111.5 37h-104c-50.667 0 -86.834 -12.333 -108.501 -37s-32.5 -63.667 -32.5 -117v-128c0 -53.333 10.833 -92.333 32.5 -117s57.834 -37 108.501 -37h104c54 0 91.167 12.333 111.5 37
s30.5 63.667 30.5 117v128zM445 672l-71 109l-72 -109h-103l109 156c7.33301 10.667 16 19.667 26 27s23.333 11 40 11s29.667 -3.66699 39 -11s18 -16.333 26 -27l109 -156h-103z" />
    <glyph glyph-name="otilde" unicode="&#xf5;" horiz-adv-x="747" 
d="M682 349v-98c0 -83.333 -23 -148.166 -69 -194.499s-113.333 -69.5 -202 -69.5h-75c-93.333 0 -161.833 23.167 -205.5 69.5s-65.5 111.166 -65.5 194.499v98c0 83.333 21.833 148.166 65.5 194.499s112.167 69.5 205.5 69.5h75c88.667 0 156 -23.167 202 -69.5
s69 -111.166 69 -194.499zM567 364c0 53.333 -10.167 92.333 -30.5 117s-57.5 37 -111.5 37h-104c-50.667 0 -86.834 -12.333 -108.501 -37s-32.5 -63.667 -32.5 -117v-128c0 -53.333 10.833 -92.333 32.5 -117s57.834 -37 108.501 -37h104c54 0 91.167 12.333 111.5 37
s30.5 63.667 30.5 117v128zM429 770c6.66699 -6.66699 12.001 -11.668 16.001 -15.001s9 -5 15 -5c5.33301 0 9.66602 2 12.999 6s5 10.333 5 19v81h87v-76c0 -35.333 -8.66699 -63.166 -26 -83.499s-42 -30.5 -74 -30.5c-22.667 0 -42 4.66699 -58 14
s-33.333 23.666 -52 42.999l-34 35c-6.66699 6.66699 -12 11.667 -16 15s-8.66699 5 -14 5s-9.83301 -2 -13.5 -6s-5.5 -10.333 -5.5 -19v-81h-87v78c0 36 9 63.667 27 83s42.333 29 73 29c22.667 0 42 -4.66699 58 -14s33.333 -23.666 52 -42.999z" />
    <glyph glyph-name="odieresis" unicode="&#xf6;" horiz-adv-x="747" 
d="M682 349v-98c0 -83.333 -23 -148.166 -69 -194.499s-113.333 -69.5 -202 -69.5h-75c-93.333 0 -161.833 23.167 -205.5 69.5s-65.5 111.166 -65.5 194.499v98c0 83.333 21.833 148.166 65.5 194.499s112.167 69.5 205.5 69.5h75c88.667 0 156 -23.167 202 -69.5
s69 -111.166 69 -194.499zM567 364c0 53.333 -10.167 92.333 -30.5 117s-57.5 37 -111.5 37h-104c-50.667 0 -86.834 -12.333 -108.501 -37s-32.5 -63.667 -32.5 -117v-128c0 -53.333 10.833 -92.333 32.5 -117s57.834 -37 108.501 -37h104c54 0 91.167 12.333 111.5 37
s30.5 63.667 30.5 117v128zM334 692h-110v106h110v-106zM524 692h-110v106h110v-106z" />
    <glyph glyph-name="divide" unicode="&#xf7;" horiz-adv-x="506" 
d="M191 515v125h125v-125h-125zM50 325v100h406v-100h-406zM191 110v125h125v-125h-125z" />
    <glyph glyph-name="oslash" unicode="&#xf8;" horiz-adv-x="747" 
d="M65 0l56.998 65.001c-19.333 22.667 -33.666 49.5 -42.999 80.5s-14 66.167 -14 105.5v98c0 83.333 21.833 148.166 65.5 194.499s112.167 69.5 205.5 69.5h75c32 0 61.333 -3.16699 88 -9.5s50.334 -15.5 71.001 -27.5l21 24h90l-58 -66
c19.333 -22.667 34 -49.5 44 -80.5s15 -65.833 15 -104.5v-98c0 -83.333 -23 -148.166 -69 -194.499s-113.333 -69.5 -202 -69.5h-75c-34 0 -64.5 3.16699 -91.5 9.5s-50.833 15.166 -71.5 26.499l-21 -23h-87zM179.998 236.001c0 -18 1.16895 -34.5 3.50195 -49.5
s5.83301 -27.833 10.5 -38.5l312 356c-10 4.66699 -21.833 8.16699 -35.5 10.5s-28.834 3.5 -45.501 3.5h-104c-50.667 0 -86.834 -12.333 -108.501 -37s-32.5 -63.667 -32.5 -117v-128zM567 364.001c0 18.667 -1.16895 35.5 -3.50195 50.5s-5.83301 28.5 -10.5 40.5
l-314 -357c10.667 -5.33301 22.834 -9.33301 36.501 -12s28.834 -4 45.501 -4h104c54 0 91.167 12.333 111.5 37s30.5 63.667 30.5 117v128z" />
    <glyph glyph-name="ugrave" unicode="&#xf9;" horiz-adv-x="715" 
d="M635 600l0.000976562 -600h-338c-75.333 -0 -130.333 18.333 -165 55s-52 90 -52 160v385h110v-397c0 -39.333 7.66699 -66.333 23 -81s40.666 -22 75.999 -22h236v500h110zM405.001 672h-98l-78 188h106z" />
    <glyph glyph-name="uacute" unicode="&#xfa;" horiz-adv-x="715" 
d="M635 600l0.000976562 -600h-338c-75.333 -0 -130.333 18.333 -165 55s-52 90 -52 160v385h110v-397c0 -39.333 7.66699 -66.333 23 -81s40.666 -22 75.999 -22h236v500h110zM304.001 672l70 188h106l-78 -188h-98z" />
    <glyph glyph-name="ucircumflex" unicode="&#xfb;" horiz-adv-x="715" 
d="M635 600l0.000976562 -600h-338c-75.333 -0 -130.333 18.333 -165 55s-52 90 -52 160v385h110v-397c0 -39.333 7.66699 -66.333 23 -81s40.666 -22 75.999 -22h236v500h110zM419.001 672l-71 109l-72 -109h-103l109 156c7.33301 10.667 16 19.667 26 27s23.333 11 40 11
s29.667 -3.66699 39 -11s18 -16.333 26 -27l109 -156h-103z" />
    <glyph glyph-name="udieresis" unicode="&#xfc;" horiz-adv-x="715" 
d="M635 600l0.000976562 -600h-338c-75.333 -0 -130.333 18.333 -165 55s-52 90 -52 160v385h110v-397c0 -39.333 7.66699 -66.333 23 -81s40.666 -22 75.999 -22h236v500h110zM308.001 692h-110v106h110v-106zM498.001 692h-110v106h110v-106z" />
    <glyph glyph-name="yacute" unicode="&#xfd;" horiz-adv-x="672" 
d="M329 152c2.66699 -4.66699 5.6709 -8.33301 9.00391 -11s6.66602 -4 9.99902 -4s6.66602 1.33301 9.99902 4s6 6.33398 8 11.001l180 448h121l-257 -613c-22 -52 -49.167 -87.833 -81.5 -107.5s-75.5 -29.5 -129.5 -29.5h-138v92h137c32 0 55.667 5.16699 71 15.5
s27 24.833 35 43.5l20 49h-5c-18.667 0 -36.334 5.16699 -53.001 15.5s-31.334 29.166 -44.001 56.499l-217 478h126zM292.004 672.001l70 188h106l-78 -188h-98z" />
    <glyph glyph-name="thorn" unicode="&#xfe;" horiz-adv-x="727" 
d="M90 -150v900h110v-150h225c79.333 0 140.333 -22.333 183 -67s64 -108.667 64 -192v-82c0 -83.333 -21.333 -147.333 -64 -192s-103.667 -67 -183 -67h-225v-150h-110zM415 500l-215 0.000976562v-400h215c52 0 88.667 10.667 110 32s32 59 32 113v111
c0 53.333 -10.667 90.666 -32 111.999s-58 32 -110 32z" />
    <glyph glyph-name="ydieresis" unicode="&#xff;" horiz-adv-x="672" 
d="M329 152c2.66699 -4.66699 5.6709 -8.33301 9.00391 -11s6.66602 -4 9.99902 -4s6.66602 1.33301 9.99902 4s6 6.33398 8 11.001l180 448h121l-257 -613c-22 -52 -49.167 -87.833 -81.5 -107.5s-75.5 -29.5 -129.5 -29.5h-138v92h137c32 0 55.667 5.16699 71 15.5
s27 24.833 35 43.5l20 49h-5c-18.667 0 -36.334 5.16699 -53.001 15.5s-31.334 29.166 -44.001 56.499l-217 478h126zM296.004 692.001h-110v106h110v-106zM486.004 692.001h-110v106h110v-106z" />
    <glyph glyph-name="Amacron" unicode="&#x100;" horiz-adv-x="860" 
d="M725 0l-86 202h-420l-86 -202h-123l283 640c16 36 33.167 65.5 51.5 88.5s46.833 34.5 85.5 34.5c38 0 66.5 -11 85.5 -33s35.167 -48.333 48.5 -79l286 -651h-125zM399 626l-135 -317.999h330l-135 317c-4.66699 12 -9.33398 20.167 -14.001 24.5s-10 6.5 -16 6.5
s-11.167 -1.83301 -15.5 -5.5s-9.16602 -11.834 -14.499 -24.501zM550 832.001h-240v78h240v-78z" />
    <glyph glyph-name="amacron" unicode="&#x101;" horiz-adv-x="683" 
d="M603 383l-0.000976562 -383h-370c-57.333 0 -102.166 11.667 -134.499 35s-48.5 59.333 -48.5 108c0 32.667 11.833 61.5 35.5 86.5s56.5 53.167 98.5 84.5l253 191h-380v95h319c76 0 132.833 -19.667 170.5 -59s56.5 -92 56.5 -158zM227.999 100h265.001v327l-269 -204
c-18.667 -14 -33.334 -25.833 -44.001 -35.5s-16 -23.167 -16 -40.5c0 -16.667 6.33301 -28.667 19 -36s27.667 -11 45 -11zM460 682h-240v78h240v-78z" />
    <glyph glyph-name="Abreve" unicode="&#x102;" horiz-adv-x="860" 
d="M725 0l-86 202h-420l-86 -202h-123l283 640c16 36 33.167 65.5 51.5 88.5s46.833 34.5 85.5 34.5c38 0 66.5 -11 85.5 -33s35.167 -48.333 48.5 -79l286 -651h-125zM399 626l-135 -317.999h330l-135 317c-4.66699 12 -9.33398 20.167 -14.001 24.5s-10 6.5 -16 6.5
s-11.167 -1.83301 -15.5 -5.5s-9.16602 -11.834 -14.499 -24.501zM273 980.001l77 0.00195312v-40c0 -14.667 3.83301 -25.834 11.5 -33.501s19.167 -11.5 34.5 -11.5h70c16 0 27.5 3.66699 34.5 11s10.5 18.666 10.5 33.999v40h76v-46c0 -28.667 -9.66699 -53.667 -29 -75
s-45.333 -32 -78 -32h-99c-34 0 -60.5 10.667 -79.5 32s-28.5 46.333 -28.5 75v46z" />
    <glyph glyph-name="abreve" unicode="&#x103;" horiz-adv-x="683" 
d="M603 383l-0.000976562 -383h-370c-57.333 0 -102.166 11.667 -134.499 35s-48.5 59.333 -48.5 108c0 32.667 11.833 61.5 35.5 86.5s56.5 53.167 98.5 84.5l253 191h-380v95h319c76 0 132.833 -19.667 170.5 -59s56.5 -92 56.5 -158zM227.999 100h265.001v327l-269 -204
c-18.667 -14 -33.334 -25.833 -44.001 -35.5s-16 -23.167 -16 -40.5c0 -16.667 6.33301 -28.667 19 -36s27.667 -11 45 -11zM182 830l77 0.00195312v-40c0 -14.667 3.83301 -25.834 11.5 -33.501s19.167 -11.5 34.5 -11.5h70c16 0 27.5 3.66699 34.5 11
s10.5 18.666 10.5 33.999v40h76v-46c0 -28.667 -9.66699 -53.667 -29 -75s-45.333 -32 -78 -32h-99c-34 0 -60.5 10.667 -79.5 32s-28.5 46.333 -28.5 75v46z" />
    <glyph glyph-name="Aogonek" unicode="&#x104;" horiz-adv-x="860" 
d="M725 0l-86 202h-420l-86 -202h-123l283 640c16 36 33.167 65.5 51.5 88.5s46.833 34.5 85.5 34.5c38 0 66.5 -11 85.5 -33s35.167 -48.333 48.5 -79l286 -651h-125zM399 626l-135 -317.999h330l-135 317c-4.66699 12 -9.33398 20.167 -14.001 24.5s-10 6.5 -16 6.5
s-11.167 -1.83301 -15.5 -5.5s-9.16602 -11.834 -14.499 -24.501zM758 0.000976562l92 0.000976562l-48 -58l-16.5 -21c-4.33301 -5.33301 -6.5 -11.333 -6.5 -18s2.66699 -12.334 8 -17.001s13.333 -7 24 -7h39v-69h-65c-36.667 0 -63.167 7 -79.5 21
s-24.5 31.333 -24.5 52c0 12.667 3.16699 25.667 9.5 39s17.833 28.333 34.5 45z" />
    <glyph glyph-name="aogonek" unicode="&#x105;" horiz-adv-x="683" 
d="M603 383l-0.000976562 -383h-370c-57.333 0 -102.166 11.667 -134.499 35s-48.5 59.333 -48.5 108c0 32.667 11.833 61.5 35.5 86.5s56.5 53.167 98.5 84.5l253 191h-380v95h319c76 0 132.833 -19.667 170.5 -59s56.5 -92 56.5 -158zM227.999 100h265.001v327l-269 -204
c-18.667 -14 -33.334 -25.833 -44.001 -35.5s-16 -23.167 -16 -40.5c0 -16.667 6.33301 -28.667 19 -36s27.667 -11 45 -11zM511 0l92 0.000976562l-48 -58l-16.5 -21c-4.33301 -5.33301 -6.5 -11.333 -6.5 -18s2.66699 -12.334 8 -17.001s13.333 -7 24 -7h39v-69h-65
c-36.667 0 -63.167 7 -79.5 21s-24.5 31.333 -24.5 52c0 12.667 3.16699 25.667 9.5 39s17.833 28.333 34.5 45z" />
    <glyph glyph-name="Cacute" unicode="&#x106;" horiz-adv-x="756" 
d="M716 100v-100h-331c-58.667 0 -109 7.66699 -151 23s-76.167 37.333 -102.5 66s-45.666 63.167 -57.999 103.5s-18.5 85.5 -18.5 135.5v94c0 50 6.16699 95.167 18.5 135.5s31.666 74.833 57.999 103.5s60.5 50.667 102.5 66s92.333 23 151 23h326v-100h-341
c-69.333 0 -118.333 -16.5 -147 -49.5s-43 -83.167 -43 -150.5v-150c0 -67.333 14.333 -117.5 43 -150.5s77.667 -49.5 147 -49.5h346zM416 822l70 188h106l-78 -188h-98z" />
    <glyph glyph-name="cacute" unicode="&#x107;" horiz-adv-x="642" 
d="M328 505c-52.667 0 -90.5 -10.168 -113.5 -30.501s-34.5 -57.166 -34.5 -110.499v-127c0 -54 11.5 -91.167 34.5 -111.5s60.833 -30.5 113.5 -30.5h259v-95h-264c-76.667 0 -138.834 21 -186.501 63s-71.5 104.667 -71.5 188v98c0 83.333 23.833 146 71.5 188
s109.834 63 186.501 63h264v-95h-259zM335 671.999l70 188h106l-78 -188h-98z" />
    <glyph glyph-name="Cdotaccent" unicode="&#x10a;" horiz-adv-x="756" 
d="M716 100v-100h-331c-58.667 0 -109 7.66699 -151 23s-76.167 37.333 -102.5 66s-45.666 63.167 -57.999 103.5s-18.5 85.5 -18.5 135.5v94c0 50 6.16699 95.167 18.5 135.5s31.666 74.833 57.999 103.5s60.5 50.667 102.5 66s92.333 23 151 23h326v-100h-341
c-69.333 0 -118.333 -16.5 -147 -49.5s-43 -83.167 -43 -150.5v-150c0 -67.333 14.333 -117.5 43 -150.5s77.667 -49.5 147 -49.5h346zM515 822h-110v98h110v-98z" />
    <glyph glyph-name="cdotaccent" unicode="&#x10b;" horiz-adv-x="642" 
d="M328 505c-52.667 0 -90.5 -10.168 -113.5 -30.501s-34.5 -57.166 -34.5 -110.499v-127c0 -54 11.5 -91.167 34.5 -111.5s60.833 -30.5 113.5 -30.5h259v-95h-264c-76.667 0 -138.834 21 -186.501 63s-71.5 104.667 -71.5 188v98c0 83.333 23.833 146 71.5 188
s109.834 63 186.501 63h264v-95h-259zM434 671.999h-110v98h110v-98z" />
    <glyph glyph-name="Ccaron" unicode="&#x10c;" horiz-adv-x="756" 
d="M716 100v-100h-331c-58.667 0 -109 7.66699 -151 23s-76.167 37.333 -102.5 66s-45.666 63.167 -57.999 103.5s-18.5 85.5 -18.5 135.5v94c0 50 6.16699 95.167 18.5 135.5s31.666 74.833 57.999 103.5s60.5 50.667 102.5 66s92.333 23 151 23h326v-100h-341
c-69.333 0 -118.333 -16.5 -147 -49.5s-43 -83.167 -43 -150.5v-150c0 -67.333 14.333 -117.5 43 -150.5s77.667 -49.5 147 -49.5h346zM526 844c-8 -10.667 -16.667 -19.667 -26 -27s-22.333 -11 -39 -11s-30 3.66699 -40 11s-18.667 16.333 -26 27l-109 156h103l72 -109
l71 109h103z" />
    <glyph glyph-name="ccaron" unicode="&#x10d;" horiz-adv-x="642" 
d="M328 505c-52.667 0 -90.5 -10.168 -113.5 -30.501s-34.5 -57.166 -34.5 -110.499v-127c0 -54 11.5 -91.167 34.5 -111.5s60.833 -30.5 113.5 -30.5h259v-95h-264c-76.667 0 -138.834 21 -186.501 63s-71.5 104.667 -71.5 188v98c0 83.333 23.833 146 71.5 188
s109.834 63 186.501 63h264v-95h-259zM445 693.999c-8 -10.667 -16.667 -19.667 -26 -27s-22.333 -11 -39 -11s-30 3.66699 -40 11s-18.667 16.333 -26 27l-109 156h103l72 -109l71 109h103z" />
    <glyph glyph-name="Dcaron" unicode="&#x10e;" horiz-adv-x="815" 
d="M430 750c112 0 198.333 -27.6689 259 -83.002s91 -132.666 91 -231.999v-120c0 -99.333 -29.833 -176.666 -89.5 -231.999s-148.167 -83 -265.5 -83h-335v750h340zM445 649.998h-240.001v-550h235c69.333 0 122.5 14.5 159.5 43.5s55.5 77.167 55.5 144.5v175
c0 67.333 -18.167 115.333 -54.5 144s-88.166 43 -155.499 43zM473.999 843.998c-8 -10.667 -16.667 -19.667 -26 -27s-22.333 -11 -39 -11s-30 3.66699 -40 11s-18.667 16.333 -26 27l-109 156h103l72 -109l71 109h103z" />
    <glyph glyph-name="dcaron" unicode="&#x10f;" horiz-adv-x="820" 
d="M647 750v-750h-335c-80 -0 -141.167 22.333 -183.5 67s-63.5 108.667 -63.5 192v82c0 83.333 21.167 147.333 63.5 192s103.5 67 183.5 67h225v150h110zM322 95h215v410h-215c-52 0 -88.667 -11.5 -110 -34.5s-32 -61.167 -32 -114.5v-111c0 -54 10.667 -92.5 32 -115.5
s58 -34.5 110 -34.5zM683 520l32 230h95l-32 -230h-95z" />
    <glyph glyph-name="Dcroat" unicode="&#x110;" horiz-adv-x="815" 
d="M15 334v94.998h75v321h340c112 0 198.333 -27.667 259 -83s91 -132.666 91 -231.999v-120c0 -99.333 -29.833 -176.666 -89.5 -231.999s-148.167 -83 -265.5 -83h-335v334h-75zM445 649.998h-240.001v-221h245v-95h-245v-234h235c69.333 0 122.5 14.5 159.5 43.5
s55.5 77.167 55.5 144.5v175c0 67.333 -18.167 115.333 -54.5 144s-88.166 43 -155.499 43z" />
    <glyph glyph-name="dcroat" unicode="&#x111;" horiz-adv-x="737" 
d="M372 645v55h165v50h110v-50h65v-55h-65v-645h-335c-80 -0 -141.167 22.333 -183.5 67s-63.5 108.667 -63.5 192v82c0 83.333 21.167 147.333 63.5 192s103.5 67 183.5 67h225v45h-165zM322 95h215v410h-215c-52 0 -88.667 -11.5 -110 -34.5s-32 -61.167 -32 -114.5v-111
c0 -54 10.667 -92.5 32 -115.5s58 -34.5 110 -34.5z" />
    <glyph glyph-name="Emacron" unicode="&#x112;" horiz-adv-x="758" 
d="M90 0v750h601v-100h-486v-219h486v-100h-486v-231h486v-100h-601zM524 832h-240v78h240v-78z" />
    <glyph glyph-name="emacron" unicode="&#x113;" horiz-adv-x="717" 
d="M652 262h-471.998v-49c0 -40 12.5 -69.667 37.5 -89s63.167 -29 114.5 -29h301v-95h-286c-41.333 0 -79.333 4.5 -114 13.5s-64.334 23.167 -89.001 42.5s-44 44 -58 74s-21 66 -21 108v105c0 88 23.167 154.333 69.5 199s113.5 67 201.5 67h55
c87.333 0 152.666 -19.667 195.999 -59s65 -98.333 65 -177v-111zM405.002 514h-83.999c-50.667 0 -86.834 -11.333 -108.501 -34s-32.5 -63.334 -32.5 -122.001v-5h357v35c0 44.667 -9 76.834 -27 96.501s-53 29.5 -105 29.5zM489.003 682h-240v78h240v-78z" />
    <glyph glyph-name="Ebreve" unicode="&#x114;" horiz-adv-x="758" 
d="M90 0v750h601v-100h-486v-219h486v-100h-486v-231h486v-100h-601zM247 980l77 0.00195312v-40c0 -14.667 3.83301 -25.834 11.5 -33.501s19.167 -11.5 34.5 -11.5h70c16 0 27.5 3.66699 34.5 11s10.5 18.666 10.5 33.999v40h76v-46c0 -28.667 -9.66699 -53.667 -29 -75
s-45.333 -32 -78 -32h-99c-34 0 -60.5 10.667 -79.5 32s-28.5 46.333 -28.5 75v46z" />
    <glyph glyph-name="ebreve" unicode="&#x115;" horiz-adv-x="717" 
d="M652 262h-471.998v-49c0 -40 12.5 -69.667 37.5 -89s63.167 -29 114.5 -29h301v-95h-286c-41.333 0 -79.333 4.5 -114 13.5s-64.334 23.167 -89.001 42.5s-44 44 -58 74s-21 66 -21 108v105c0 88 23.167 154.333 69.5 199s113.5 67 201.5 67h55
c87.333 0 152.666 -19.667 195.999 -59s65 -98.333 65 -177v-111zM405.002 514h-83.999c-50.667 0 -86.834 -11.333 -108.501 -34s-32.5 -63.334 -32.5 -122.001v-5h357v35c0 44.667 -9 76.834 -27 96.501s-53 29.5 -105 29.5zM212.003 830l77 0.00195312v-40
c0 -14.667 3.83301 -25.834 11.5 -33.501s19.167 -11.5 34.5 -11.5h70c16 0 27.5 3.66699 34.5 11s10.5 18.666 10.5 33.999v40h76v-46c0 -28.667 -9.66699 -53.667 -29 -75s-45.333 -32 -78 -32h-99c-34 0 -60.5 10.667 -79.5 32s-28.5 46.333 -28.5 75v46z" />
    <glyph glyph-name="Edotaccent" unicode="&#x116;" horiz-adv-x="758" 
d="M90 0v750h601v-100h-486v-219h486v-100h-486v-231h486v-100h-601zM459 822h-110v98h110v-98z" />
    <glyph glyph-name="edotaccent" unicode="&#x117;" horiz-adv-x="717" 
d="M652 262h-471.998v-49c0 -40 12.5 -69.667 37.5 -89s63.167 -29 114.5 -29h301v-95h-286c-41.333 0 -79.333 4.5 -114 13.5s-64.334 23.167 -89.001 42.5s-44 44 -58 74s-21 66 -21 108v105c0 88 23.167 154.333 69.5 199s113.5 67 201.5 67h55
c87.333 0 152.666 -19.667 195.999 -59s65 -98.333 65 -177v-111zM405.002 514h-83.999c-50.667 0 -86.834 -11.333 -108.501 -34s-32.5 -63.334 -32.5 -122.001v-5h357v35c0 44.667 -9 76.834 -27 96.501s-53 29.5 -105 29.5zM424.003 672h-110v98h110v-98z" />
    <glyph glyph-name="Eogonek" unicode="&#x118;" horiz-adv-x="758" 
d="M90 0v750h601v-100h-486v-219h486v-100h-486v-231h486v-100h-601zM599 0l92 0.000976562l-48 -58l-16.5 -21c-4.33301 -5.33301 -6.5 -11.333 -6.5 -18s2.66699 -12.334 8 -17.001s13.333 -7 24 -7h39v-69h-65c-36.667 0 -63.167 7 -79.5 21s-24.5 31.333 -24.5 52
c0 12.667 3.16699 25.667 9.5 39s17.833 28.333 34.5 45z" />
    <glyph glyph-name="eogonek" unicode="&#x119;" horiz-adv-x="717" 
d="M652 262h-471.998v-49c0 -40 12.5 -69.667 37.5 -89s63.167 -29 114.5 -29h301v-95h-286c-41.333 0 -79.333 4.5 -114 13.5s-64.334 23.167 -89.001 42.5s-44 44 -58 74s-21 66 -21 108v105c0 88 23.167 154.333 69.5 199s113.5 67 201.5 67h55
c87.333 0 152.666 -19.667 195.999 -59s65 -98.333 65 -177v-111zM405.002 514h-83.999c-50.667 0 -86.834 -11.333 -108.501 -34s-32.5 -63.334 -32.5 -122.001v-5h357v35c0 44.667 -9 76.834 -27 96.501s-53 29.5 -105 29.5zM541.003 0l92 0.000976562l-48 -58l-16.5 -21
c-4.33301 -5.33301 -6.5 -11.333 -6.5 -18s2.66699 -12.334 8 -17.001s13.333 -7 24 -7h39v-69h-65c-36.667 0 -63.167 7 -79.5 21s-24.5 31.333 -24.5 52c0 12.667 3.16699 25.667 9.5 39s17.833 28.333 34.5 45z" />
    <glyph glyph-name="Ecaron" unicode="&#x11a;" horiz-adv-x="758" 
d="M90 0v750h601v-100h-486v-219h486v-100h-486v-231h486v-100h-601zM470 844c-8 -10.667 -16.667 -19.667 -26 -27s-22.333 -11 -39 -11s-30 3.66699 -40 11s-18.667 16.333 -26 27l-109 156h103l72 -109l71 109h103z" />
    <glyph glyph-name="ecaron" unicode="&#x11b;" horiz-adv-x="717" 
d="M652 262h-471.998v-49c0 -40 12.5 -69.667 37.5 -89s63.167 -29 114.5 -29h301v-95h-286c-41.333 0 -79.333 4.5 -114 13.5s-64.334 23.167 -89.001 42.5s-44 44 -58 74s-21 66 -21 108v105c0 88 23.167 154.333 69.5 199s113.5 67 201.5 67h55
c87.333 0 152.666 -19.667 195.999 -59s65 -98.333 65 -177v-111zM405.002 514h-83.999c-50.667 0 -86.834 -11.333 -108.501 -34s-32.5 -63.334 -32.5 -122.001v-5h357v35c0 44.667 -9 76.834 -27 96.501s-53 29.5 -105 29.5zM435.003 694
c-8 -10.667 -16.667 -19.667 -26 -27s-22.333 -11 -39 -11s-30 3.66699 -40 11s-18.667 16.333 -26 27l-109 156h103l72 -109l71 109h103z" />
    <glyph glyph-name="Gbreve" unicode="&#x11e;" horiz-adv-x="830" 
d="M744 750l0.00195312 -100.001h-374c-69.333 0 -118.333 -16.5 -147 -49.5s-43 -83.167 -43 -150.5v-162c0 -67.333 14 -117.666 42 -150.999s75.667 -50 143 -50h110c71.333 0 120 7.83301 146 23.5s39 45.167 39 88.5v122h-252v100h367v-204c0 -47.333 -6 -86 -18 -116
s-30.5 -53.333 -55.5 -70s-57.5 -28.167 -97.5 -34.5s-88 -9.5 -144 -9.5h-80c-56 0 -104.5 7.66699 -145.5 23s-74.833 37.333 -101.5 66s-46.334 63.167 -59.001 103.5s-19 85.5 -19 135.5v107c0 50 6.16699 95.167 18.5 135.5s31.666 74.833 57.999 103.5
s60.5 50.667 102.5 66s92.333 23 151 23h359zM288.002 979.999l77 0.00195312v-40c0 -14.667 3.83301 -25.834 11.5 -33.501s19.167 -11.5 34.5 -11.5h70c16 0 27.5 3.66699 34.5 11s10.5 18.666 10.5 33.999v40h76v-46c0 -28.667 -9.66699 -53.667 -29 -75
s-45.333 -32 -78 -32h-99c-34 0 -60.5 10.667 -79.5 32s-28.5 46.333 -28.5 75v46z" />
    <glyph glyph-name="gbreve" unicode="&#x11f;" horiz-adv-x="707" 
d="M371 -150l-274 -0.000976562v95h292c50.667 0 84.667 6.66699 102 20s26 35.666 26 66.999v18h-215c-80 0 -141.167 21.333 -183.5 64s-63.5 104.334 -63.5 185.001v52c0 80.667 21.167 142.334 63.5 185.001s103.5 64 183.5 64h325v-541
c0 -74 -21.167 -127.333 -63.5 -160s-106.5 -49 -192.5 -49zM312 149.999h205v350h-205c-52 0 -88.667 -10 -110 -30s-32 -55 -32 -105v-81c0 -50 10.667 -84.833 32 -104.5s58 -29.5 110 -29.5zM212 829.999l77 0.00195312v-40c0 -14.667 3.83301 -25.834 11.5 -33.501
s19.167 -11.5 34.5 -11.5h70c16 0 27.5 3.66699 34.5 11s10.5 18.666 10.5 33.999v40h76v-46c0 -28.667 -9.66699 -53.667 -29 -75s-45.333 -32 -78 -32h-99c-34 0 -60.5 10.667 -79.5 32s-28.5 46.333 -28.5 75v46z" />
    <glyph glyph-name="Gdotaccent" unicode="&#x120;" horiz-adv-x="830" 
d="M744 750l0.00195312 -100.001h-374c-69.333 0 -118.333 -16.5 -147 -49.5s-43 -83.167 -43 -150.5v-162c0 -67.333 14 -117.666 42 -150.999s75.667 -50 143 -50h110c71.333 0 120 7.83301 146 23.5s39 45.167 39 88.5v122h-252v100h367v-204c0 -47.333 -6 -86 -18 -116
s-30.5 -53.333 -55.5 -70s-57.5 -28.167 -97.5 -34.5s-88 -9.5 -144 -9.5h-80c-56 0 -104.5 7.66699 -145.5 23s-74.833 37.333 -101.5 66s-46.334 63.167 -59.001 103.5s-19 85.5 -19 135.5v107c0 50 6.16699 95.167 18.5 135.5s31.666 74.833 57.999 103.5
s60.5 50.667 102.5 66s92.333 23 151 23h359zM500.002 821.999h-110v98h110v-98z" />
    <glyph glyph-name="gdotaccent" unicode="&#x121;" horiz-adv-x="707" 
d="M371 -150l-274 -0.000976562v95h292c50.667 0 84.667 6.66699 102 20s26 35.666 26 66.999v18h-215c-80 0 -141.167 21.333 -183.5 64s-63.5 104.334 -63.5 185.001v52c0 80.667 21.167 142.334 63.5 185.001s103.5 64 183.5 64h325v-541
c0 -74 -21.167 -127.333 -63.5 -160s-106.5 -49 -192.5 -49zM312 149.999h205v350h-205c-52 0 -88.667 -10 -110 -30s-32 -55 -32 -105v-81c0 -50 10.667 -84.833 32 -104.5s58 -29.5 110 -29.5zM424 671.999h-110v98h110v-98z" />
    <glyph glyph-name="Gcommaaccent" unicode="&#x122;" horiz-adv-x="800" 
d="M744 750l0.00195312 -100.001h-374c-69.333 0 -118.333 -16.5 -147 -49.5s-43 -83.167 -43 -150.5v-162c0 -67.333 14 -117.666 42 -150.999s75.667 -50 143 -50h110c71.333 0 120 7.83301 146 23.5s39 45.167 39 88.5v122h-252v100h367v-204c0 -47.333 -6 -86 -18 -116
s-30.5 -53.333 -55.5 -70s-57.5 -28.167 -97.5 -34.5s-88 -9.5 -144 -9.5h-80c-56 0 -104.5 7.66699 -145.5 23s-74.833 37.333 -101.5 66s-46.334 63.167 -59.001 103.5s-19 85.5 -19 135.5v107c0 50 6.16699 95.167 18.5 135.5s31.666 74.833 57.999 103.5
s60.5 50.667 102.5 66s92.333 23 151 23h359zM369.002 -188.001c10.667 32 17.667 55.333 21 70s5 32.334 5 53.001v25h92v-25c0 -20.667 -1.66699 -38.334 -5 -53.001s-11.333 -38 -24 -70h-89z" />
    <glyph glyph-name="gcommaaccent" unicode="&#x123;" horiz-adv-x="707" 
d="M371 -150l-274 -0.000976562v95h292c50.667 0 84.667 6.66699 102 20s26 35.666 26 66.999v18h-215c-80 0 -141.167 21.333 -183.5 64s-63.5 104.334 -63.5 185.001v52c0 80.667 21.167 142.334 63.5 185.001s103.5 64 183.5 64h325v-541
c0 -74 -21.167 -127.333 -63.5 -160s-106.5 -49 -192.5 -49zM312 149.999h205v350h-205c-52 0 -88.667 -10 -110 -30s-32 -55 -32 -105v-81c0 -50 10.667 -84.833 32 -104.5s58 -29.5 110 -29.5z" />
    <glyph glyph-name="Hbar" unicode="&#x126;" horiz-adv-x="845" 
d="M70 0v555h-55v85h55v110h115v-110h475v110h115v-110h55v-85h-55v-555h-115v330h-475v-330h-115zM185 435h475v120h-475v-120z" />
    <glyph glyph-name="hbar" unicode="&#x127;" horiz-adv-x="735" 
d="M80 0l-0.000976562 645h-65v55h65v50h110v-50h165v-55h-165v-45h228c76 0 131.167 -18.333 165.5 -55s51.5 -90 51.5 -160v-385h-110v397c0 39.333 -7.66699 66.333 -23 81s-40.666 22 -75.999 22h-236v-500h-110z" />
    <glyph glyph-name="Itilde" unicode="&#x128;" horiz-adv-x="315" 
d="M100 0v750h115v-750h-115zM212 920c6.66699 -6.66699 12.001 -11.668 16.001 -15.001s9 -5 15 -5c5.33301 0 9.66602 2 12.999 6s5 10.333 5 19v81h87v-76c0 -35.333 -8.66699 -63.166 -26 -83.499s-42 -30.5 -74 -30.5c-22.667 0 -42 4.66699 -58 14
s-33.333 23.666 -52 42.999l-34 35c-6.66699 6.66699 -12 11.667 -16 15s-8.66699 5 -14 5s-9.83301 -2 -13.5 -6s-5.5 -10.333 -5.5 -19v-81h-87v78c0 36 9 63.667 27 83s42.333 29 73 29c22.667 0 42 -4.66699 58 -14s33.333 -23.666 52 -42.999z" />
    <glyph glyph-name="itilde" unicode="&#x129;" horiz-adv-x="290" 
d="M90 0v600h110v-600h-110zM200 770c6.66699 -6.66699 12.001 -11.668 16.001 -15.001s9 -5 15 -5c5.33301 0 9.66602 2 12.999 6s5 10.333 5 19v81h87v-76c0 -35.333 -8.66699 -63.166 -26 -83.499s-42 -30.5 -74 -30.5c-22.667 0 -42 4.66699 -58 14
s-33.333 23.666 -52 42.999l-34 35c-6.66699 6.66699 -12 11.667 -16 15s-8.66699 5 -14 5s-9.83301 -2 -13.5 -6s-5.5 -10.333 -5.5 -19v-81h-87v78c0 36 9 63.667 27 83s42.333 29 73 29c22.667 0 42 -4.66699 58 -14s33.333 -23.666 52 -42.999z" />
    <glyph glyph-name="Imacron" unicode="&#x12a;" horiz-adv-x="315" 
d="M100 0v750h115v-750h-115zM277 832h-240v78h240v-78z" />
    <glyph glyph-name="imacron" unicode="&#x12b;" horiz-adv-x="290" 
d="M90 0v600h110v-600h-110zM265 682h-240v78h240v-78z" />
    <glyph glyph-name="Ibreve" unicode="&#x12c;" horiz-adv-x="315" 
d="M100 0v750h115v-750h-115zM0 980l77 0.00195312v-40c0 -14.667 3.83301 -25.834 11.5 -33.501s19.167 -11.5 34.5 -11.5h70c16 0 27.5 3.66699 34.5 11s10.5 18.666 10.5 33.999v40h76v-46c0 -28.667 -9.66699 -53.667 -29 -75s-45.333 -32 -78 -32h-99
c-34 0 -60.5 10.667 -79.5 32s-28.5 46.333 -28.5 75v46z" />
    <glyph glyph-name="ibreve" unicode="&#x12d;" horiz-adv-x="290" 
d="M90 0v600h110v-600h-110zM-13 830l77 0.00195312v-40c0 -14.667 3.83301 -25.834 11.5 -33.501s19.167 -11.5 34.5 -11.5h70c16 0 27.5 3.66699 34.5 11s10.5 18.666 10.5 33.999v40h76v-46c0 -28.667 -9.66699 -53.667 -29 -75s-45.333 -32 -78 -32h-99
c-34 0 -60.5 10.667 -79.5 32s-28.5 46.333 -28.5 75v46z" />
    <glyph glyph-name="Iogonek" unicode="&#x12e;" horiz-adv-x="315" 
d="M100 0v750h115v-750h-115zM108 0l92 0.000976562l-48 -58l-16.5 -21c-4.33301 -5.33301 -6.5 -11.333 -6.5 -18s2.66699 -12.334 8 -17.001s13.333 -7 24 -7h39v-69h-65c-36.667 0 -63.167 7 -79.5 21s-24.5 31.333 -24.5 52c0 12.667 3.16699 25.667 9.5 39
s17.833 28.333 34.5 45z" />
    <glyph glyph-name="iogonek" unicode="&#x12f;" horiz-adv-x="290" 
d="M200 682h-110v108h110v-108zM90 0v600h110v-600h-110zM108 0l92 0.000976562l-48 -58l-16.5 -21c-4.33301 -5.33301 -6.5 -11.333 -6.5 -18s2.66699 -12.334 8 -17.001s13.333 -7 24 -7h39v-69h-65c-36.667 0 -63.167 7 -79.5 21s-24.5 31.333 -24.5 52
c0 12.667 3.16699 25.667 9.5 39s17.833 28.333 34.5 45z" />
    <glyph glyph-name="Idotaccent" unicode="&#x130;" horiz-adv-x="315" 
d="M100 0v750h115v-750h-115zM212 822h-110v98h110v-98z" />
    <glyph glyph-name="dotlessi" unicode="&#x131;" horiz-adv-x="290" 
d="M90 0v600h110v-600h-110z" />
    <glyph glyph-name="Kcommaaccent" unicode="&#x136;" horiz-adv-x="785" 
d="M90 0l-0.00292969 750h115v-319h54c32.667 0 56.834 3.33301 72.501 10s32.834 20.667 51.501 42l238 267h141l-329 -367l342 -383h-148l-244 269c-19.333 20.667 -36.666 34.5 -51.999 41.5s-39.333 10.5 -72 10.5h-54v-321h-115zM316.997 -188
c10.667 32 17.667 55.333 21 70s5 32.334 5 53.001v25h92v-25c0 -20.667 -1.66699 -38.334 -5 -53.001s-11.333 -38 -24 -70h-89z" />
    <glyph glyph-name="kcommaaccent" unicode="&#x137;" horiz-adv-x="711" 
d="M70 0v750h110v-398h64c22.667 0 39.834 2.5 51.501 7.5s25.167 15.833 40.5 32.5l195 208h132l-278 -295l286 -305h-140l-195 214c-15.333 16.667 -28.833 27.5 -40.5 32.5s-28.834 7.5 -51.501 7.5h-64v-254h-110zM279 -188c10.667 32 17.667 55.333 21 70
s5 32.334 5 53.001v25h92v-25c0 -20.667 -1.66699 -38.334 -5 -53.001s-11.333 -38 -24 -70h-89z" />
    <glyph glyph-name="kra" unicode="&#x138;" horiz-adv-x="701" 
d="M80 0v600h110v-248h64c22.667 0 39.834 2.5 51.501 7.5s25.167 15.833 40.5 32.5l195 208h132l-278 -295l286 -305h-140l-195 214c-15.333 16.667 -28.833 27.5 -40.5 32.5s-28.834 7.5 -51.501 7.5h-64v-254h-110z" />
    <glyph glyph-name="Lacute" unicode="&#x139;" horiz-adv-x="671" 
d="M90 0v750h115v-650h446v-100h-561zM106 822l70 188h106l-78 -188h-98z" />
    <glyph glyph-name="lacute" unicode="&#x13a;" horiz-adv-x="290" 
d="M90 750h110v-750h-110v750zM101 822l70 188h106l-78 -188h-98z" />
    <glyph glyph-name="Lcommaaccent" unicode="&#x13b;" horiz-adv-x="671" 
d="M90 0v750h115v-650h446v-100h-561zM305 -188c10.667 32 17.667 55.333 21 70s5 32.334 5 53.001v25h92v-25c0 -20.667 -1.66699 -38.334 -5 -53.001s-11.333 -38 -24 -70h-89z" />
    <glyph glyph-name="lcommaaccent" unicode="&#x13c;" horiz-adv-x="290" 
d="M90 750h110v-750h-110v750zM73 -188c10.667 32 17.667 55.333 21 70s5 32.334 5 53.001v25h92v-25c0 -20.667 -1.66699 -38.334 -5 -53.001s-11.333 -38 -24 -70h-89z" />
    <glyph glyph-name="Lcaron" unicode="&#x13d;" horiz-adv-x="671" 
d="M90 0v750h115v-650h446v-100h-561zM371 520l32 230h95l-32 -230h-95z" />
    <glyph glyph-name="lcaron" unicode="&#x13e;" horiz-adv-x="378" 
d="M90 750h110v-750h-110v750zM251 520l32 230h95l-32 -230h-95z" />
    <glyph glyph-name="Ldot" unicode="&#x13f;" horiz-adv-x="671" 
d="M90 0v750h115v-650h446v-100h-561zM401 359v125h125v-125h-125z" />
    <glyph glyph-name="ldot" unicode="&#x140;" horiz-adv-x="380" 
d="M90 750h110v-750h-110v750zM370 326h-110v98h110v-98z" />
    <glyph glyph-name="Lslash" unicode="&#x141;" horiz-adv-x="671" 
d="M90 0v263l-105 -55v85l105 55v402h115v-342l260 135v-85l-260 -135v-223h446v-100h-561z" />
    <glyph glyph-name="lslash" unicode="&#x142;" horiz-adv-x="310" 
d="M25 248v75l75 52v375h110v-299l75 52v-75l-75 -52v-376h-110v300z" />
    <glyph glyph-name="Nacute" unicode="&#x143;" horiz-adv-x="970" 
d="M90 0v609.998c0 42.667 10.667 78.834 32 108.501s56.666 44.5 105.999 44.5c34.667 0 63.334 -10 86.001 -30s45.667 -49 69 -87l320 -517c6 -9.33301 12 -17 18 -23s12 -9 18 -9c8 0 14.333 2.83301 19 8.5s7 13.834 7 24.501v620h115v-617
c0 -44 -11.167 -79.333 -33.5 -106s-55.166 -40 -98.499 -40c-36.667 0 -66.167 9.66699 -88.5 29s-43.5 45 -63.5 77l-327 525c-6.66699 10.667 -12.334 19.167 -17.001 25.5s-11 9.5 -19 9.5c-10 0 -17.167 -3.33301 -21.5 -10s-6.5 -15.667 -6.5 -27v-616h-115z
M441 821.998l70 188h106l-78 -188h-98z" />
    <glyph glyph-name="nacute" unicode="&#x144;" horiz-adv-x="715" 
d="M80 0l-0.000976562 600h338c75.333 0 130.333 -18.333 165 -55s52 -90 52 -160v-385h-110v397c0 39.333 -7.66699 66.333 -23 81s-40.666 22 -75.999 22h-236v-500h-110zM313.999 672l70 188h106l-78 -188h-98z" />
    <glyph glyph-name="Ncommaaccent" unicode="&#x145;" horiz-adv-x="970" 
d="M90 0v609.998c0 42.667 10.667 78.834 32 108.501s56.666 44.5 105.999 44.5c34.667 0 63.334 -10 86.001 -30s45.667 -49 69 -87l320 -517c6 -9.33301 12 -17 18 -23s12 -9 18 -9c8 0 14.333 2.83301 19 8.5s7 13.834 7 24.501v620h115v-617
c0 -44 -11.167 -79.333 -33.5 -106s-55.166 -40 -98.499 -40c-36.667 0 -66.167 9.66699 -88.5 29s-43.5 45 -63.5 77l-327 525c-6.66699 10.667 -12.334 19.167 -17.001 25.5s-11 9.5 -19 9.5c-10 0 -17.167 -3.33301 -21.5 -10s-6.5 -15.667 -6.5 -27v-616h-115z
M414 -188.002c10.667 32 17.667 55.333 21 70s5 32.334 5 53.001v25h92v-25c0 -20.667 -1.66699 -38.334 -5 -53.001s-11.333 -38 -24 -70h-89z" />
    <glyph glyph-name="ncommaaccent" unicode="&#x146;" horiz-adv-x="715" 
d="M80 0l-0.000976562 600h338c75.333 0 130.333 -18.333 165 -55s52 -90 52 -160v-385h-110v397c0 39.333 -7.66699 66.333 -23 81s-40.666 22 -75.999 22h-236v-500h-110zM286.999 -188c10.667 32 17.667 55.333 21 70s5 32.334 5 53.001v25h92v-25
c0 -20.667 -1.66699 -38.334 -5 -53.001s-11.333 -38 -24 -70h-89z" />
    <glyph glyph-name="Ncaron" unicode="&#x147;" horiz-adv-x="970" 
d="M90 0v609.998c0 42.667 10.667 78.834 32 108.501s56.666 44.5 105.999 44.5c34.667 0 63.334 -10 86.001 -30s45.667 -49 69 -87l320 -517c6 -9.33301 12 -17 18 -23s12 -9 18 -9c8 0 14.333 2.83301 19 8.5s7 13.834 7 24.501v620h115v-617
c0 -44 -11.167 -79.333 -33.5 -106s-55.166 -40 -98.499 -40c-36.667 0 -66.167 9.66699 -88.5 29s-43.5 45 -63.5 77l-327 525c-6.66699 10.667 -12.334 19.167 -17.001 25.5s-11 9.5 -19 9.5c-10 0 -17.167 -3.33301 -21.5 -10s-6.5 -15.667 -6.5 -27v-616h-115z
M551 843.998c-8 -10.667 -16.667 -19.667 -26 -27s-22.333 -11 -39 -11s-30 3.66699 -40 11s-18.667 16.333 -26 27l-109 156h103l72 -109l71 109h103z" />
    <glyph glyph-name="ncaron" unicode="&#x148;" horiz-adv-x="715" 
d="M80 0l-0.000976562 600h338c75.333 0 130.333 -18.333 165 -55s52 -90 52 -160v-385h-110v397c0 39.333 -7.66699 66.333 -23 81s-40.666 22 -75.999 22h-236v-500h-110zM423.999 694c-8 -10.667 -16.667 -19.667 -26 -27s-22.333 -11 -39 -11s-30 3.66699 -40 11
s-18.667 16.333 -26 27l-109 156h103l72 -109l71 109h103z" />
    <glyph glyph-name="Eng" unicode="&#x14a;" horiz-adv-x="970" 
d="M395 -150l-0.000976562 107h230c28.667 0 52.834 4.66699 72.501 14s34.834 22.333 45.501 39l-474 608c-7.33301 10 -13.166 18.333 -17.499 25s-10.5 10 -18.5 10c-10 0 -17.167 -3.33301 -21.5 -10s-6.5 -15.667 -6.5 -27v-616h-115v610
c0 42.667 10.667 78.834 32 108.501s56.666 44.5 105.999 44.5c17.333 0 32.5 -2.66699 45.5 -8s25.167 -12.833 36.5 -22.5s22.666 -21.834 33.999 -36.501l39 -50l382 -493v597h115v-635c0 -79.333 -22.333 -143.333 -67 -192s-115.667 -73 -213 -73h-205z" />
    <glyph glyph-name="eng" unicode="&#x14b;" horiz-adv-x="715" 
d="M80 0l-0.000976562 599.999h338c75.333 0 130.333 -18.333 165 -55s52 -90 52 -160v-385c0 -52 -15.167 -90 -45.5 -114s-73.833 -36 -130.5 -36h-57v95h70c18.667 0 32.167 4.33301 40.5 13s12.5 23.334 12.5 44.001v395c0 39.333 -7.66699 66.333 -23 81
s-40.666 22 -75.999 22h-236v-500h-110z" />
    <glyph glyph-name="Omacron" unicode="&#x14c;" horiz-adv-x="870" 
d="M815 315c0 -49.333 -6.5 -94.166 -19.5 -134.499s-32.833 -74.666 -59.5 -102.999s-60.834 -50.333 -102.501 -66s-91.167 -23.5 -148.5 -23.5h-100c-57.333 0 -107 7.83301 -149 23.5s-76.333 37.667 -103 66s-46.334 62.666 -59.001 102.999s-19 85.166 -19 134.499
v120c0 50 6.33301 95.167 19 135.5s32.334 74.833 59.001 103.5s61 50.667 103 66s91.667 23 149 23h100c57.333 0 106.833 -7.66699 148.5 -23s75.834 -37.333 102.501 -66s46.5 -63.167 59.5 -103.5s19.5 -85.5 19.5 -135.5v-120zM180 288
c0 -66.667 14.667 -116.667 44 -150s78 -50 146 -50h130c68.667 0 117.5 16.667 146.5 50s43.5 83.333 43.5 150v175c0 67.333 -14.5 117.5 -43.5 150.5s-77.833 49.5 -146.5 49.5h-130c-68 0 -116.667 -16.5 -146 -49.5s-44 -83.167 -44 -150.5v-175zM555 832h-240v78h240
v-78z" />
    <glyph glyph-name="omacron" unicode="&#x14d;" horiz-adv-x="747" 
d="M682 349v-98c0 -83.333 -23 -148.166 -69 -194.499s-113.333 -69.5 -202 -69.5h-75c-93.333 0 -161.833 23.167 -205.5 69.5s-65.5 111.166 -65.5 194.499v98c0 83.333 21.833 148.166 65.5 194.499s112.167 69.5 205.5 69.5h75c88.667 0 156 -23.167 202 -69.5
s69 -111.166 69 -194.499zM567 364c0 53.333 -10.167 92.333 -30.5 117s-57.5 37 -111.5 37h-104c-50.667 0 -86.834 -12.333 -108.501 -37s-32.5 -63.667 -32.5 -117v-128c0 -53.333 10.833 -92.333 32.5 -117s57.834 -37 108.501 -37h104c54 0 91.167 12.333 111.5 37
s30.5 63.667 30.5 117v128zM494 682h-240v78h240v-78z" />
    <glyph glyph-name="Obreve" unicode="&#x14e;" horiz-adv-x="870" 
d="M815 315c0 -49.333 -6.5 -94.166 -19.5 -134.499s-32.833 -74.666 -59.5 -102.999s-60.834 -50.333 -102.501 -66s-91.167 -23.5 -148.5 -23.5h-100c-57.333 0 -107 7.83301 -149 23.5s-76.333 37.667 -103 66s-46.334 62.666 -59.001 102.999s-19 85.166 -19 134.499
v120c0 50 6.33301 95.167 19 135.5s32.334 74.833 59.001 103.5s61 50.667 103 66s91.667 23 149 23h100c57.333 0 106.833 -7.66699 148.5 -23s75.834 -37.333 102.501 -66s46.5 -63.167 59.5 -103.5s19.5 -85.5 19.5 -135.5v-120zM180 288
c0 -66.667 14.667 -116.667 44 -150s78 -50 146 -50h130c68.667 0 117.5 16.667 146.5 50s43.5 83.333 43.5 150v175c0 67.333 -14.5 117.5 -43.5 150.5s-77.833 49.5 -146.5 49.5h-130c-68 0 -116.667 -16.5 -146 -49.5s-44 -83.167 -44 -150.5v-175zM278 980
l77 0.00195312v-40c0 -14.667 3.83301 -25.834 11.5 -33.501s19.167 -11.5 34.5 -11.5h70c16 0 27.5 3.66699 34.5 11s10.5 18.666 10.5 33.999v40h76v-46c0 -28.667 -9.66699 -53.667 -29 -75s-45.333 -32 -78 -32h-99c-34 0 -60.5 10.667 -79.5 32s-28.5 46.333 -28.5 75
v46z" />
    <glyph glyph-name="obreve" unicode="&#x14f;" horiz-adv-x="747" 
d="M682 349v-98c0 -83.333 -23 -148.166 -69 -194.499s-113.333 -69.5 -202 -69.5h-75c-93.333 0 -161.833 23.167 -205.5 69.5s-65.5 111.166 -65.5 194.499v98c0 83.333 21.833 148.166 65.5 194.499s112.167 69.5 205.5 69.5h75c88.667 0 156 -23.167 202 -69.5
s69 -111.166 69 -194.499zM567 364c0 53.333 -10.167 92.333 -30.5 117s-57.5 37 -111.5 37h-104c-50.667 0 -86.834 -12.333 -108.501 -37s-32.5 -63.667 -32.5 -117v-128c0 -53.333 10.833 -92.333 32.5 -117s57.834 -37 108.501 -37h104c54 0 91.167 12.333 111.5 37
s30.5 63.667 30.5 117v128zM217 830l77 0.00195312v-40c0 -14.667 3.83301 -25.834 11.5 -33.501s19.167 -11.5 34.5 -11.5h70c16 0 27.5 3.66699 34.5 11s10.5 18.666 10.5 33.999v40h76v-46c0 -28.667 -9.66699 -53.667 -29 -75s-45.333 -32 -78 -32h-99
c-34 0 -60.5 10.667 -79.5 32s-28.5 46.333 -28.5 75v46z" />
    <glyph glyph-name="Ohungarumlaut" unicode="&#x150;" horiz-adv-x="870" 
d="M815 315c0 -49.333 -6.5 -94.166 -19.5 -134.499s-32.833 -74.666 -59.5 -102.999s-60.834 -50.333 -102.501 -66s-91.167 -23.5 -148.5 -23.5h-100c-57.333 0 -107 7.83301 -149 23.5s-76.333 37.667 -103 66s-46.334 62.666 -59.001 102.999s-19 85.166 -19 134.499
v120c0 50 6.33301 95.167 19 135.5s32.334 74.833 59.001 103.5s61 50.667 103 66s91.667 23 149 23h100c57.333 0 106.833 -7.66699 148.5 -23s75.834 -37.333 102.501 -66s46.5 -63.167 59.5 -103.5s19.5 -85.5 19.5 -135.5v-120zM180 288
c0 -66.667 14.667 -116.667 44 -150s78 -50 146 -50h130c68.667 0 117.5 16.667 146.5 50s43.5 83.333 43.5 150v175c0 67.333 -14.5 117.5 -43.5 150.5s-77.833 49.5 -146.5 49.5h-130c-68 0 -116.667 -16.5 -146 -49.5s-44 -83.167 -44 -150.5v-175zM315 822l70 188h106
l-78 -188h-98zM477 822l70 188h106l-78 -188h-98z" />
    <glyph glyph-name="ohungarumlaut" unicode="&#x151;" horiz-adv-x="747" 
d="M682 349v-98c0 -83.333 -23 -148.166 -69 -194.499s-113.333 -69.5 -202 -69.5h-75c-93.333 0 -161.833 23.167 -205.5 69.5s-65.5 111.166 -65.5 194.499v98c0 83.333 21.833 148.166 65.5 194.499s112.167 69.5 205.5 69.5h75c88.667 0 156 -23.167 202 -69.5
s69 -111.166 69 -194.499zM567 364c0 53.333 -10.167 92.333 -30.5 117s-57.5 37 -111.5 37h-104c-50.667 0 -86.834 -12.333 -108.501 -37s-32.5 -63.667 -32.5 -117v-128c0 -53.333 10.833 -92.333 32.5 -117s57.834 -37 108.501 -37h104c54 0 91.167 12.333 111.5 37
s30.5 63.667 30.5 117v128zM254 672l70 188h106l-78 -188h-98zM416 672l70 188h106l-78 -188h-98z" />
    <glyph glyph-name="OE" unicode="&#x152;" horiz-adv-x="1258" 
d="M55 422c0 50 6.16895 95.167 18.502 135.5s31.666 74.833 57.999 103.5s60.5 50.667 102.5 66s92.333 23 151 23h806v-100h-466v-219h466v-100h-466v-231h466v-100h-811c-56 0 -104.5 7.66699 -145.5 23s-74.833 37.333 -101.5 66s-46.334 63.167 -59.001 103.5
s-19 85.5 -19 135.5v94zM365.002 100l245 -0.000976562v550h-240c-69.333 0 -118.333 -16.5 -147 -49.5s-43 -83.167 -43 -150.5v-149c0 -67.333 14 -117.666 42 -150.999s75.667 -50 143 -50z" />
    <glyph glyph-name="oe" unicode="&#x153;" horiz-adv-x="1218" 
d="M682 349v-98c0 -83.333 -23 -148.166 -69 -194.499s-113.333 -69.5 -202 -69.5h-75c-93.333 0 -161.833 23.167 -205.5 69.5s-65.5 111.166 -65.5 194.499v98c0 83.333 21.833 148.166 65.5 194.499s112.167 69.5 205.5 69.5h75c88.667 0 156 -23.167 202 -69.5
s69 -111.166 69 -194.499zM567 364c0 53.333 -10.167 92.333 -30.5 117s-57.5 37 -111.5 37h-104c-50.667 0 -86.834 -12.333 -108.501 -37s-32.5 -63.667 -32.5 -117v-128c0 -53.333 10.833 -92.333 32.5 -117s57.834 -37 108.501 -37h104c54 0 91.167 12.333 111.5 37
s30.5 63.667 30.5 117v128zM1153 262h-471.998v-49c0 -40 12.5 -69.667 37.5 -89s63.167 -29 114.5 -29h301v-95h-286c-41.333 0 -79.333 4.5 -114 13.5s-64.334 23.167 -89.001 42.5s-44 44 -58 74s-21 66 -21 108v105c0 88 23.167 154.333 69.5 199s113.5 67 201.5 67h55
c87.333 0 152.666 -19.667 195.999 -59s65 -98.333 65 -177v-111zM906.002 514h-83.999c-50.667 0 -86.834 -11.333 -108.501 -34s-32.5 -63.334 -32.5 -122.001v-5h357v35c0 44.667 -9 76.834 -27 96.501s-53 29.5 -105 29.5z" />
    <glyph glyph-name="Racute" unicode="&#x154;" horiz-adv-x="803" 
d="M740 0h-142.001l-294 321c-10 10.667 -16.833 22.667 -20.5 36s-3.83398 25.666 -0.500977 36.999c3.33301 10.667 10.5 19.834 21.5 27.501s24.833 11.5 41.5 11.5h173c43.333 0 73.5 6.66699 90.5 20s25.5 38 25.5 74v31c0 36 -8.5 60.333 -25.5 73
s-47.167 19 -90.5 19h-314v-650h-115v750h404c36.667 0 70.834 -3 102.501 -9s59.167 -16.333 82.5 -31s41.5 -34.5 54.5 -59.5s19.5 -56.5 19.5 -94.5v-27c0 -76 -23.167 -127.333 -69.5 -154s-111.166 -40 -194.499 -40h-57zM357.999 822l70 188h106l-78 -188h-98z" />
    <glyph glyph-name="racute" unicode="&#x155;" horiz-adv-x="477" 
d="M80 415c0 60.667 19.167 106.668 57.5 138.001s86.833 47 145.5 47h174v-95h-179c-31.333 0 -53.833 -5.83301 -67.5 -17.5s-20.5 -32.834 -20.5 -63.501v-424h-110v415zM250 672.001l70 188h106l-78 -188h-98z" />
    <glyph glyph-name="Rcommaaccent" unicode="&#x156;" horiz-adv-x="803" 
d="M740 0h-142.001l-294 321c-10 10.667 -16.833 22.667 -20.5 36s-3.83398 25.666 -0.500977 36.999c3.33301 10.667 10.5 19.834 21.5 27.501s24.833 11.5 41.5 11.5h173c43.333 0 73.5 6.66699 90.5 20s25.5 38 25.5 74v31c0 36 -8.5 60.333 -25.5 73
s-47.167 19 -90.5 19h-314v-650h-115v750h404c36.667 0 70.834 -3 102.501 -9s59.167 -16.333 82.5 -31s41.5 -34.5 54.5 -59.5s19.5 -56.5 19.5 -94.5v-27c0 -76 -23.167 -127.333 -69.5 -154s-111.166 -40 -194.499 -40h-57zM329.999 -188c10.667 32 17.667 55.333 21 70
s5 32.334 5 53.001v25h92v-25c0 -20.667 -1.66699 -38.334 -5 -53.001s-11.333 -38 -24 -70h-89z" />
    <glyph glyph-name="rcommaaccent" unicode="&#x157;" horiz-adv-x="477" 
d="M80 415c0 60.667 19.167 106.668 57.5 138.001s86.833 47 145.5 47h174v-95h-179c-31.333 0 -53.833 -5.83301 -67.5 -17.5s-20.5 -32.834 -20.5 -63.501v-424h-110v415zM64 -187.999c10.667 32 17.667 55.333 21 70s5 32.334 5 53.001v25h92v-25
c0 -20.667 -1.66699 -38.334 -5 -53.001s-11.333 -38 -24 -70h-89z" />
    <glyph glyph-name="Rcaron" unicode="&#x158;" horiz-adv-x="803" 
d="M740 0h-142.001l-294 321c-10 10.667 -16.833 22.667 -20.5 36s-3.83398 25.666 -0.500977 36.999c3.33301 10.667 10.5 19.834 21.5 27.501s24.833 11.5 41.5 11.5h173c43.333 0 73.5 6.66699 90.5 20s25.5 38 25.5 74v31c0 36 -8.5 60.333 -25.5 73
s-47.167 19 -90.5 19h-314v-650h-115v750h404c36.667 0 70.834 -3 102.501 -9s59.167 -16.333 82.5 -31s41.5 -34.5 54.5 -59.5s19.5 -56.5 19.5 -94.5v-27c0 -76 -23.167 -127.333 -69.5 -154s-111.166 -40 -194.499 -40h-57zM466.999 844
c-8 -10.667 -16.667 -19.667 -26 -27s-22.333 -11 -39 -11s-30 3.66699 -40 11s-18.667 16.333 -26 27l-109 156h103l72 -109l71 109h103z" />
    <glyph glyph-name="rcaron" unicode="&#x159;" horiz-adv-x="477" 
d="M80 415c0 60.667 19.167 106.668 57.5 138.001s86.833 47 145.5 47h174v-95h-179c-31.333 0 -53.833 -5.83301 -67.5 -17.5s-20.5 -32.834 -20.5 -63.501v-424h-110v415zM359 694.001c-8 -10.667 -16.667 -19.667 -26 -27s-22.333 -11 -39 -11s-30 3.66699 -40 11
s-18.667 16.333 -26 27l-109 156h103l72 -109l71 109h103z" />
    <glyph glyph-name="Sacute" unicode="&#x15a;" horiz-adv-x="705" 
d="M440 308l-190 52.001c-65.333 18 -115.833 42 -151.5 72s-53.5 73 -53.5 129s21.167 101.5 63.5 136.5s106.833 52.5 193.5 52.5h350v-100h-363c-48 0 -81.167 -8.33301 -99.5 -25s-27.5 -36.334 -27.5 -59.001c0 -26 8.5 -46.333 25.5 -61s48.167 -28.334 93.5 -41.001
l190 -54c66 -18.667 116.833 -43.5 152.5 -74.5s53.5 -74.167 53.5 -129.5c0 -62 -20.833 -111.833 -62.5 -149.5s-105.167 -56.5 -190.5 -56.5h-359v100h370c44 0 76.167 8.66699 96.5 26s30.5 40.666 30.5 69.999c0 30.667 -8.5 53.834 -25.5 69.501
s-49.167 29.834 -96.5 42.501zM339 822.001l70 188h106l-78 -188h-98z" />
    <glyph glyph-name="sacute" unicode="&#x15b;" horiz-adv-x="627" 
d="M371 239l-147 31c-56 12 -99.833 30.833 -131.5 56.5s-47.5 61.834 -47.5 108.501c0 49.333 18.333 89.166 55 119.499s91.667 45.5 165 45.5h302v-95h-322c-34 0 -57 -6.33301 -69 -19s-18 -27.667 -18 -45c0 -18.667 6.33301 -33.5 19 -44.5s35.667 -19.833 69 -26.5
l145 -30c62 -12.667 110.167 -31.167 144.5 -55.5s51.5 -61.5 51.5 -111.5c0 -52 -19 -93.833 -57 -125.5s-100 -47.5 -186 -47.5h-289v95h315c42 0 70.333 6.5 85 19.5s22 29.833 22 50.5c0 20 -7.66699 35.167 -23 45.5s-43 19.833 -83 28.5zM280 672l70 188h106l-78 -188
h-98z" />
    <glyph glyph-name="Scedilla" unicode="&#x15e;" horiz-adv-x="705" 
d="M440 308l-190 52.001c-65.333 18 -115.833 42 -151.5 72s-53.5 73 -53.5 129s21.167 101.5 63.5 136.5s106.833 52.5 193.5 52.5h350v-100h-363c-48 0 -81.167 -8.33301 -99.5 -25s-27.5 -36.334 -27.5 -59.001c0 -26 8.5 -46.333 25.5 -61s48.167 -28.334 93.5 -41.001
l190 -54c66 -18.667 116.833 -43.5 152.5 -74.5s53.5 -74.167 53.5 -129.5c0 -62 -20.833 -111.833 -62.5 -149.5s-105.167 -56.5 -190.5 -56.5h-359v100h370c44 0 76.167 8.66699 96.5 26s30.5 40.666 30.5 69.999c0 30.667 -8.5 53.834 -25.5 69.501
s-49.167 29.834 -96.5 42.501zM402 0.000976562l-70 -188h-106l78 188h98z" />
    <glyph glyph-name="scedilla" unicode="&#x15f;" horiz-adv-x="627" 
d="M371 239l-147 31c-56 12 -99.833 30.833 -131.5 56.5s-47.5 61.834 -47.5 108.501c0 49.333 18.333 89.166 55 119.499s91.667 45.5 165 45.5h302v-95h-322c-34 0 -57 -6.33301 -69 -19s-18 -27.667 -18 -45c0 -18.667 6.33301 -33.5 19 -44.5s35.667 -19.833 69 -26.5
l145 -30c62 -12.667 110.167 -31.167 144.5 -55.5s51.5 -61.5 51.5 -111.5c0 -52 -19 -93.833 -57 -125.5s-100 -47.5 -186 -47.5h-289v95h315c42 0 70.333 6.5 85 19.5s22 29.833 22 50.5c0 20 -7.66699 35.167 -23 45.5s-43 19.833 -83 28.5zM343 0l-70 -188h-106l78 188
h98z" />
    <glyph glyph-name="Scaron" unicode="&#x160;" horiz-adv-x="705" 
d="M440 308l-190 52.001c-65.333 18 -115.833 42 -151.5 72s-53.5 73 -53.5 129s21.167 101.5 63.5 136.5s106.833 52.5 193.5 52.5h350v-100h-363c-48 0 -81.167 -8.33301 -99.5 -25s-27.5 -36.334 -27.5 -59.001c0 -26 8.5 -46.333 25.5 -61s48.167 -28.334 93.5 -41.001
l190 -54c66 -18.667 116.833 -43.5 152.5 -74.5s53.5 -74.167 53.5 -129.5c0 -62 -20.833 -111.833 -62.5 -149.5s-105.167 -56.5 -190.5 -56.5h-359v100h370c44 0 76.167 8.66699 96.5 26s30.5 40.666 30.5 69.999c0 30.667 -8.5 53.834 -25.5 69.501
s-49.167 29.834 -96.5 42.501zM449 844.001c-8 -10.667 -16.667 -19.667 -26 -27s-22.333 -11 -39 -11s-30 3.66699 -40 11s-18.667 16.333 -26 27l-109 156h103l72 -109l71 109h103z" />
    <glyph glyph-name="scaron" unicode="&#x161;" horiz-adv-x="627" 
d="M371 239l-147 31c-56 12 -99.833 30.833 -131.5 56.5s-47.5 61.834 -47.5 108.501c0 49.333 18.333 89.166 55 119.499s91.667 45.5 165 45.5h302v-95h-322c-34 0 -57 -6.33301 -69 -19s-18 -27.667 -18 -45c0 -18.667 6.33301 -33.5 19 -44.5s35.667 -19.833 69 -26.5
l145 -30c62 -12.667 110.167 -31.167 144.5 -55.5s51.5 -61.5 51.5 -111.5c0 -52 -19 -93.833 -57 -125.5s-100 -47.5 -186 -47.5h-289v95h315c42 0 70.333 6.5 85 19.5s22 29.833 22 50.5c0 20 -7.66699 35.167 -23 45.5s-43 19.833 -83 28.5zM389 694
c-8 -10.667 -16.667 -19.667 -26 -27s-22.333 -11 -39 -11s-30 3.66699 -40 11s-18.667 16.333 -26 27l-109 156h103l72 -109l71 109h103z" />
    <glyph glyph-name="Tcedilla" unicode="&#x162;" horiz-adv-x="745" 
d="M315 0v650h-300v100h715v-100h-300v-650h-115zM423 0l-70 -188h-106l78 188h98z" />
    <glyph glyph-name="tcedilla" unicode="&#x163;" horiz-adv-x="490" 
d="M15 505v95h100v117h107v-117h223v-95h-223v-343c0 -25.333 5.33301 -42.833 16 -52.5s28 -14.5 52 -14.5h155v-95h-154c-56 0 -99.833 14 -131.5 42s-47.5 70 -47.5 126v337h-97zM364 0l-70 -188h-106l78 188h98z" />
    <glyph glyph-name="Tcaron" unicode="&#x164;" horiz-adv-x="745" 
d="M315 0v650h-300v100h715v-100h-300v-650h-115zM439 844c-8 -10.667 -16.667 -19.667 -26 -27s-22.333 -11 -39 -11s-30 3.66699 -40 11s-18.667 16.333 -26 27l-109 156h103l72 -109l71 109h103z" />
    <glyph glyph-name="tcaron" unicode="&#x165;" horiz-adv-x="490" 
d="M273 649l42 170h95l-42 -170h-95zM15 505v95h100v117h107v-117h223v-95h-223v-343c0 -25.333 5.33301 -42.833 16 -52.5s28 -14.5 52 -14.5h155v-95h-154c-56 0 -99.833 14 -131.5 42s-47.5 70 -47.5 126v337h-97z" />
    <glyph glyph-name="Tbar" unicode="&#x166;" horiz-adv-x="705" 
d="M315 0v325h-170v85h170v240h-300v100h715v-100h-300v-240h170v-85h-170v-325h-115z" />
    <glyph glyph-name="tbar" unicode="&#x167;" horiz-adv-x="490" 
d="M15 285v55h97v165h-97v95h100v117h107v-117h223v-95h-223v-165h133v-55h-133v-123c0 -25.333 5.33301 -42.833 16 -52.5s28 -14.5 52 -14.5h155v-95h-154c-56 0 -99.833 14 -131.5 42s-47.5 70 -47.5 126v117h-97z" />
    <glyph glyph-name="Utilde" unicode="&#x168;" horiz-adv-x="880" 
d="M370 -13c-97.333 0 -168.332 19.667 -212.999 59s-67 101.666 -67 186.999v517h115v-525c0 -46.667 11.833 -81.334 35.5 -104.001s60.5 -34 110.5 -34h180c47.333 0 83.166 11.333 107.499 34s36.5 57.334 36.5 104.001v525h115v-517
c0 -85.333 -22.667 -147.666 -68 -186.999s-119.333 -59 -222 -59h-130zM495.001 920c6.66699 -6.66699 12.001 -11.668 16.001 -15.001s9 -5 15 -5c5.33301 0 9.66602 2 12.999 6s5 10.333 5 19v81h87v-76c0 -35.333 -8.66699 -63.166 -26 -83.499s-42 -30.5 -74 -30.5
c-22.667 0 -42 4.66699 -58 14s-33.333 23.666 -52 42.999l-34 35c-6.66699 6.66699 -12 11.667 -16 15s-8.66699 5 -14 5s-9.83301 -2 -13.5 -6s-5.5 -10.333 -5.5 -19v-81h-87v78c0 36 9 63.667 27 83s42.333 29 73 29c22.667 0 42 -4.66699 58 -14
s33.333 -23.666 52 -42.999z" />
    <glyph glyph-name="utilde" unicode="&#x169;" horiz-adv-x="715" 
d="M635 600l0.000976562 -600h-338c-75.333 -0 -130.333 18.333 -165 55s-52 90 -52 160v385h110v-397c0 -39.333 7.66699 -66.333 23 -81s40.666 -22 75.999 -22h236v500h110zM403.001 770c6.66699 -6.66699 12.001 -11.668 16.001 -15.001s9 -5 15 -5
c5.33301 0 9.66602 2 12.999 6s5 10.333 5 19v81h87v-76c0 -35.333 -8.66699 -63.166 -26 -83.499s-42 -30.5 -74 -30.5c-22.667 0 -42 4.66699 -58 14s-33.333 23.666 -52 42.999l-34 35c-6.66699 6.66699 -12 11.667 -16 15s-8.66699 5 -14 5s-9.83301 -2 -13.5 -6
s-5.5 -10.333 -5.5 -19v-81h-87v78c0 36 9 63.667 27 83s42.333 29 73 29c22.667 0 42 -4.66699 58 -14s33.333 -23.666 52 -42.999z" />
    <glyph glyph-name="Umacron" unicode="&#x16a;" horiz-adv-x="880" 
d="M370 -13c-97.333 0 -168.332 19.667 -212.999 59s-67 101.666 -67 186.999v517h115v-525c0 -46.667 11.833 -81.334 35.5 -104.001s60.5 -34 110.5 -34h180c47.333 0 83.166 11.333 107.499 34s36.5 57.334 36.5 104.001v525h115v-517
c0 -85.333 -22.667 -147.666 -68 -186.999s-119.333 -59 -222 -59h-130zM560.001 832h-240v78h240v-78z" />
    <glyph glyph-name="umacron" unicode="&#x16b;" horiz-adv-x="715" 
d="M635 600l0.000976562 -600h-338c-75.333 -0 -130.333 18.333 -165 55s-52 90 -52 160v385h110v-397c0 -39.333 7.66699 -66.333 23 -81s40.666 -22 75.999 -22h236v500h110zM468.001 682h-240v78h240v-78z" />
    <glyph glyph-name="Ubreve" unicode="&#x16c;" horiz-adv-x="880" 
d="M370 -13c-97.333 0 -168.332 19.667 -212.999 59s-67 101.666 -67 186.999v517h115v-525c0 -46.667 11.833 -81.334 35.5 -104.001s60.5 -34 110.5 -34h180c47.333 0 83.166 11.333 107.499 34s36.5 57.334 36.5 104.001v525h115v-517
c0 -85.333 -22.667 -147.666 -68 -186.999s-119.333 -59 -222 -59h-130zM283.001 980l77 0.00195312v-40c0 -14.667 3.83301 -25.834 11.5 -33.501s19.167 -11.5 34.5 -11.5h70c16 0 27.5 3.66699 34.5 11s10.5 18.666 10.5 33.999v40h76v-46
c0 -28.667 -9.66699 -53.667 -29 -75s-45.333 -32 -78 -32h-99c-34 0 -60.5 10.667 -79.5 32s-28.5 46.333 -28.5 75v46z" />
    <glyph glyph-name="ubreve" unicode="&#x16d;" horiz-adv-x="715" 
d="M635 600l0.000976562 -600h-338c-75.333 -0 -130.333 18.333 -165 55s-52 90 -52 160v385h110v-397c0 -39.333 7.66699 -66.333 23 -81s40.666 -22 75.999 -22h236v500h110zM190.001 830l77 0.00195312v-40c0 -14.667 3.83301 -25.834 11.5 -33.501
s19.167 -11.5 34.5 -11.5h70c16 0 27.5 3.66699 34.5 11s10.5 18.666 10.5 33.999v40h76v-46c0 -28.667 -9.66699 -53.667 -29 -75s-45.333 -32 -78 -32h-99c-34 0 -60.5 10.667 -79.5 32s-28.5 46.333 -28.5 75v46z" />
    <glyph glyph-name="Uring" unicode="&#x16e;" horiz-adv-x="880" 
d="M370 -13c-97.333 0 -168.332 19.667 -212.999 59s-67 101.666 -67 186.999v517h115v-525c0 -46.667 11.833 -81.334 35.5 -104.001s60.5 -34 110.5 -34h180c47.333 0 83.166 11.333 107.499 34s36.5 57.334 36.5 104.001v525h115v-517
c0 -85.333 -22.667 -147.666 -68 -186.999s-119.333 -59 -222 -59h-130zM333.001 904v24c0 26 8.5 47 25.5 63s37.833 24 62.5 24h39c24.667 0 45.5 -8 62.5 -24s25.5 -37 25.5 -63v-24c0 -26 -8.5 -47 -25.5 -63s-37.833 -24 -62.5 -24h-39c-24.667 0 -45.5 8 -62.5 24
s-25.5 37 -25.5 63zM393.001 926v-20c0 -11.333 3.33301 -20.5 10 -27.5s15 -10.5 25 -10.5h25c10 0 18.5 3.5 25.5 10.5s10.5 16.167 10.5 27.5v20c0 11.333 -3.5 20.5 -10.5 27.5s-15.5 10.5 -25.5 10.5h-25c-10 0 -18.333 -3.5 -25 -10.5s-10 -16.167 -10 -27.5z" />
    <glyph glyph-name="uring" unicode="&#x16f;" horiz-adv-x="715" 
d="M635 600l0.000976562 -600h-338c-75.333 -0 -130.333 18.333 -165 55s-52 90 -52 160v385h110v-397c0 -39.333 7.66699 -66.333 23 -81s40.666 -22 75.999 -22h236v500h110zM240.001 754v24c0 26 8.5 47 25.5 63s37.833 24 62.5 24h39c24.667 0 45.5 -8 62.5 -24
s25.5 -37 25.5 -63v-24c0 -26 -8.5 -47 -25.5 -63s-37.833 -24 -62.5 -24h-39c-24.667 0 -45.5 8 -62.5 24s-25.5 37 -25.5 63zM300.001 776v-20c0 -11.333 3.33301 -20.5 10 -27.5s15 -10.5 25 -10.5h25c10 0 18.5 3.5 25.5 10.5s10.5 16.167 10.5 27.5v20
c0 11.333 -3.5 20.5 -10.5 27.5s-15.5 10.5 -25.5 10.5h-25c-10 0 -18.333 -3.5 -25 -10.5s-10 -16.167 -10 -27.5z" />
    <glyph glyph-name="Uhungarumlaut" unicode="&#x170;" horiz-adv-x="880" 
d="M370 -13c-97.333 0 -168.332 19.667 -212.999 59s-67 101.666 -67 186.999v517h115v-525c0 -46.667 11.833 -81.334 35.5 -104.001s60.5 -34 110.5 -34h180c47.333 0 83.166 11.333 107.499 34s36.5 57.334 36.5 104.001v525h115v-517
c0 -85.333 -22.667 -147.666 -68 -186.999s-119.333 -59 -222 -59h-130zM320.001 822l70 188h106l-78 -188h-98zM482.001 822l70 188h106l-78 -188h-98z" />
    <glyph glyph-name="uhungarumlaut" unicode="&#x171;" horiz-adv-x="715" 
d="M635 600l0.000976562 -600h-338c-75.333 -0 -130.333 18.333 -165 55s-52 90 -52 160v385h110v-397c0 -39.333 7.66699 -66.333 23 -81s40.666 -22 75.999 -22h236v500h110zM228.001 672l70 188h106l-78 -188h-98zM390.001 672l70 188h106l-78 -188h-98z" />
    <glyph glyph-name="Uogonek" unicode="&#x172;" horiz-adv-x="880" 
d="M370 -13c-97.333 0 -168.332 19.667 -212.999 59s-67 101.666 -67 186.999v517h115v-525c0 -46.667 11.833 -81.334 35.5 -104.001s60.5 -34 110.5 -34h180c47.333 0 83.166 11.333 107.499 34s36.5 57.334 36.5 104.001v525h115v-517
c0 -85.333 -22.667 -147.666 -68 -186.999s-119.333 -59 -222 -59h-130zM448.001 0l92 0.000976562l-48 -58l-16.5 -21c-4.33301 -5.33301 -6.5 -11.333 -6.5 -18s2.66699 -12.334 8 -17.001s13.333 -7 24 -7h39v-69h-65c-36.667 0 -63.167 7 -79.5 21
s-24.5 31.333 -24.5 52c0 12.667 3.16699 25.667 9.5 39s17.833 28.333 34.5 45z" />
    <glyph glyph-name="uogonek" unicode="&#x173;" horiz-adv-x="715" 
d="M635 600l0.000976562 -600h-338c-75.333 -0 -130.333 18.333 -165 55s-52 90 -52 160v385h110v-397c0 -39.333 7.66699 -66.333 23 -81s40.666 -22 75.999 -22h236v500h110zM533.001 0l92 0.000976562l-48 -58l-16.5 -21c-4.33301 -5.33301 -6.5 -11.333 -6.5 -18
s2.66699 -12.334 8 -17.001s13.333 -7 24 -7h39v-69h-65c-36.667 0 -63.167 7 -79.5 21s-24.5 31.333 -24.5 52c0 12.667 3.16699 25.667 9.5 39s17.833 28.333 34.5 45z" />
    <glyph glyph-name="Wcircumflex" unicode="&#x174;" horiz-adv-x="1232" 
d="M155 750l171.999 -621.999c2.66699 -9.33301 5.66699 -16.166 9 -20.499s8 -6.5 14 -6.5s10.333 1.66699 13 5s5.33398 10.333 8.00098 21l115 493c10 42.667 24 77.167 42 103.5s47.667 39.5 89 39.5c42.667 0 73 -13.833 91 -41.5s31.667 -62.167 41 -103.5l113 -489
c2.66699 -11.333 5.5 -18.833 8.5 -22.5s7.83301 -5.5 14.5 -5.5c5.33301 0 9.5 2.16699 12.5 6.5s5.83301 11.166 8.5 20.499l172 622h119l-177 -630c-12 -42 -27.667 -74.667 -47 -98s-49 -35 -89 -35c-44 0 -75.667 12.333 -95 37s-33.333 57 -42 97l-112 498
c-2 8.66699 -4.16699 15.5 -6.5 20.5s-6.16602 7.5 -11.499 7.5c-6 0 -10 -2.33301 -12 -7s-4 -11.334 -6 -20.001l-114 -499c-8.66699 -40 -22.5 -72.333 -41.5 -97s-50.167 -37 -93.5 -37c-40.667 0 -70.834 11.5 -90.501 34.5s-35.5 55.833 -47.5 98.5l-177 630h120z
M686.999 822.001l-71 109l-72 -109h-103l109 156c7.33301 10.667 16 19.667 26 27s23.333 11 40 11s29.667 -3.66699 39 -11s18 -16.333 26 -27l109 -156h-103z" />
    <glyph glyph-name="wcircumflex" unicode="&#x175;" horiz-adv-x="1010" 
d="M506 613c32.667 0 59.335 -10.333 80.002 -31s35.667 -51 45 -91l88 -382c1.33301 -5.33301 3.33301 -10 6 -14s6.66699 -6 12 -6s9.16602 1.66699 11.499 5s4.16602 8.33301 5.49902 15l122 491h109l-134 -510c-8 -30.667 -21.167 -55.5 -39.5 -74.5
s-42.5 -28.5 -72.5 -28.5c-38 0 -65.5 9.5 -82.5 28.5s-29.5 45.5 -37.5 79.5l-94 398c-2 7.33301 -4.5 13 -7.5 17s-6.83301 6 -11.5 6c-6.66699 0 -11.5 -2.16699 -14.5 -6.5s-5.16699 -9.83301 -6.5 -16.5l-94 -398c-8 -34 -20.667 -60.5 -38 -79.5s-44 -28.5 -80 -28.5
c-31.333 0 -56 9 -74 27s-31.333 43.333 -40 76l-134 510h112l119 -490c1.33301 -6 3.33301 -11 6 -15s6.66699 -6 12 -6c4.66699 0 8.33398 2 11.001 6s4.66699 9 6 15l89 381c9.33301 40 23.666 70.333 42.999 91s47 31 83 31zM577.001 672l-71 109l-72 -109h-103l109 156
c7.33301 10.667 16 19.667 26 27s23.333 11 40 11s29.667 -3.66699 39 -11s18 -16.333 26 -27l109 -156h-103z" />
    <glyph glyph-name="Ycircumflex" unicode="&#x176;" 
d="M333 0v268l-323 482h137l225 -354c4 -6.66699 10.167 -10 18.5 -10s14.5 3.33301 18.5 10l231 354h130l-322 -481v-269h-115zM461 822l-71 109l-72 -109h-103l109 156c7.33301 10.667 16 19.667 26 27s23.333 11 40 11s29.667 -3.66699 39 -11s18 -16.333 26 -27
l109 -156h-103z" />
    <glyph glyph-name="ycircumflex" unicode="&#x177;" horiz-adv-x="672" 
d="M329 152c2.66699 -4.66699 5.6709 -8.33301 9.00391 -11s6.66602 -4 9.99902 -4s6.66602 1.33301 9.99902 4s6 6.33398 8 11.001l180 448h121l-257 -613c-22 -52 -49.167 -87.833 -81.5 -107.5s-75.5 -29.5 -129.5 -29.5h-138v92h137c32 0 55.667 5.16699 71 15.5
s27 24.833 35 43.5l20 49h-5c-18.667 0 -36.334 5.16699 -53.001 15.5s-31.334 29.166 -44.001 56.499l-217 478h126zM407.004 672.001l-71 109l-72 -109h-103l109 156c7.33301 10.667 16 19.667 26 27s23.333 11 40 11s29.667 -3.66699 39 -11s18 -16.333 26 -27l109 -156
h-103z" />
    <glyph glyph-name="Ydieresis" unicode="&#x178;" 
d="M333 0v268l-323 482h137l225 -354c4 -6.66699 10.167 -10 18.5 -10s14.5 3.33301 18.5 10l231 354h130l-322 -481v-269h-115zM350 842h-110v106h110v-106zM540 842h-110v106h110v-106z" />
    <glyph glyph-name="Zacute" unicode="&#x179;" horiz-adv-x="705" 
d="M657 0l-456.999 -0.000976562c-56.667 0 -97.5 12 -122.5 36s-37.5 54.333 -37.5 91c0 30.667 10.667 58.667 32 84s51.666 53 90.999 83l343 262c14 10.667 24 19.834 30 27.501s9 17.5 9 29.5c0 12.667 -4.5 22 -13.5 28s-22.167 9 -39.5 9h-434v100h434
c61.333 0 105.5 -12 132.5 -36s40.5 -57 40.5 -99c0 -30.667 -7.66699 -56.667 -23 -78s-39.333 -44 -72 -68l-367 -274c-15.333 -11.333 -26.333 -21 -33 -29s-10 -17.667 -10 -29c0 -12.667 4.16699 -22 12.5 -28s18.833 -9 31.5 -9h453v-100zM309.001 821.999l70 188h106
l-78 -188h-98z" />
    <glyph glyph-name="zacute" unicode="&#x17a;" horiz-adv-x="648" 
d="M594 0l-419.999 0.00390625c-44.667 0 -77.834 9.33301 -99.501 28s-32.5 42 -32.5 70c0 22.667 5.66699 42.667 17 60s31.333 36.666 60 57.999l329 245c4.66699 3.33301 8.16699 6.83301 10.5 10.5s3.5 8.16699 3.5 13.5c0 6.66699 -2.16699 11.667 -6.5 15
s-10.833 5 -19.5 5h-374v95h373c44.667 0 80.334 -7.5 107.001 -22.5s40 -41.167 40 -78.5c0 -20.667 -7.16699 -40.834 -21.5 -60.501s-37.833 -41.834 -70.5 -66.501l-313 -236c-4.66699 -4 -8.33398 -7.66699 -11.001 -11s-4 -7.33301 -4 -12
c0 -6.66699 2.33301 -11.334 7 -14.001s10.667 -4 18 -4h407v-95zM280.001 672.004l70 188h106l-78 -188h-98z" />
    <glyph glyph-name="Zdotaccent" unicode="&#x17b;" horiz-adv-x="705" 
d="M657 0l-456.999 -0.000976562c-56.667 0 -97.5 12 -122.5 36s-37.5 54.333 -37.5 91c0 30.667 10.667 58.667 32 84s51.666 53 90.999 83l343 262c14 10.667 24 19.834 30 27.501s9 17.5 9 29.5c0 12.667 -4.5 22 -13.5 28s-22.167 9 -39.5 9h-434v100h434
c61.333 0 105.5 -12 132.5 -36s40.5 -57 40.5 -99c0 -30.667 -7.66699 -56.667 -23 -78s-39.333 -44 -72 -68l-367 -274c-15.333 -11.333 -26.333 -21 -33 -29s-10 -17.667 -10 -29c0 -12.667 4.16699 -22 12.5 -28s18.833 -9 31.5 -9h453v-100zM408.001 821.999h-110v98
h110v-98z" />
    <glyph glyph-name="zdotaccent" unicode="&#x17c;" horiz-adv-x="648" 
d="M594 0l-419.999 0.00390625c-44.667 0 -77.834 9.33301 -99.501 28s-32.5 42 -32.5 70c0 22.667 5.66699 42.667 17 60s31.333 36.666 60 57.999l329 245c4.66699 3.33301 8.16699 6.83301 10.5 10.5s3.5 8.16699 3.5 13.5c0 6.66699 -2.16699 11.667 -6.5 15
s-10.833 5 -19.5 5h-374v95h373c44.667 0 80.334 -7.5 107.001 -22.5s40 -41.167 40 -78.5c0 -20.667 -7.16699 -40.834 -21.5 -60.501s-37.833 -41.834 -70.5 -66.501l-313 -236c-4.66699 -4 -8.33398 -7.66699 -11.001 -11s-4 -7.33301 -4 -12
c0 -6.66699 2.33301 -11.334 7 -14.001s10.667 -4 18 -4h407v-95zM379.001 672.004h-110v98h110v-98z" />
    <glyph glyph-name="Zcaron" unicode="&#x17d;" horiz-adv-x="705" 
d="M657 0l-456.999 -0.000976562c-56.667 0 -97.5 12 -122.5 36s-37.5 54.333 -37.5 91c0 30.667 10.667 58.667 32 84s51.666 53 90.999 83l343 262c14 10.667 24 19.834 30 27.501s9 17.5 9 29.5c0 12.667 -4.5 22 -13.5 28s-22.167 9 -39.5 9h-434v100h434
c61.333 0 105.5 -12 132.5 -36s40.5 -57 40.5 -99c0 -30.667 -7.66699 -56.667 -23 -78s-39.333 -44 -72 -68l-367 -274c-15.333 -11.333 -26.333 -21 -33 -29s-10 -17.667 -10 -29c0 -12.667 4.16699 -22 12.5 -28s18.833 -9 31.5 -9h453v-100zM418.001 843.999
c-8 -10.667 -16.667 -19.667 -26 -27s-22.333 -11 -39 -11s-30 3.66699 -40 11s-18.667 16.333 -26 27l-109 156h103l72 -109l71 109h103z" />
    <glyph glyph-name="zcaron" unicode="&#x17e;" horiz-adv-x="648" 
d="M594 0l-419.999 0.00390625c-44.667 0 -77.834 9.33301 -99.501 28s-32.5 42 -32.5 70c0 22.667 5.66699 42.667 17 60s31.333 36.666 60 57.999l329 245c4.66699 3.33301 8.16699 6.83301 10.5 10.5s3.5 8.16699 3.5 13.5c0 6.66699 -2.16699 11.667 -6.5 15
s-10.833 5 -19.5 5h-374v95h373c44.667 0 80.334 -7.5 107.001 -22.5s40 -41.167 40 -78.5c0 -20.667 -7.16699 -40.834 -21.5 -60.501s-37.833 -41.834 -70.5 -66.501l-313 -236c-4.66699 -4 -8.33398 -7.66699 -11.001 -11s-4 -7.33301 -4 -12
c0 -6.66699 2.33301 -11.334 7 -14.001s10.667 -4 18 -4h407v-95zM389.001 694.004c-8 -10.667 -16.667 -19.667 -26 -27s-22.333 -11 -39 -11s-30 3.66699 -40 11s-18.667 16.333 -26 27l-109 156h103l72 -109l71 109h103z" />
    <glyph glyph-name="Schwa" unicode="&#x18f;" horiz-adv-x="797" 
d="M55 427l561.999 -0.000976562v109c0 40 -12.5 69.833 -37.5 89.5s-63.167 29.5 -114.5 29.5h-391v95h386c41.333 0 79.333 -4.66699 114 -14s64.334 -23.5 89.001 -42.5s44 -43.667 58 -74s21 -66.5 21 -108.5v-265c0 -81.333 -21.5 -142.666 -64.5 -183.999
s-108.5 -62 -196.5 -62h-155c-87.333 0 -154.333 19.667 -201 59s-70 98.333 -70 177v191zM321.999 94.999l164 0.000976562c50.667 0 85.167 11.167 103.5 33.5s27.5 56.5 27.5 102.5v105h-437v-115c0 -44.667 10.667 -76.834 32 -96.501s58 -29.5 110 -29.5z" />
    <glyph glyph-name="Scommaaccent" unicode="&#x218;" horiz-adv-x="705" 
d="M440 308l-190 52.001c-65.333 18 -115.833 42 -151.5 72s-53.5 73 -53.5 129s21.167 101.5 63.5 136.5s106.833 52.5 193.5 52.5h350v-100h-363c-48 0 -81.167 -8.33301 -99.5 -25s-27.5 -36.334 -27.5 -59.001c0 -26 8.5 -46.333 25.5 -61s48.167 -28.334 93.5 -41.001
l190 -54c66 -18.667 116.833 -43.5 152.5 -74.5s53.5 -74.167 53.5 -129.5c0 -62 -20.833 -111.833 -62.5 -149.5s-105.167 -56.5 -190.5 -56.5h-359v100h370c44 0 76.167 8.66699 96.5 26s30.5 40.666 30.5 69.999c0 30.667 -8.5 53.834 -25.5 69.501
s-49.167 29.834 -96.5 42.501zM281 -187.999c10.667 32 17.667 55.333 21 70s5 32.334 5 53.001v25h92v-25c0 -20.667 -1.66699 -38.334 -5 -53.001s-11.333 -38 -24 -70h-89z" />
    <glyph glyph-name="scommaaccent" unicode="&#x219;" horiz-adv-x="627" 
d="M371 239l-147 31c-56 12 -99.833 30.833 -131.5 56.5s-47.5 61.834 -47.5 108.501c0 49.333 18.333 89.166 55 119.499s91.667 45.5 165 45.5h302v-95h-322c-34 0 -57 -6.33301 -69 -19s-18 -27.667 -18 -45c0 -18.667 6.33301 -33.5 19 -44.5s35.667 -19.833 69 -26.5
l145 -30c62 -12.667 110.167 -31.167 144.5 -55.5s51.5 -61.5 51.5 -111.5c0 -52 -19 -93.833 -57 -125.5s-100 -47.5 -186 -47.5h-289v95h315c42 0 70.333 6.5 85 19.5s22 29.833 22 50.5c0 20 -7.66699 35.167 -23 45.5s-43 19.833 -83 28.5zM222 -188
c10.667 32 17.667 55.333 21 70s5 32.334 5 53.001v25h92v-25c0 -20.667 -1.66699 -38.334 -5 -53.001s-11.333 -38 -24 -70h-89z" />
    <glyph glyph-name="Tcommaaccent" unicode="&#x21a;" horiz-adv-x="745" 
d="M315 0v650h-300v100h715v-100h-300v-650h-115zM302 -188c10.667 32 17.667 55.333 21 70s5 32.334 5 53.001v25h92v-25c0 -20.667 -1.66699 -38.334 -5 -53.001s-11.333 -38 -24 -70h-89z" />
    <glyph glyph-name="tcommaaccent" unicode="&#x21b;" horiz-adv-x="490" 
d="M15 505v95h100v117h107v-117h223v-95h-223v-343c0 -25.333 5.33301 -42.833 16 -52.5s28 -14.5 52 -14.5h155v-95h-154c-56 0 -99.833 14 -131.5 42s-47.5 70 -47.5 126v337h-97zM243 -188c10.667 32 17.667 55.333 21 70s5 32.334 5 53.001v25h92v-25
c0 -20.667 -1.66699 -38.334 -5 -53.001s-11.333 -38 -24 -70h-89z" />
    <glyph glyph-name="ipa:schwa" unicode="&#x259;" horiz-adv-x="717" 
d="M65 338h471.998v49c0 40 -12.5 69.667 -37.5 89s-63.167 29 -114.5 29h-301v95h286c41.333 0 79.333 -4.5 114 -13.5s64.334 -23.167 89.001 -42.5s44 -44 58 -74s21 -66 21 -108v-105c0 -88 -23.167 -154.333 -69.5 -199s-113.5 -67 -201.5 -67h-55
c-87.333 0 -152.666 19.667 -195.999 59s-65 98.333 -65 177v111zM311.998 86h83.999c50.667 0 86.834 11.333 108.501 34s32.5 63.334 32.5 122.001v5h-357v-35c0 -44.667 9 -76.834 27 -96.501s53 -29.5 105 -29.5z" />
    <glyph glyph-name="circumflex" unicode="&#x2c6;" horiz-adv-x="707" 
d="M425 672l-71 109l-72 -109h-103l109 156c7.33301 10.667 16 19.667 26 27s23.333 11 40 11s29.667 -3.66699 39 -11s18 -16.333 26 -27l109 -156h-103z" />
    <glyph glyph-name="caron" unicode="&#x2c7;" horiz-adv-x="707" 
d="M419 694c-8 -10.667 -16.667 -19.667 -26 -27s-22.333 -11 -39 -11s-30 3.66699 -40 11s-18.667 16.333 -26 27l-109 156h103l72 -109l71 109h103z" />
    <glyph glyph-name="breve" unicode="&#x2d8;" horiz-adv-x="727" 
d="M206 830l77 0.00195312v-40c0 -14.667 3.83301 -25.834 11.5 -33.501s19.167 -11.5 34.5 -11.5h70c16 0 27.5 3.66699 34.5 11s10.5 18.666 10.5 33.999v40h76v-46c0 -28.667 -9.66699 -53.667 -29 -75s-45.333 -32 -78 -32h-99c-34 0 -60.5 10.667 -79.5 32
s-28.5 46.333 -28.5 75v46z" />
    <glyph glyph-name="dotaccent" unicode="&#x2d9;" horiz-adv-x="510" 
d="M310 672h-110v98h110v-98z" />
    <glyph glyph-name="ring" unicode="&#x2da;" horiz-adv-x="727" 
d="M256 754v24c0 26 8.5 47 25.5 63s37.833 24 62.5 24h39c24.667 0 45.5 -8 62.5 -24s25.5 -37 25.5 -63v-24c0 -26 -8.5 -47 -25.5 -63s-37.833 -24 -62.5 -24h-39c-24.667 0 -45.5 8 -62.5 24s-25.5 37 -25.5 63zM316 776v-20c0 -11.333 3.33301 -20.5 10 -27.5
s15 -10.5 25 -10.5h25c10 0 18.5 3.5 25.5 10.5s10.5 16.167 10.5 27.5v20c0 11.333 -3.5 20.5 -10.5 27.5s-15.5 10.5 -25.5 10.5h-25c-10 0 -18.333 -3.5 -25 -10.5s-10 -16.167 -10 -27.5z" />
    <glyph glyph-name="ogonek" unicode="&#x2db;" horiz-adv-x="326" 
d="M134 0l92 0.000976562l-48 -58l-16.5 -21c-4.33301 -5.33301 -6.5 -11.333 -6.5 -18s2.66699 -12.334 8 -17.001s13.333 -7 24 -7h39v-69h-65c-36.667 0 -63.167 7 -79.5 21s-24.5 31.333 -24.5 52c0 12.667 3.16699 25.667 9.5 39s17.833 28.333 34.5 45z" />
    <glyph glyph-name="tilde" unicode="&#x2dc;" horiz-adv-x="860" 
d="M485 770c6.66699 -6.66699 12.001 -11.668 16.001 -15.001s9 -5 15 -5c5.33301 0 9.66602 2 12.999 6s5 10.333 5 19v81h87v-76c0 -35.333 -8.66699 -63.166 -26 -83.499s-42 -30.5 -74 -30.5c-22.667 0 -42 4.66699 -58 14s-33.333 23.666 -52 42.999l-34 35
c-6.66699 6.66699 -12 11.667 -16 15s-8.66699 5 -14 5s-9.83301 -2 -13.5 -6s-5.5 -10.333 -5.5 -19v-81h-87v78c0 36 9 63.667 27 83s42.333 29 73 29c22.667 0 42 -4.66699 58 -14s33.333 -23.666 52 -42.999z" />
    <glyph glyph-name="hungarumlaut" unicode="&#x2dd;" horiz-adv-x="510" 
d="M135 672l70 188h106l-78 -188h-98zM297 672l70 188h106l-78 -188h-98z" />
    <glyph glyph-name="thinspace" unicode="&#x2009;" horiz-adv-x="130" 
 />
    <glyph glyph-name="endash" unicode="&#x2013;" horiz-adv-x="486" 
d="M50 252v100h386v-100h-386z" />
    <glyph glyph-name="emdash" unicode="&#x2014;" horiz-adv-x="686" 
d="M50 252v100h586v-100h-586z" />
    <glyph glyph-name="quoteleft" unicode="&#x2018;" horiz-adv-x="256" 
d="M213 751l-22.5 -60.499c-5.66699 -15.667 -10 -29.834 -13 -42.501s-4.83301 -26.167 -5.5 -40.5s-1 -32.833 -1 -55.5v-81h-110v80c0 23.333 0.5 42.5 1.5 57.5s3.16699 29 6.5 42s8.5 27 15.5 42l28.5 58.5h100z" />
    <glyph glyph-name="quoteright" unicode="&#x2019;" horiz-adv-x="256" 
d="M41 470l22.5 60.499c5.66699 15.667 10 29.834 13 42.501s4.83301 26.167 5.5 40.5s1 32.833 1 55.5v81h110v-80c0 -23.333 -0.5 -42.5 -1.5 -57.5s-3.16699 -29 -6.5 -42s-8.5 -27 -15.5 -42l-28.5 -58.5h-100z" />
    <glyph glyph-name="quotesinglbase" unicode="&#x201a;" horiz-adv-x="256" 
d="M41 -140l22.5 60.499c5.66699 15.667 10 29.834 13 42.501s4.83301 26.167 5.5 40.5s1 32.833 1 55.5v81h110v-80c0 -23.333 -0.5 -42.5 -1.5 -57.5s-3.16699 -29 -6.5 -42s-8.5 -27 -15.5 -42l-28.5 -58.5h-100z" />
    <glyph glyph-name="quotedblleft" unicode="&#x201c;" horiz-adv-x="403" 
d="M214 750l-22.5 -60.499c-5.66699 -15.667 -10 -29.834 -13 -42.501s-4.83301 -26.167 -5.5 -40.5s-1 -32.833 -1 -55.5v-81h-110v80c0 23.333 0.5 42.5 1.5 57.5s3.16699 29 6.5 42s8.5 27 15.5 42l28.5 58.5h100zM373 750.001l-22.5 -60.499
c-5.66699 -15.667 -10 -29.834 -13 -42.501s-4.83301 -26.167 -5.5 -40.5s-1 -32.833 -1 -55.5v-81h-110v80c0 23.333 0.5 42.5 1.5 57.5s3.16699 29 6.5 42s8.5 27 15.5 42l28.5 58.5h100z" />
    <glyph glyph-name="quotedblright" unicode="&#x201d;" horiz-adv-x="403" 
d="M189 470l22.5 60.499c5.66699 15.667 10 29.834 13 42.501s4.83301 26.167 5.5 40.5s1 32.833 1 55.5v81h110v-80c0 -23.333 -0.5 -42.5 -1.5 -57.5s-3.16699 -29 -6.5 -42s-8.5 -27 -15.5 -42l-28.5 -58.5h-100zM30 469.999l22.5 60.499
c5.66699 15.667 10 29.834 13 42.501s4.83301 26.167 5.5 40.5s1 32.833 1 55.5v81h110v-80c0 -23.333 -0.5 -42.5 -1.5 -57.5s-3.16699 -29 -6.5 -42s-8.5 -27 -15.5 -42l-28.5 -58.5h-100z" />
    <glyph glyph-name="quotedblbase" unicode="&#x201e;" horiz-adv-x="403" 
d="M189 -140l22.5 60.499c5.66699 15.667 10 29.834 13 42.501s4.83301 26.167 5.5 40.5s1 32.833 1 55.5v81h110v-80c0 -23.333 -0.5 -42.5 -1.5 -57.5s-3.16699 -29 -6.5 -42s-8.5 -27 -15.5 -42l-28.5 -58.5h-100zM30 -140.001l22.5 60.499
c5.66699 15.667 10 29.834 13 42.501s4.83301 26.167 5.5 40.5s1 32.833 1 55.5v81h110v-80c0 -23.333 -0.5 -42.5 -1.5 -57.5s-3.16699 -29 -6.5 -42s-8.5 -27 -15.5 -42l-28.5 -58.5h-100z" />
    <glyph glyph-name="dagger" unicode="&#x2020;" horiz-adv-x="586" 
d="M50 470v100h178v180h110v-180h198v-100h-198v-470h-110v470h-178z" />
    <glyph glyph-name="daggerdbl" unicode="&#x2021;" horiz-adv-x="586" 
d="M50 180v100h178v190h-178v100h178v180h110v-180h198v-100h-198v-190h198v-100h-198v-180h-110v180h-178z" />
    <glyph glyph-name="bullet" unicode="&#x2022;" horiz-adv-x="466" 
d="M100 282v36c0 35.333 9.5 63.5 28.5 84.5s46.5 31.5 82.5 31.5h44c36 0 63.5 -10.5 82.5 -31.5s28.5 -49.167 28.5 -84.5v-36c0 -35.333 -9.5 -63.666 -28.5 -84.999s-46.5 -32 -82.5 -32h-44c-36 0 -63.5 10.667 -82.5 32s-28.5 49.666 -28.5 84.999z" />
    <glyph glyph-name="ellipsis" unicode="&#x2026;" horiz-adv-x="665" 
d="M470 0v125h125v-125h-125zM70 0v125h125v-125h-125zM270 0v125h125v-125h-125z" />
    <glyph glyph-name="perthousand" unicode="&#x2030;" horiz-adv-x="1298" 
d="M40 554v57c0 46 14.833 82.833 44.5 110.5s66.834 41.5 111.501 41.5h70c42 0 78.5 -13.833 109.5 -41.5s46.5 -64.5 46.5 -110.5v-57c0 -46 -15.5 -82.833 -46.5 -110.5s-67.5 -41.5 -109.5 -41.5h-70c-44.667 0 -81.834 13.833 -111.501 41.5s-44.5 64.5 -44.5 110.5z
M562 419h-113l195 331h114zM144 603v-45c0 -21.333 5 -38.666 15 -51.999s25.667 -20 47 -20h49c23.333 0 39.666 6.66699 48.999 20s14 30.666 14 51.999v45c0 22.667 -4.66699 41 -14 55s-25.666 21 -48.999 21h-49c-21.333 0 -37 -7 -47 -21s-15 -32.333 -15 -55z
M876 140v57c0 46 14.833 82.833 44.5 110.5s66.834 41.5 111.501 41.5h70c42 0 78.5 -13.833 109.5 -41.5s46.5 -64.5 46.5 -110.5v-57c0 -46 -15.5 -82.833 -46.5 -110.5s-67.5 -41.5 -109.5 -41.5h-70c-44.667 0 -81.834 13.833 -111.501 41.5s-44.5 64.5 -44.5 110.5z
M436 140v57c0 46 14.833 82.833 44.5 110.5s66.834 41.5 111.501 41.5h70c42 0 78.5 -13.833 109.5 -41.5s46.5 -64.5 46.5 -110.5v-57c0 -46 -15.5 -82.833 -46.5 -110.5s-67.5 -41.5 -109.5 -41.5h-70c-44.667 0 -81.834 13.833 -111.501 41.5s-44.5 64.5 -44.5 110.5z
M299 331h113l-195 -331h-114zM980 189v-45c0 -21.333 5 -38.666 15 -51.999s25.667 -20 47 -20h49c23.333 0 39.666 6.66699 48.999 20s14 30.666 14 51.999v45c0 22.667 -4.66699 41 -14 55s-25.666 21 -48.999 21h-49c-21.333 0 -37 -7 -47 -21s-15 -32.333 -15 -55z
M540 189v-45c0 -21.333 5 -38.666 15 -51.999s25.667 -20 47 -20h49c23.333 0 39.666 6.66699 48.999 20s14 30.666 14 51.999v45c0 22.667 -4.66699 41 -14 55s-25.666 21 -48.999 21h-49c-21.333 0 -37 -7 -47 -21s-15 -32.333 -15 -55z" />
    <glyph glyph-name="guilsinglleft" unicode="&#x2039;" horiz-adv-x="461" 
d="M371 258v-123l-254 168c-16.667 10.667 -28.667 22 -36 34s-11 23.333 -11 34v9c0 10.667 3.66699 22 11 34s19.333 23.333 36 34l254 168v-123l-191 -117z" />
    <glyph glyph-name="guilsinglright" unicode="&#x203a;" horiz-adv-x="461" 
d="M344 303l-254 -168v123l191 118l-191 117v123l254 -168c16.667 -10.667 28.667 -22 36 -34s11 -23.333 11 -34v-9c0 -10.667 -3.66699 -22 -11 -34s-19.333 -23.333 -36 -34z" />
    <glyph glyph-name="Euro" unicode="&#x20ac;" horiz-adv-x="856" 
d="M50 245v99.999h105v70h-105v100h113c13.333 72.667 45.833 130 97.5 172s126.5 63 224.5 63h326v-100h-341c-57.333 0 -100.666 -11.167 -129.999 -33.5s-47.666 -56.166 -54.999 -101.499h422v-100h-427v-70h427v-100h-424c6.66699 -48.667 24.667 -85 54 -109
s73.666 -36 132.999 -36h346v-100h-331c-100 0 -175.833 22 -227.5 66s-83.834 103.667 -96.501 179h-111z" />
    <glyph glyph-name="manat" unicode="&#x20bc;" horiz-adv-x="928" 
d="M629 500h-110.002v-400h-110v400h-110c-35.333 0 -60.666 -7.33301 -75.999 -22s-23 -41.667 -23 -81v-397h-110v385c0 70 17.333 123.333 52 160s89.667 55 165 55h102v150h110v-150h102c75.333 0 130.333 -18.333 165 -55s52 -90 52 -160v-385h-110v397
c0 39.333 -7.66699 66.333 -23 81s-40.666 22 -75.999 22z" />
    <glyph glyph-name="ruble" unicode="&#x20bd;" horiz-adv-x="856" 
d="M15 225h145v80h-145v100h145v345h382c36 0 70.5 -3.16699 103.5 -9.5s62.167 -17.333 87.5 -33s45.5 -37 60.5 -64s22.5 -60.833 22.5 -101.5v-29c0 -40.667 -7.5 -74.5 -22.5 -101.5s-35.167 -48.333 -60.5 -64s-54.5 -26.667 -87.5 -33s-67.5 -9.5 -103.5 -9.5h-267
v-80h285v-100h-285v-125h-115v125h-145v100zM275 650v-245h285c51.333 0 86.833 8.66699 106.5 26s29.5 44 29.5 80v33c0 36 -9.83301 62.667 -29.5 80s-55.167 26 -106.5 26h-285z" />
    <glyph glyph-name="numero" unicode="&#x2116;" horiz-adv-x="1523" 
d="M90 0v609.998c0 42.667 10.667 78.834 32 108.501s56.666 44.5 105.999 44.5c34.667 0 63.334 -10 86.001 -30s45.667 -49 69 -87l320 -517c6 -9.33301 12 -17 18 -23s12 -9 18 -9c8 0 14.333 2.83301 19 8.5s7 13.834 7 24.501v620h115v-617
c0 -44 -11.167 -79.333 -33.5 -106s-55.166 -40 -98.499 -40c-36.667 0 -66.167 9.66699 -88.5 29s-43.5 45 -63.5 77l-327 525c-6.66699 10.667 -12.334 19.167 -17.001 25.5s-11 9.5 -19 9.5c-10 0 -17.167 -3.33301 -21.5 -10s-6.5 -15.667 -6.5 -27v-616h-115z
M1473 517.998v-25c0 -75.333 -20.667 -133.666 -62 -174.999s-102 -62 -182 -62h-22c-83.333 0 -144.833 20.667 -184.5 62s-59.5 99.666 -59.5 174.999v25c0 75.333 19.833 133.833 59.5 175.5s101.167 62.5 184.5 62.5h22c80 0 140.667 -20.833 182 -62.5
s62 -100.167 62 -175.5zM1364 530.998c0 46 -8.83301 79.833 -26.5 101.5s-49.5 32.5 -95.5 32.5h-47c-44 0 -75.333 -10.833 -94 -32.5s-28 -55.5 -28 -101.5v-49c0 -47.333 9.33301 -81.666 28 -102.999s50 -32 94 -32h47c46 0 77.833 10.667 95.5 32
s26.5 55.666 26.5 102.999v49zM1010 91.998v96h416v-96h-416z" />
    <glyph glyph-name="trademark" unicode="&#x2122;" horiz-adv-x="721" 
d="M499 520c2.66699 0 4.83594 1 6.50293 3s2.83398 4.66699 3.50098 8l28 172c3.33301 22 12 37.5 26 46.5s30.333 13.5 49 13.5c23.333 0 41.5 -6 54.5 -18s19.5 -29 19.5 -51v-232h-66v221c0 5.33301 -0.5 9.5 -1.5 12.5s-3.83301 4.5 -8.5 4.5
c-4 0 -6.83301 -1.5 -8.5 -4.5s-2.83398 -6.83301 -3.50098 -11.5l-30 -166c-4.66699 -24 -13.334 -40.167 -26.001 -48.5s-27.334 -12.5 -44.001 -12.5c-15.333 0 -29.5 4.16699 -42.5 12.5s-21.833 24.5 -26.5 48.5l-30 166c-0.666992 4.66699 -1.83398 8.5 -3.50098 11.5
s-4.5 4.5 -8.5 4.5c-3.33301 0 -5.83301 -1.5 -7.5 -4.5s-2.5 -7.16699 -2.5 -12.5v-221h-66v232c0 22 6.66699 39 20 51s31.333 18 54 18c19.333 0 35.833 -4.5 49.5 -13.5s22.167 -24.5 25.5 -46.5l28 -172c0.666992 -4 2 -6.83301 4 -8.5s4.33301 -2.5 7 -2.5z
M103.002 462v236h-93v57h251v-57h-93v-236h-65z" />
    <glyph glyph-name="onethird" unicode="&#x2153;" horiz-adv-x="840" 
d="M574 419h-108l155 331h109zM100 419v69.999h82v171c0 4.66699 -1.16699 8.33398 -3.5 11.001s-5.5 4 -9.5 4h-69v75h89c24.667 0 45 -8 61 -24s24 -35.667 24 -59v-178h81v-70h-255zM539 201.999l74 56.0029h-150v74h277v-60l-110 -80c42 0 70.833 -7.33301 86.5 -22
s23.5 -31.334 23.5 -50.001v-32c0 -28.667 -10.833 -50.334 -32.5 -65.001s-53.5 -22 -95.5 -22h-142v74h153c8 0 14 1.5 18 4.5s6 9.5 6 19.5v10c0 9.33301 -2.16699 15.333 -6.5 18s-9.83301 4 -16.5 4h-78c-12 0 -21 3.16699 -27 9.5s-9 14.166 -9 23.499
c0 8.66699 2.66699 15.667 8 21s12.333 11 21 17zM281 331.002h108l-155 -331h-109z" />
    <glyph glyph-name="arrowleft" unicode="&#x2190;" horiz-adv-x="734" 
d="M694 425l-0.000976562 -100h-528l349 -326h-148l-260 245c-27.333 26 -47 48.5 -59 67.5s-18 39.833 -18 62.5s6.33301 44 19 64s32.334 42.667 59.001 68l259 244h148l-348 -325h527z" />
    <glyph glyph-name="arrowup" unicode="&#x2191;" horiz-adv-x="871" 
d="M493 0h-115.002v616l-338 -336v144l265 260c26.667 26.667 49.334 46.167 68.001 58.5s39.334 18.5 62.001 18.5s43.667 -6.5 63 -19.5s42.333 -32.5 69 -58.5l264 -259v-144l-338 337v-617z" />
    <glyph glyph-name="arrowright" unicode="&#x2192;" horiz-adv-x="734" 
d="M219 -1l348.001 325h-527v100h528l-349 326h148l260 -245c27.333 -26 47 -48.5 59 -67.5s18 -39.833 18 -62.5s-6.33301 -44 -19 -64s-32.334 -42.667 -59.001 -68l-259 -244h-148z" />
    <glyph glyph-name="arrowdown" unicode="&#x2193;" horiz-adv-x="871" 
d="M493 750l0.00195312 -617l338 337v-144l-264 -259c-26.667 -26 -49.667 -45.5 -69 -58.5s-40.333 -19.5 -63 -19.5s-43.334 6.16699 -62.001 18.5s-41.334 31.833 -68.001 58.5l-265 260v144l338 -336v616h115z" />
    <glyph glyph-name="arrowNW" unicode="&#x2196;" horiz-adv-x="828" 
d="M768 129l-79.999 -79l-483 484v-484h-105v488c0 36 2.33301 64.833 7 86.5s14.667 40.167 30 55.5c15.333 16 34.166 26.167 56.499 30.5s51.5 6.5 87.5 6.5h487v-105h-484z" />
    <glyph glyph-name="arrowNE" unicode="&#x2197;" horiz-adv-x="828" 
d="M60 129l484.001 483h-484v105h487c36 0 65.167 -2.16699 87.5 -6.5s41.166 -14.5 56.499 -30.5c15.333 -15.333 25.333 -33.833 30 -55.5s7 -50.5 7 -86.5v-488h-105v484l-483 -484z" />
    <glyph glyph-name="arrowSE" unicode="&#x2198;" horiz-adv-x="828" 
d="M60 138h483.999l-484 483l80 79l483 -484v484h105v-488c0 -36 -2.33301 -64.833 -7 -86.5s-14.667 -40.167 -30 -55.5c-15.333 -16 -34.166 -26.167 -56.499 -30.5s-51.5 -6.5 -87.5 -6.5h-487v105z" />
    <glyph glyph-name="arrowSW" unicode="&#x2199;" horiz-adv-x="828" 
d="M768 138l-0.000976562 -105h-487c-36 0 -65.167 2.16699 -87.5 6.5s-41.166 14.5 -56.499 30.5c-15.333 15.333 -25.333 33.833 -30 55.5s-7 50.5 -7 86.5v488h105v-484l483 484l80 -79l-484 -483h484z" />
    <glyph glyph-name="minus" unicode="&#x2212;" horiz-adv-x="486" 
d="M50 325v100h386v-100h-386z" />
    <glyph glyph-name="squareblack" unicode="&#x25a0;" horiz-adv-x="670" 
d="M579 132h-487v487h487v-487z" />
    <glyph glyph-name="triangleupblack" unicode="&#x25b2;" horiz-adv-x="691" 
d="M86 186l259 449l260 -449h-519z" />
    <glyph glyph-name="trianglerightblack" unicode="&#x25b6;" horiz-adv-x="610" 
d="M86 635l449 -259l-449 -260v519z" />
    <glyph glyph-name="triangledownblack" unicode="&#x25bc;" horiz-adv-x="691" 
d="M86 584h519l-260 -449z" />
    <glyph glyph-name="triangleleftblack" unicode="&#x25c0;" horiz-adv-x="610" 
d="M524 635v-519l-449 260z" />
    <glyph glyph-name="circleblack" unicode="&#x25cf;" horiz-adv-x="723" 
d="M361 114c-37.333 0 -72.5 6.5 -105.5 19.5s-61.667 31 -86 54s-43.666 50.5 -57.999 82.5s-21.5 66.667 -21.5 104s7.16699 72.166 21.5 104.499s33.666 60.166 57.999 83.499s53 41.666 86 54.999s68.167 20 105.5 20s72.5 -6.66699 105.5 -20
s61.833 -31.666 86.5 -54.999s44.167 -51.166 58.5 -83.499s21.5 -67.166 21.5 -104.499s-7.16699 -72 -21.5 -104s-33.833 -59.5 -58.5 -82.5s-53.5 -41 -86.5 -54s-68.167 -19.5 -105.5 -19.5z" />
    <glyph glyph-name="commaaccent" unicode="&#xf6c3;" horiz-adv-x="637" 
d="M247 -188c10.667 32 17.667 55.333 21 70s5 32.334 5 53.001v25h92v-25c0 -20.667 -1.66699 -38.334 -5 -53.001s-11.333 -38 -24 -70h-89z" />
    <glyph glyph-name="twothird" horiz-adv-x="840" 
d="M574 419h-108l155 331h109zM373 491l0.000976562 -72.001h-273v54c0 29.333 7 53 21 71s40.333 37.333 79 58l63 32c6.66699 3.33301 11.5 6.83301 14.5 10.5s4.5 7.83398 4.5 12.501c0 8 -2.83301 13.333 -8.5 16s-12.834 4 -21.501 4h-145v73h153
c40 0 69.5 -7.33301 88.5 -22s28.5 -34.334 28.5 -59.001c0 -28.667 -8.5 -50.167 -25.5 -64.5s-41.5 -30.166 -73.5 -47.499l-55 -30c-10 -5.33301 -16.333 -10 -19 -14s-4 -8.66699 -4 -14v-8h173zM539.001 201.999l74 56.0029h-150v74h277v-60l-110 -80
c42 0 70.833 -7.33301 86.5 -22s23.5 -31.334 23.5 -50.001v-32c0 -28.667 -10.833 -50.334 -32.5 -65.001s-53.5 -22 -95.5 -22h-142v74h153c8 0 14 1.5 18 4.5s6 9.5 6 19.5v10c0 9.33301 -2.16699 15.333 -6.5 18s-9.83301 4 -16.5 4h-78c-12 0 -21 3.16699 -27 9.5
s-9 14.166 -9 23.499c0 8.66699 2.66699 15.667 8 21s12.333 11 21 17zM281.001 331.002h108l-155 -331h-109z" />
    <glyph glyph-name="threequarter" horiz-adv-x="840" 
d="M574 419h-108l155 331h109zM176 620l74 56.0029h-150v74h277v-60l-110 -80c42 0 70.833 -7.33301 86.5 -22s23.5 -31.334 23.5 -50.001v-32c0 -28.667 -10.833 -50.334 -32.5 -65.001s-53.5 -22 -95.5 -22h-142v74h153c8 0 14 1.5 18 4.5s6 9.5 6 19.5v10
c0 9.33301 -2.16699 15.333 -6.5 18s-9.83301 4 -16.5 4h-78c-12 0 -21 3.16699 -27 9.5s-9 14.166 -9 23.499c0 8.66699 2.66699 15.667 8 21s12.333 11 21 17zM479 49.0029c-28 0 -48.667 5.66699 -62 17s-20 25.666 -20 42.999c0 11.333 2.83301 22.833 8.5 34.5
s15.167 25.834 28.5 42.501l76 96c12.667 16 26.667 28.833 42 38.5s32 14.5 50 14.5h13c20.667 0 38.167 -6.5 52.5 -19.5s21.5 -33.5 21.5 -61.5v-135h51v-70h-51v-49h-90v49h-120zM281 331.003h108l-155 -331h-109zM507 119.003h91.9971v127
c0 2.66699 -0.666992 4.5 -2 5.5s-3 1.5 -5 1.5c-1.33301 0 -2.66602 -0.333008 -3.99902 -1s-2.66602 -1.66699 -3.99902 -3l-85 -113c-1.33301 -1.33301 -2.33301 -2.83301 -3 -4.5s-1 -3.16699 -1 -4.5c0 -2 0.833008 -3.83301 2.5 -5.5s4.83398 -2.5 9.50098 -2.5z" />
    <glyph glyph-name="caron.alt" horiz-adv-x="256" 
d="M41 520l32 230h95l-32 -230h-95z" />
    <glyph glyph-name="zero.tnum" 
d="M725 315c0 -49.333 -6.16699 -94.166 -18.5 -134.499s-31.5 -74.666 -57.5 -102.999s-59.333 -50.333 -100 -66s-88.667 -23.5 -144 -23.5h-30c-56 0 -104.167 7.83301 -144.5 23.5s-73.5 37.667 -99.5 66s-45.167 62.666 -57.5 102.999s-18.5 85.166 -18.5 134.499v120
c0 50 6.16699 95.167 18.5 135.5s31.5 74.833 57.5 103.5s59.167 50.667 99.5 66s88.5 23 144.5 23h30c55.333 0 103.333 -7.66699 144 -23s74 -37.333 100 -66s45.167 -63.167 57.5 -103.5s18.5 -85.5 18.5 -135.5v-120zM180 288c0 -66.667 13.833 -116.667 41.5 -150
s73.834 -50 138.501 -50h60c65.333 0 111.666 16.667 138.999 50s41 83.333 41 150v175c0 67.333 -13.667 117.5 -41 150.5s-73.666 49.5 -138.999 49.5h-60c-64.667 0 -110.834 -16.5 -138.501 -49.5s-41.5 -83.167 -41.5 -150.5v-175z" />
    <glyph glyph-name="one.tnum" 
d="M80 0v99.999h277v517c0 10.667 -2.5 18.834 -7.5 24.501s-12.5 8.5 -22.5 8.5h-234v100h252c44.667 0 77 -11 97 -33s30 -55 30 -99v-518h250v-100h-642z" />
    <glyph glyph-name="two.tnum" 
d="M698 100l-0.00292969 -100h-617v123c0 42 10.167 79 30.5 111s53.5 61.333 99.5 88l296 168c26.667 14.667 46.5 28.667 59.5 42s19.5 30.333 19.5 51c0 18 -6 33.667 -18 47s-33.333 20 -64 20h-414v100h418c68.667 0 118.834 -15.5 150.501 -46.5
s47.5 -70.5 47.5 -118.5c0 -48.667 -12.667 -85.834 -38 -111.501s-57.666 -49.167 -96.999 -70.5l-306 -168c-21.333 -11.333 -38.166 -24.666 -50.499 -39.999s-18.5 -32.333 -18.5 -51v-44h502z" />
    <glyph glyph-name="three.tnum" 
d="M217 435l279.999 214.998h-411v100h606v-80l-316 -244h88c77.333 0 135.166 -14.5 173.499 -43.5s57.5 -69.833 57.5 -122.5v-83c0 -69.333 -22.833 -116.166 -68.5 -140.499s-112.167 -36.5 -199.5 -36.5h-331v100h364c46.667 0 78.834 7 96.501 21s26.5 34.667 26.5 62
v53c0 27.333 -8.83301 49.833 -26.5 67.5s-50.5 26.5 -98.5 26.5h-208c-16.667 0 -30.667 3.5 -42 10.5s-18.333 15.5 -21 25.5c-3.33301 12 -2.66602 23.833 2.00098 35.5s14 22.834 28 33.501z" />
    <glyph glyph-name="four.tnum" 
d="M155 148c-44.667 0 -76.667 10.168 -96 30.501s-29 45.166 -29 74.499c0 18 3.83301 35.333 11.5 52s19.834 34.334 36.501 53.001l259 297c34 39.333 63.667 67.166 89 83.499s53 24.5 83 24.5h7c39.333 0 69.666 -12 90.999 -36s32 -61.667 32 -113v-364h118v-102h-118
v-148h-115v148h-369zM180 250.001h343.998v378c0 10.667 -1.83301 18.667 -5.5 24s-10.5 8 -20.5 8c-8 0 -15.167 -2.5 -21.5 -7.5s-12.833 -11.5 -19.5 -19.5l-292 -330c-5.33301 -6 -9.16602 -11 -11.499 -15s-3.5 -9 -3.5 -15c0 -7.33301 2.33301 -13 7 -17
s12.334 -6 23.001 -6z" />
    <glyph glyph-name="five.tnum" 
d="M463 449c74.667 0 131.5 -14.499 170.5 -43.499s58.5 -82.167 58.5 -159.5v-50c0 -73.333 -23.833 -124.333 -71.5 -153s-114.167 -43 -199.5 -43h-314v100h342c45.333 0 78 7.66699 98 23s30 37.666 30 66.999v69c0 28 -10 50 -30 66s-52.667 24 -98 24h-342v401h585
v-100h-470v-201h241z" />
    <glyph glyph-name="six.tnum" 
d="M475 439c74.667 0 131.501 -14.5 170.501 -43.5s58.5 -82.167 58.5 -159.5v-53c0 -73.333 -23.833 -124.333 -71.5 -153s-114.167 -43 -199.5 -43h-43c-112.667 0 -193.167 22.833 -241.5 68.5s-72.5 119.5 -72.5 221.5v145c0 50 6.16699 95.167 18.5 135.5
s31.666 74.833 57.999 103.5s60.5 50.667 102.5 66s92.333 23 151 23h275v-100h-290c-73.333 0 -125 -16.5 -155 -49.5s-45 -83.167 -45 -150.5v-11h284zM375.001 87l77 0.000976562c54 0 91.167 7.66699 111.5 23s30.5 37.666 30.5 66.999v72c0 28 -7.5 50 -22.5 66
s-45.167 24 -90.5 24h-290v-89c0 -64.667 14 -108 42 -130s75.333 -33 142 -33z" />
    <glyph glyph-name="seven.tnum" 
d="M318 0h-132l378 598c4 6 7 11.5 9 16.5s3 10.167 3 15.5c0 6.66699 -2.33301 11.667 -7 15s-11.334 5 -20.001 5h-478v100h497c42.667 0 73.834 -9 93.501 -27s29.5 -43.333 29.5 -76c0 -16 -3.5 -33.5 -10.5 -52.5s-16.5 -38.167 -28.5 -57.5z" />
    <glyph glyph-name="eight.tnum" 
d="M84 566c0 31.333 4.32812 58.667 12.9951 82s23.834 42.5 45.501 57.5s50.834 26.167 87.501 33.5s82.334 11 137.001 11h35c54.667 0 100.334 -3.66699 137.001 -11s65.834 -18.5 87.501 -33.5s36.834 -34.167 45.501 -57.5s13 -50.666 13 -81.999v-27
c0 -40 -9 -73.5 -27 -100.5s-49 -46.833 -93 -59.5c49.333 -12.667 85.166 -31.834 107.499 -57.501s33.5 -57.167 33.5 -94.5v-39c0 -60 -21.167 -106.333 -63.5 -139s-115.833 -49 -220.5 -49h-75c-104.667 -0 -178.167 16.333 -220.5 49s-63.5 79 -63.5 139v36
c0 39.333 11.167 72 33.5 98s57.833 45 106.5 57c-44 13.333 -74.833 33.333 -92.5 60s-26.5 60 -26.5 100v27zM569.995 556.001c0 32.667 -11.333 56.5 -34 71.5s-56 22.5 -100 22.5h-103c-44 0 -77.333 -7.5 -100 -22.5s-34 -38.833 -34 -71.5v-37
c0 -32.667 10.5 -56 31.5 -70s54.833 -21 101.5 -21h105c46.667 0 80.5 7 101.5 21s31.5 37.333 31.5 70v37zM590.995 234.001c0 29.333 -12.002 53 -36.002 71s-63.333 27 -118 27h-105c-60 0 -100.667 -9 -122 -27s-32 -41.667 -32 -71v-37c0 -14.667 2.16699 -28 6.5 -40
s12.333 -22.167 24 -30.5s27.834 -14.833 48.501 -19.5s47.334 -7 80.001 -7h95c60 0 101.5 9 124.5 27s34.5 41.333 34.5 70v37z" />
    <glyph glyph-name="nine.tnum" 
d="M305 311c-74.667 0 -131.501 14.5 -170.501 43.5s-58.5 82.167 -58.5 159.5v53c0 73.333 23.833 124.333 71.5 153s114.167 43 199.5 43h43c112.667 0 193.167 -22.833 241.5 -68.5s72.5 -119.5 72.5 -221.5v-145c0 -50 -6.16699 -95.167 -18.5 -135.5
s-31.666 -74.833 -57.999 -103.5s-60.5 -50.667 -102.5 -66s-92.333 -23 -151 -23h-275v100h290c73.333 0 125 16.5 155 49.5s45 83.167 45 150.5v11h-284zM298.999 411l290 -0.000976562v89c0 64.667 -14 108 -42 130s-75.333 33 -142 33h-77
c-54 0 -91.167 -7.66699 -111.5 -23s-30.5 -37.666 -30.5 -66.999v-72c0 -28 7.5 -50 22.5 -66s45.167 -24 90.5 -24z" />
    <glyph glyph-name="space.tnum" horiz-adv-x="390" 
 />
    <glyph glyph-name="Euro.tnum" 
d="M42 245v99.999h105v70h-105v100h113c13.333 72.667 45.833 130 97.5 172s126.5 63 224.5 63h266v-100h-281c-57.333 0 -100.666 -11.167 -129.999 -33.5s-47.666 -56.166 -54.999 -101.499h392v-100h-397v-70h397v-100h-394c6.66699 -48.667 24.667 -85 54 -109
s73.666 -36 132.999 -36h286v-100h-271c-100 0 -175.833 22 -227.5 66s-83.834 103.667 -96.501 179h-111z" />
    <glyph glyph-name="dollar.tnum" 
d="M353 -100v100h-259v100h259v240l-74 20c-65.333 18 -115.833 42 -151.5 72s-53.5 73 -53.5 129s21.167 101.5 63.5 136.5s106.833 52.5 193.5 52.5h22v100h100v-100h228v-100h-228v-227l47 -13c66 -18.667 116.833 -43.5 152.5 -74.5s53.5 -74.167 53.5 -129.5
c0 -62 -20.833 -111.833 -62.5 -149.5s-105.167 -56.5 -190.5 -56.5v-100h-100zM310 464l43 -11.998v198h-35c-48 0 -81.167 -8.33301 -99.5 -25s-27.5 -36.334 -27.5 -59.001c0 -26 8.5 -46.333 25.5 -61s48.167 -28.334 93.5 -41.001zM469 308.002l-16 3.99902v-212h11
c44 0 76.167 8.66699 96.5 26s30.5 40.666 30.5 69.999c0 30.667 -8.5 53.834 -25.5 69.501s-49.167 29.834 -96.5 42.501z" />
    <glyph glyph-name="cent.tnum" 
d="M398 -150v150h-41c-76.667 0 -138.834 21 -186.501 63s-71.5 104.667 -71.5 188v98c0 83.333 23.833 146 71.5 188s109.834 63 186.501 63h41v150h100v-150h183v-95h-183v-410h183v-95h-183v-150h-100zM362 505c-52.667 0 -90.5 -10.168 -113.5 -30.501
s-34.5 -57.166 -34.5 -110.499v-127c0 -54 11.5 -91.167 34.5 -111.5s60.833 -30.5 113.5 -30.5h36v410h-36z" />
    <glyph glyph-name="sterling.tnum" 
d="M72 0l-0.000976562 100.001h145v225h-145v100h145c0 49.333 6.33301 94.166 19 134.499s32.167 74.5 58.5 102.5s60.333 49.667 102 65s91.834 23 150.501 23h151v-100h-166c-69.333 0 -118.333 -16.5 -147 -49.5s-43 -83.167 -43 -150.5v-25h356v-100h-356v-225h356
v-100h-626z" />
    <glyph glyph-name="yen.tnum" 
d="M82 95v100h251v70h-251v100h191l-243 385h137l205 -354c4 -6.66699 10.167 -10 18.5 -10s14.5 3.33301 18.5 10l211 354h130l-243 -385h192v-100h-251v-70h251v-100h-251v-95h-115v95h-251z" />
    <glyph glyph-name="ruble.tnum" 
d="M17 225h145v80h-145v100h145v345h302c36 0 70.5 -3.16699 103.5 -9.5s62.167 -17.333 87.5 -33s45.5 -37 60.5 -64s22.5 -60.833 22.5 -101.5v-29c0 -40.667 -7.5 -74.5 -22.5 -101.5s-35.167 -48.333 -60.5 -64s-54.5 -26.667 -87.5 -33s-67.5 -9.5 -103.5 -9.5h-187
v-80h205v-100h-205v-125h-115v125h-145v100zM277 650v-245h205c51.333 0 86.833 8.66699 106.5 26s29.5 44 29.5 80v33c0 36 -9.83301 62.667 -29.5 80s-55.167 26 -106.5 26h-205z" />
    <glyph glyph-name="manat.tnum" 
d="M555 500h-110.002v-400h-110v400h-110c-35.333 0 -60.666 -7.33301 -75.999 -22s-23 -41.667 -23 -81v-397h-110v385c0 70 17.333 123.333 52 160s89.667 55 165 55h102v150h110v-150h102c75.333 0 130.333 -18.333 165 -55s52 -90 52 -160v-385h-110v397
c0 39.333 -7.66699 66.333 -23 81s-40.666 22 -75.999 22z" />
    <glyph glyph-name="percent.tnum" 
d="M31 554v57c0 46 13.5 82.833 40.5 110.5s62.167 41.5 105.5 41.5h60c40.667 0 75.167 -13.833 103.5 -41.5s42.5 -64.5 42.5 -110.5v-57c0 -46 -14.167 -82.833 -42.5 -110.5s-62.833 -41.5 -103.5 -41.5h-60c-43.333 0 -78.5 13.833 -105.5 41.5s-40.5 64.5 -40.5 110.5
zM523 419h-113l165 331h114zM135 603v-45c0 -21.333 3.66699 -38.666 11 -51.999s21 -20 41 -20h39c21.333 0 35.5 6.66699 42.5 20s10.5 30.666 10.5 51.999v45c0 22.667 -3.5 41 -10.5 55s-21.167 21 -42.5 21h-39c-20 0 -33.667 -7 -41 -21s-11 -32.333 -11 -55zM397 140
v57c0 46 13.5 82.833 40.5 110.5s62.167 41.5 105.5 41.5h60c40.667 0 75.167 -13.833 103.5 -41.5s42.5 -64.5 42.5 -110.5v-57c0 -46 -14.167 -82.833 -42.5 -110.5s-62.833 -41.5 -103.5 -41.5h-60c-43.333 0 -78.5 13.833 -105.5 41.5s-40.5 64.5 -40.5 110.5zM260 331
h113l-165 -331h-114zM501 189v-45c0 -21.333 3.66699 -38.666 11 -51.999s21 -20 41 -20h39c21.333 0 35.5 6.66699 42.5 20s10.5 30.666 10.5 51.999v45c0 22.667 -3.5 41 -10.5 55s-21.167 21 -42.5 21h-39c-20 0 -33.667 -7 -41 -21s-11 -32.333 -11 -55z" />
    <glyph glyph-name="plus.tnum" 
d="M167 325v100h173v173h100v-173h173v-100h-173v-173h-100v173h-173z" />
    <glyph glyph-name="minus.tnum" 
d="M197 325v100h386v-100h-386z" />
    <glyph glyph-name="plusminus.tnum" 
d="M167 410v100h173v143h100v-143h173v-100h-173v-143h-100v143h-173zM197 100v100h386v-100h-386z" />
    <glyph glyph-name="multiply.tnum" 
d="M176 519l70 70l144 -144l144 144l70 -70l-144 -144l144 -144l-70 -70l-144 144l-144 -144l-70 70l144 144z" />
    <glyph glyph-name="divide.tnum" 
d="M328 515v125h125v-125h-125zM187 325v100h406v-100h-406zM328 110v125h125v-125h-125z" />
    <glyph glyph-name="equal.tnum" 
d="M187 425v100h406v-100h-406zM187 225v100h406v-100h-406z" />
    <glyph glyph-name="less.tnum" 
d="M540 258v-123l-254 168c-16.667 10.667 -28.667 22 -36 34s-11 23.333 -11 34v9c0 10.667 3.66699 22 11 34s19.333 23.333 36 34l254 168v-123l-191 -117z" />
    <glyph glyph-name="greater.tnum" 
d="M493 303l-254 -168v123l191 118l-191 117v123l254 -168c16.667 -10.667 28.667 -22 36 -34s11 -23.333 11 -34v-9c0 -10.667 -3.66699 -22 -11 -34s-19.333 -23.333 -36 -34z" />
    <glyph glyph-name="period.tnum" horiz-adv-x="390" 
d="M133 0v125h125v-125h-125z" />
    <glyph glyph-name="comma.tnum" horiz-adv-x="390" 
d="M103 -130l20.502 65.999c5 16.667 8.66699 30.667 11 42s3.83301 21.5 4.5 30.5s1 19.5 1 31.5v115h112v-115c0 -12 -0.333008 -22.667 -1 -32s-2.33398 -19.666 -5.00098 -30.999s-6.83398 -25.333 -12.501 -42l-22.5 -65h-108z" />
    <glyph glyph-name="colon.tnum" horiz-adv-x="390" 
d="M258 475h-125v125h125v-125zM258 0h-125v125h125v-125z" />
    <glyph glyph-name="semicolon.tnum" horiz-adv-x="390" 
d="M133 475v125h125v-125h-125zM103 -130l20.502 65.999c5 16.667 8.66699 30.667 11 42s3.83301 21.5 4.5 30.5s1 19.5 1 31.5v115h112v-115c0 -12 -0.333008 -22.667 -1 -32s-2.33398 -19.666 -5.00098 -30.999s-6.83398 -25.333 -12.501 -42l-22.5 -65h-108z" />
    <glyph glyph-name="numbersign.tnum" 
d="M693 303v-93h-172l-55 -210h-105l55 210h-140l-55 -210h-105l55 210h-148v93h172l45 173h-154v94h178l52 200h105l-52 -200h140l52 200h105l-52 -200h142v-94h-166l-45 -173h148zM300 303h140l45 173h-140z" />
    <glyph glyph-name="slash.tnum" horiz-adv-x="390" 
d="M240 750h110l-200 -860h-110z" />
    <glyph glyph-name="c.long" horiz-adv-x="607" 
d="M318 505c-52.667 0 -90.5 -10.168 -113.5 -30.501s-34.5 -57.166 -34.5 -110.499v-127c0 -54 11.5 -91.167 34.5 -111.5s60.833 -30.5 113.5 -30.5h259v-95h-264c-76.667 0 -138.834 21 -186.501 63s-71.5 104.667 -71.5 188v98c0 83.333 23.833 146 71.5 188
s109.834 63 186.501 63h394v-95h-389z" />
    <glyph glyph-name="f.long" horiz-adv-x="385" 
d="M112 0v505h-97v95h97v9c0 56 14.833 96.833 44.5 122.5s72.5 38.5 128.5 38.5h160v-87h-159c-24 0 -41.333 -4.83301 -52 -14.5s-16 -27.167 -16 -52.5v-16h237v-95h-233v-505h-110z" />
    <glyph glyph-name="k.alt1" horiz-adv-x="684" 
d="M80 0v750h110v-582l350 432h134l-407 -499h401v-101h-588z" />
    <glyph glyph-name="r.long" horiz-adv-x="365" 
d="M80 415c0 60.667 19.167 106.668 57.5 138.001s86.833 47 145.5 47h154v-95h-159c-31.333 0 -53.833 -5.83301 -67.5 -17.5s-20.5 -32.834 -20.5 -63.501v-424h-110v415z" />
    <glyph glyph-name="s.long1" horiz-adv-x="617" 
d="M371 239l-146.999 31c-56 12 -99.833 30.833 -131.5 56.5s-47.5 61.834 -47.5 108.501c0 49.333 17.167 89.166 51.5 119.499s90.5 45.5 168.5 45.5h422v-95h-442c-34 0 -57 -6.33301 -69 -19s-18 -27.667 -18 -45c0 -18.667 6.33301 -33.5 19 -44.5
s35.667 -19.833 69 -26.5l145 -30c62 -12.667 110.167 -31.167 144.5 -55.5s51.5 -61.5 51.5 -111.5c0 -52 -18.333 -93.833 -55 -125.5s-99.334 -47.5 -188.001 -47.5h-279v95h305c42 0 70.333 6.5 85 19.5s22 29.833 22 50.5c0 20 -7.66699 35.167 -23 45.5
s-43 19.833 -83 28.5z" />
    <glyph glyph-name="s.long2" horiz-adv-x="602" 
d="M346 239l-146.999 31c-56 12 -99.833 30.833 -131.5 56.5s-47.5 61.834 -47.5 108.501c0 49.333 17.167 89.166 51.5 119.499s90.5 45.5 168.5 45.5h292v-95h-312c-34 0 -57 -6.33301 -69 -19s-18 -27.667 -18 -45c0 -18.667 6.33301 -33.5 19 -44.5
s35.667 -19.833 69 -26.5l145 -30c62 -12.667 110.167 -31.167 144.5 -55.5s51.5 -61.5 51.5 -111.5c0 -52 -18.333 -93.833 -55 -125.5s-99.334 -47.5 -188.001 -47.5h-449v95h475c42 0 70.333 6.5 85 19.5s22 29.833 22 50.5c0 20 -7.66699 35.167 -23 45.5
s-43 19.833 -83 28.5z" />
    <glyph glyph-name="t.long" horiz-adv-x="470" 
d="M15 505v95h100v117h107v-117h353v-95h-353v-343c0 -25.333 5.33301 -42.833 16 -52.5s28 -14.5 52 -14.5h155v-95h-160c-56 -0 -98.833 12.833 -128.5 38.5s-44.5 66.5 -44.5 122.5v344h-97z" />
    <glyph glyph-name="w.alt1" horiz-adv-x="1070" 
d="M590 600l0.00195312 -500h290v500h110v-600h-694c-74.667 0 -129.334 19 -164.001 57s-52 86.667 -52 146v397h110v-402c0 -37.333 7.66699 -63 23 -77s40.666 -21 75.999 -21h191v500h110z" />
    <glyph glyph-name="x.alt1" horiz-adv-x="819" 
d="M204 505h-149v95h154c42 0 80.167 -6.33301 114.5 -19s62.833 -32 85.5 -58c22.667 26 51.334 45.333 86.001 58s73 19 115 19h154v-95h-149c-52.667 0 -90.5 -10.167 -113.5 -30.5s-34.5 -57.166 -34.5 -110.499v-127c0 -54 11.5 -91.167 34.5 -111.5
s60.833 -30.5 113.5 -30.5h149v-95h-154c-42 0 -80.167 6.33301 -114.5 19s-62.833 32 -85.5 58c-22.667 -26 -51.334 -45.333 -86.001 -58s-73 -19 -115 -19h-154v95h149c52.667 0 90.5 10.167 113.5 30.5s34.5 57.5 34.5 111.5v127c0 53.333 -11.5 90.166 -34.5 110.499
s-60.833 30.5 -113.5 30.5z" />
    <glyph glyph-name="x.long" horiz-adv-x="799" 
d="M204 505h-149v95h154c42 0 80.167 -6.33301 114.5 -19s62.833 -32 85.5 -58c22.667 26 51.334 45.333 86.001 58s73 19 115 19h304v-95h-299c-52.667 0 -90.5 -10.167 -113.5 -30.5s-34.5 -57.166 -34.5 -110.499v-127c0 -54 11.5 -91.167 34.5 -111.5
s60.833 -30.5 113.5 -30.5h149v-95h-154c-42 0 -80.167 6.33301 -114.5 19s-62.833 32 -85.5 58c-22.667 -26 -51.334 -45.333 -86.001 -58s-73 -19 -115 -19h-154v95h149c52.667 0 90.5 10.167 113.5 30.5s34.5 57.5 34.5 111.5v127c0 53.333 -11.5 90.166 -34.5 110.499
s-60.833 30.5 -113.5 30.5z" />
    <glyph glyph-name="y.alt1" horiz-adv-x="681" 
d="M158 600l333 -456v5v451h110v-413c0 -34.667 -5.83301 -64 -17.5 -88s-27 -43.333 -46 -58s-40.833 -25.167 -65.5 -31.5s-50 -9.5 -76 -9.5h-360v95h356l-372 505h138z" />
    <glyph glyph-name="A.alt1" horiz-adv-x="820" 
d="M10 0l312 583c28.667 54 60.5 95.333 95.5 124s84.167 43 147.5 43h165v-750h-115v201h-372l-104 -201h-129zM422 545l-126 -241.999h319v347h-47c-38 0 -66.667 -7.83301 -86 -23.5s-39.333 -42.834 -60 -81.501z" />
    <glyph glyph-name="A.alt2" horiz-adv-x="820" 
d="M810 0h-129l-104 201h-372v-201h-115v750h165c63.333 0 112.5 -14.333 147.5 -43s66.833 -70 95.5 -124zM205 650v-347.001h319l-126 242c-20.667 38.667 -40.667 65.834 -60 81.501s-48 23.5 -86 23.5h-47z" />
    <glyph glyph-name="A.alt3" horiz-adv-x="787" 
d="M697 553l0.000976562 -552.999h-455c-63.333 0 -113 13.833 -149 41.5s-54 71.5 -54 131.5c0 42 14.333 79.167 43 111.5s66.667 67.166 114 104.499l328 261h-463v100h429c69.333 0 121.166 -17.833 155.499 -53.5s51.5 -83.5 51.5 -143.5zM237.001 100.001h349.999v469
l-334 -265c-34.667 -28 -60 -50 -76 -66s-24 -36.333 -24 -61c0 -26.667 8.33301 -46.167 25 -58.5s36.334 -18.5 59.001 -18.5z" />
    <glyph glyph-name="C.long" horiz-adv-x="721" 
d="M656 100v-100h-271c-58.667 0 -109 7.66699 -151 23s-76.167 37.333 -102.5 66s-45.666 63.167 -57.999 103.5s-18.5 85.5 -18.5 135.5v94c0 50 6.16699 95.167 18.5 135.5s31.666 74.833 57.999 103.5s60.5 50.667 102.5 66s92.333 23 151 23h406v-100h-421
c-69.333 0 -118.333 -16.5 -147 -49.5s-43 -83.167 -43 -150.5v-150c0 -67.333 14.333 -117.5 43 -150.5s77.667 -49.5 147 -49.5h286z" />
    <glyph glyph-name="D.alt1" horiz-adv-x="815" 
d="M90 537l114.999 -0.00195312v-437h235c69.333 0 122.5 14.5 159.5 43.5s55.5 77.167 55.5 144.5v175c0 67.333 -18.167 115.333 -54.5 144s-88.166 43 -155.499 43h-595v100h580c112 0 198.333 -27.667 259 -83s91 -132.666 91 -231.999v-120
c0 -99.333 -29.833 -176.666 -89.5 -231.999s-148.167 -83 -265.5 -83h-335v537z" />
    <glyph glyph-name="D.alt2" horiz-adv-x="815" 
d="M90 537l114.999 -0.00195312v-437h235c69.333 0 122.5 14.5 159.5 43.5s55.5 77.167 55.5 144.5v175c0 67.333 -18.167 115.333 -54.5 144s-88.166 43 -155.499 43h-355v100h340c112 0 198.333 -27.667 259 -83s91 -132.666 91 -231.999v-120
c0 -99.333 -29.833 -176.666 -89.5 -231.999s-148.167 -83 -265.5 -83h-335v537z" />
    <glyph glyph-name="E.alt1" horiz-adv-x="768" 
d="M701 100v-100h-316c-58.667 0 -109 7.66699 -151 23s-76.167 37.333 -102.5 66s-45.666 63.167 -57.999 103.5s-18.5 85.5 -18.5 135.5v94c0 50 6.16699 95.167 18.5 135.5s31.666 74.833 57.999 103.5s60.5 50.667 102.5 66s92.333 23 151 23h316v-100h-331
c-69.333 0 -118.333 -16.5 -147 -49.5s-43 -83.167 -43 -150.5v-19h521v-100h-521v-31c0 -67.333 14.333 -117.5 43 -150.5s77.667 -49.5 147 -49.5h331z" />
    <glyph glyph-name="E.open" horiz-adv-x="748" 
d="M90 650v100h591v-100h-591zM90 100v231c0 29.333 9.33301 53.333 28 72s42.667 28 72 28h491v-100h-476v-231h476v-100h-491c-29.333 -0 -53.333 9.33301 -72 28s-28 42.667 -28 72z" />
    <glyph glyph-name="F.alt1" horiz-adv-x="738" 
d="M180 0h-124.999v422c0 50 6.16699 95.167 18.5 135.5s31.666 74.833 57.999 103.5s60.5 50.667 102.5 66s92.333 23 151 23h316v-100h-331c-69.333 0 -118.333 -16.5 -147 -49.5s-43 -83.167 -43 -150.5v-23h521v-100h-521v-327z" />
    <glyph glyph-name="F.open" horiz-adv-x="708" 
d="M90 650v100h571v-100h-571zM90 0v331c0 29.333 9.33301 53.333 28 72s42.667 28 72 28h471v-100h-456v-331h-115z" />
    <glyph glyph-name="G.alt1" horiz-adv-x="825" 
d="M603 349c16 15.333 32.501 25.167 49.501 29.5s32.667 4.16602 47 -0.500977s26.166 -13.167 35.499 -25.5s14 -27.166 14 -44.499v-308h-105v243l-136 -137c-36 -36.667 -71.333 -65.667 -106 -87s-74.667 -32 -120 -32c-67.333 0 -122 21 -164 63s-63 110.333 -63 205
v177c0 48 6 91.833 18 131.5s30.667 73.167 56 100.5s58.5 48.5 99.5 63.5s89.833 22.5 146.5 22.5h365v-100h-365c-71.333 0 -121.666 -16.5 -150.999 -49.5s-44 -83.167 -44 -150.5v-211c0 -42.667 8.16699 -77 24.5 -103s44.5 -39 84.5 -39
c24.667 0 48.167 7.33301 70.5 22s46.166 34.667 71.499 60z" />
    <glyph glyph-name="H.connect" horiz-adv-x="885" 
d="M90 0v750h115v-315h475v233c0 24 7.66699 43.667 23 59s35 23 59 23h33v-750h-115v330h-475v-330h-115z" />
    <glyph glyph-name="K.alt1" horiz-adv-x="798" 
d="M90 750h115v-588l435 588h134l-486 -649h490v-101h-688v750z" />
    <glyph glyph-name="L.alt1" horiz-adv-x="636" 
d="M596 0h-261c-100 0 -171.667 23.667 -215 71s-65 113 -65 197v482h115v-500c0 -50 10.5 -87.5 31.5 -112.5s57.167 -37.5 108.5 -37.5h286v-100z" />
    <glyph glyph-name="M.alt1" horiz-adv-x="1036" 
d="M518 97c7.33301 0 11.6699 2.83301 13.0029 8.5l5 20.5l120 503c10.667 44 27.5 77.333 50.5 100s55.833 34 98.5 34c47.333 0 82.666 -14 105.999 -42s35 -65.333 35 -112v-609h-115v616c0 14 -2.5 24.5 -7.5 31.5s-12.167 10.5 -21.5 10.5
c-10 0 -17.5 -4.33301 -22.5 -13s-8.5 -17.334 -10.5 -26.001l-121 -507c-8 -34 -21.333 -63.333 -40 -88s-48.667 -37 -90 -37s-71.333 12.333 -90 37s-32 54 -40 88l-121 507c-2 8.66699 -5.5 17.334 -10.5 26.001s-12.5 13 -22.5 13c-9.33301 0 -16.5 -3.5 -21.5 -10.5
s-7.5 -17.5 -7.5 -31.5v-616h-115v609c0 46.667 11.667 84 35 112s58.666 42 105.999 42c42.667 0 75.5 -11.333 98.5 -34s39.833 -56 50.5 -100l120 -503l5 -20.5c1.33301 -5.66699 5.66602 -8.5 12.999 -8.5z" />
    <glyph glyph-name="M.alt2" horiz-adv-x="1224" 
d="M10 0l363.998 662.998c14.667 26.667 30.167 47.834 46.5 63.501s40.833 23.5 73.5 23.5h121v-603l285 519c14.667 26.667 29.834 47.334 45.501 62.001s39.834 22 72.501 22h116v-750h-115v650h-14l-346 -650h-154v650h-15l-345 -650h-135z" />
    <glyph glyph-name="M.alt3" horiz-adv-x="1165" 
d="M525 0v650h-320v-650h-115v750h745c46 0 84.5 -4.83301 115.5 -14.5s55.667 -24 74 -43s31.333 -42.833 39 -71.5s11.5 -61.667 11.5 -99v-522h-115v535c0 38.667 -8.5 67.5 -25.5 86.5s-46.5 28.5 -88.5 28.5h-206v-650h-115z" />
    <glyph glyph-name="N.alt1" horiz-adv-x="845" 
d="M90 0l-0.000976562 750h478c67.333 0 115.333 -18.333 144 -55s43 -90 43 -160v-535h-115v547c0 39.333 -7.66699 66.333 -23 81s-40.666 22 -75.999 22h-336v-650h-115z" />
    <glyph glyph-name="N.connect" horiz-adv-x="970" 
d="M90 0v609.998c0 42.667 10.667 78.834 32 108.501s56.666 44.5 105.999 44.5c34.667 0 63.334 -10 86.001 -30s45.667 -49 69 -87l320 -517c6 -9.33301 12 -17 18 -23s12 -9 18 -9c8 0 14.333 2.83301 19 8.5s7 13.834 7 24.501v538c0 24 7.66699 43.667 23 59
s35 23 59 23h33v-617c0 -44 -11.167 -79.333 -33.5 -106s-55.166 -40 -98.499 -40c-36.667 0 -66.167 9.66699 -88.5 29s-43.5 45 -63.5 77l-327 525c-6.66699 10.667 -12.334 19.167 -17.001 25.5s-11 9.5 -19 9.5c-10 0 -17.167 -3.33301 -21.5 -10s-6.5 -15.667 -6.5 -27
v-616h-115z" />
    <glyph glyph-name="P.alt1" horiz-adv-x="716" 
d="M-120 650v100h522c36 0 70.5 -3.16699 103.5 -9.5s62.167 -17.333 87.5 -33s45.5 -37 60.5 -64s22.5 -60.833 22.5 -101.5v-44c0 -40.667 -7.5 -74.5 -22.5 -101.5s-35.167 -48.333 -60.5 -64s-54.5 -26.667 -87.5 -33s-67.5 -9.5 -103.5 -9.5h-197v-290h-115v253
c0 46 14.667 80.333 44 103s67.333 34 114 34h172c51.333 0 86.833 8.66699 106.5 26s29.5 44 29.5 80v48c0 36 -9.83301 62.667 -29.5 80s-55.167 26 -106.5 26h-540z" />
    <glyph glyph-name="P.alt2" horiz-adv-x="716" 
d="M90 650v100h312c36 0 70.5 -3.16699 103.5 -9.5s62.167 -17.333 87.5 -33s45.5 -37 60.5 -64s22.5 -60.833 22.5 -101.5v-44c0 -40.667 -7.5 -74.5 -22.5 -101.5s-35.167 -48.333 -60.5 -64s-54.5 -26.667 -87.5 -33s-67.5 -9.5 -103.5 -9.5h-197v-290h-115v253
c0 46 14.667 80.333 44 103s67.333 34 114 34h172c51.333 0 86.833 8.66699 106.5 26s29.5 44 29.5 80v48c0 36 -9.83301 62.667 -29.5 80s-55.167 26 -106.5 26h-330z" />
    <glyph glyph-name="R.alt1" horiz-adv-x="563" 
d="M-120 650l0.000976562 100h364c99.333 0 169 -15.833 209 -47.5s60 -80.5 60 -146.5v-27c0 -68 -21.167 -117.333 -63.5 -148s-110.833 -46 -205.5 -46h-41l325 -335h-152l-312 321c-10.667 10.667 -17.667 22.667 -21 36s-3.33301 25.666 0 36.999
c3.33301 10.667 10.166 19.834 20.499 27.501s23.833 11.5 40.5 11.5h181c44 0 74.333 6.66699 91 20s25 38 25 74v31c0 36 -8.33301 60.333 -25 73s-47 19 -91 19h-405z" />
    <glyph glyph-name="R.alt2" horiz-adv-x="803" 
d="M228 0h-115.003v374c0 18 6.33301 32.333 19 43s27.334 16 44.001 16h343c43.333 0 73.5 6.66699 90.5 20s25.5 38 25.5 74v31c0 36 -8.5 60.333 -25.5 73s-47.167 19 -90.5 19h-609v100h584c36.667 0 70.834 -3 102.501 -9s59.167 -16.333 82.5 -31
s41.5 -34.5 54.5 -59.5s19.5 -56.5 19.5 -94.5v-27c0 -76 -23.167 -127.333 -69.5 -154s-111.166 -40 -194.499 -40h-62l325 -335h-151l-327 335h-46v-335z" />
    <glyph glyph-name="R.alt3" horiz-adv-x="803" 
d="M228 0h-115.003v374c0 18 6.33301 32.333 19 43s27.334 16 44.001 16h343c43.333 0 73.5 6.66699 90.5 20s25.5 38 25.5 74v31c0 36 -8.5 60.333 -25.5 73s-47.167 19 -90.5 19h-406v100h381c36.667 0 70.834 -3 102.501 -9s59.167 -16.333 82.5 -31
s41.5 -34.5 54.5 -59.5s19.5 -56.5 19.5 -94.5v-27c0 -76 -23.167 -127.333 -69.5 -154s-111.166 -40 -194.499 -40h-62l325 -335h-151l-327 335h-46v-335z" />
    <glyph glyph-name="S.alt1" horiz-adv-x="808" 
d="M373 162c-28.667 -60 -65.667 -102.001 -111 -126.001s-96.333 -36 -153 -36h-89v100h78c40.667 0 73.5 6.33301 98.5 19s47.833 40.334 68.5 83.001l182 386c28.667 60 65.667 102 111 126s96.333 36 153 36h77v-100h-66c-40.667 0 -73.667 -6.5 -99 -19.5
s-48 -40.5 -68 -82.5z" />
    <glyph glyph-name="S.long1" horiz-adv-x="592" 
d="M440 308l-190 51.999c-65.333 18 -115.833 40.833 -151.5 68.5s-53.5 71.834 -53.5 132.501c0 56 21.167 101.5 63.5 136.5s106.833 52.5 193.5 52.5h320v-100h-333c-48 0 -81.167 -8 -99.5 -24s-27.5 -35.333 -27.5 -58c0 -26 8.5 -46.667 25.5 -62
s48.167 -29.333 93.5 -42l190 -54c33.333 -9.33301 62.833 -19.333 88.5 -30s47.167 -23.5 64.5 -38.5s30.5 -33.167 39.5 -54.5s13.5 -47 13.5 -77c0 -62 -20.833 -112.5 -62.5 -151.5s-105.167 -58.5 -190.5 -58.5h-359v100h380c44 0 74.5 10.333 91.5 31
s25.5 43.667 25.5 69c0 26.667 -8.5 48.167 -25.5 64.5s-49.167 30.833 -96.5 43.5z" />
    <glyph glyph-name="S.long2" horiz-adv-x="702" 
d="M420 308l-190 51.999c-65.333 18 -115.833 40.833 -151.5 68.5s-53.5 71.834 -53.5 132.501c0 56 21.167 101.5 63.5 136.5s106.833 52.5 193.5 52.5h340v-100h-353c-48 0 -81.167 -8 -99.5 -24s-27.5 -35.333 -27.5 -58c0 -26 8.5 -46.667 25.5 -62
s48.167 -29.333 93.5 -42l190 -54c33.333 -9.33301 62.833 -19.333 88.5 -30s47.167 -23.5 64.5 -38.5s30.5 -33.167 39.5 -54.5s13.5 -47 13.5 -77c0 -62 -20.833 -112.5 -62.5 -151.5s-105.167 -58.5 -190.5 -58.5h-499v100h520c44 0 74.5 10.333 91.5 31
s25.5 43.667 25.5 69c0 26.667 -8.5 48.167 -25.5 64.5s-49.167 30.833 -96.5 43.5z" />
    <glyph glyph-name="U.alt1" horiz-adv-x="845" 
d="M755 750l0.000976562 -750h-478c-67.333 -0 -115.333 18.333 -144 55s-43 90 -43 160v535h115v-547c0 -39.333 7.66699 -66.333 23 -81s40.666 -22 75.999 -22h336v650h115z" />
    <glyph glyph-name="U.connect" horiz-adv-x="880" 
d="M675 668c0 24 7.66797 43.667 23.001 59s35 23 59 23h33v-517c0 -85.333 -22.667 -147.666 -68 -186.999s-119.333 -59 -222 -59h-130c-97.333 0 -168.333 19.667 -213 59s-67 101.666 -67 186.999v517h115v-525c0 -46.667 11.833 -81.334 35.5 -104.001
s60.5 -34 110.5 -34h180c47.333 0 83.166 11.333 107.499 34s36.5 57.334 36.5 104.001v443z" />
    <glyph glyph-name="V.alt1" horiz-adv-x="820" 
d="M790 750l-312 -583.001c-28.667 -54 -60.5 -95.333 -95.5 -124s-84.167 -43 -147.5 -43h-145v750h115v-650h27c36.667 0 64.5 7.83301 83.5 23.5s38.5 42.834 58.5 81.501l281 545h135z" />
    <glyph glyph-name="W.alt1" horiz-adv-x="1224" 
d="M1214 750l-363.998 -662.998c-14.667 -26.667 -30.167 -47.834 -46.5 -63.501s-40.833 -23.5 -73.5 -23.5h-121v603l-285 -519c-14.667 -26.667 -29.834 -47.334 -45.501 -62.001s-39.834 -22 -72.501 -22h-116v750h115v-650h14l346 650h154v-650h15l345 650h135z" />
    <glyph glyph-name="W.alt2" horiz-adv-x="1165" 
d="M640 750v-650h320v650h115v-750h-745c-46 -0 -84.5 4.83301 -115.5 14.5s-55.667 24 -74 43s-31.333 42.833 -39 71.5s-11.5 61.667 -11.5 99v522h115v-535c0 -38.667 8.5 -67.5 25.5 -86.5s46.5 -28.5 88.5 -28.5h206v650h115z" />
    <glyph glyph-name="X.alt1" horiz-adv-x="900" 
d="M666 0c-60 0 -107.5 15.167 -142.5 45.5s-60.167 71.5 -75.5 123.5c-15.333 -52 -40.5 -93.167 -75.5 -123.5s-82.5 -45.5 -142.5 -45.5h-185v100h195c26 0 48.167 7 66.5 21s33.5 31.5 45.5 52.5s20.667 44.5 26 70.5s8 50.667 8 74v110
c0 24.667 -2.66699 50.167 -8 76.5s-14 50.333 -26 72s-27.167 39.334 -45.5 53.001s-40.5 20.5 -66.5 20.5h-195v100h185c60 0 107.5 -15.333 142.5 -46s60.167 -71.334 75.5 -122.001c15.333 50.667 40.5 91.334 75.5 122.001s82.5 46 142.5 46h189v-100h-199
c-25.333 0 -47.333 -6.83301 -66 -20.5s-33.834 -31.334 -45.501 -53.001s-20.334 -45.667 -26.001 -72s-8.5 -51.833 -8.5 -76.5v-110c0 -23.333 2.83301 -48 8.5 -74s14.334 -49.5 26.001 -70.5s26.834 -38.5 45.501 -52.5s40.667 -21 66 -21h199v-100h-189z" />
    <glyph glyph-name="Y.alt1" horiz-adv-x="858" 
d="M38 0v100h337l-355 650h134l292 -553l272 553h130l-318 -625c-25.333 -50 -54.333 -83.333 -87 -100s-76 -25 -130 -25h-275z" />
    <glyph glyph-name="Y.alt2" horiz-adv-x="801" 
d="M50 0l-0.00292969 99.999h426c8.66699 0 16.834 0.5 24.501 1.5s14.834 2.16699 21.501 3.5l-470 645h148l394 -559c0.666992 4.66699 1.16699 9.33398 1.5 14.001s0.5 9.66699 0.5 15v530h115v-482c0 -40 -4.33301 -76.5 -13 -109.5s-23.167 -61.167 -43.5 -84.5
s-47.166 -41.5 -80.499 -54.5s-74.333 -19.5 -123 -19.5h-401z" />
    <glyph glyph-name="Y.alt3" horiz-adv-x="771" 
d="M50 0l-0.00195312 100h396c42.667 0 73.334 9.83301 92.001 29.5s28 49.834 28 90.501v40h-266c-93.333 0 -158.333 23.833 -195 71.5s-55 109.834 -55 186.501v232h115v-270c0 -40.667 9.33301 -70.834 28 -90.501s49.334 -29.5 92.001 -29.5h281v390h115v-492
c0 -76.667 -19 -138.834 -57 -186.501s-105.667 -71.5 -203 -71.5h-371z" />
    <glyph glyph-name="ccedilla.long" horiz-adv-x="587" 
d="M328 505c-52.667 0 -90.5 -10.168 -113.5 -30.501s-34.5 -57.166 -34.5 -110.499v-127c0 -54 11.5 -91.167 34.5 -111.5s60.833 -30.5 113.5 -30.5h259v-95h-264c-76.667 0 -138.834 21 -186.501 63s-71.5 104.667 -71.5 188v98c0 83.333 23.833 146 71.5 188
s109.834 63 186.501 63h394v-95h-389zM429 -0.000976562l-70 -188h-106l78 188h98z" />
    <glyph glyph-name="cacute.long" horiz-adv-x="577" 
d="M318 505c-52.667 0 -90.5 -10.168 -113.5 -30.501s-34.5 -57.166 -34.5 -110.499v-127c0 -54 11.5 -91.167 34.5 -111.5s60.833 -30.5 113.5 -30.5h259v-95h-264c-76.667 0 -138.834 21 -186.501 63s-71.5 104.667 -71.5 188v98c0 83.333 23.833 146 71.5 188
s109.834 63 186.501 63h394v-95h-389zM325 671.999l70 188h106l-78 -188h-98z" />
    <glyph glyph-name="cdotaccent.long" horiz-adv-x="587" 
d="M328 505c-52.667 0 -90.5 -10.168 -113.5 -30.501s-34.5 -57.166 -34.5 -110.499v-127c0 -54 11.5 -91.167 34.5 -111.5s60.833 -30.5 113.5 -30.5h259v-95h-264c-76.667 0 -138.834 21 -186.501 63s-71.5 104.667 -71.5 188v98c0 83.333 23.833 146 71.5 188
s109.834 63 186.501 63h394v-95h-389zM434 671.999h-110v98h110v-98z" />
    <glyph glyph-name="ccaron.long" horiz-adv-x="577" 
d="M318 505c-52.667 0 -90.5 -10.168 -113.5 -30.501s-34.5 -57.166 -34.5 -110.499v-127c0 -54 11.5 -91.167 34.5 -111.5s60.833 -30.5 113.5 -30.5h259v-95h-264c-76.667 0 -138.834 21 -186.501 63s-71.5 104.667 -71.5 188v98c0 83.333 23.833 146 71.5 188
s109.834 63 186.501 63h394v-95h-389zM435 693.999c-8 -10.667 -16.667 -19.667 -26 -27s-22.333 -11 -39 -11s-30 3.66699 -40 11s-18.667 16.333 -26 27l-109 156h103l72 -109l71 109h103z" />
    <glyph glyph-name="kcommaaccent.alt1" horiz-adv-x="704" 
d="M80 0v750h110v-582l350 432h134l-407 -499h401v-101h-588zM351 -188c10.667 32 17.667 55.333 21 70s5 32.334 5 53.001v25h92v-25c0 -20.667 -1.66699 -38.334 -5 -53.001s-11.333 -38 -24 -70h-89z" />
    <glyph glyph-name="racute.long" horiz-adv-x="375" 
d="M80 415c0 60.667 19.167 106.668 57.5 138.001s86.833 47 145.5 47h154v-95h-159c-31.333 0 -53.833 -5.83301 -67.5 -17.5s-20.5 -32.834 -20.5 -63.501v-424h-110v415zM244 672.001l70 188h106l-78 -188h-98z" />
    <glyph glyph-name="rcommaaccent.long" horiz-adv-x="375" 
d="M80 415c0 60.667 19.167 106.668 57.5 138.001s86.833 47 145.5 47h154v-95h-159c-31.333 0 -53.833 -5.83301 -67.5 -17.5s-20.5 -32.834 -20.5 -63.501v-424h-110v415zM63 -187.999c10.667 32 17.667 55.333 21 70s5 32.334 5 53.001v25h92v-25
c0 -20.667 -1.66699 -38.334 -5 -53.001s-11.333 -38 -24 -70h-89z" />
    <glyph glyph-name="rcaron.long" horiz-adv-x="375" 
d="M80 415c0 60.667 19.167 106.668 57.5 138.001s86.833 47 145.5 47h154v-95h-159c-31.333 0 -53.833 -5.83301 -67.5 -17.5s-20.5 -32.834 -20.5 -63.501v-424h-110v415zM353 694.001c-8 -10.667 -16.667 -19.667 -26 -27s-22.333 -11 -39 -11s-30 3.66699 -40 11
s-18.667 16.333 -26 27l-109 156h103l72 -109l71 109h103z" />
    <glyph glyph-name="sacute.long1" horiz-adv-x="617" 
d="M371 239l-146.999 31c-56 12 -99.833 30.833 -131.5 56.5s-47.5 61.834 -47.5 108.501c0 49.333 17.167 89.166 51.5 119.499s90.5 45.5 168.5 45.5h422v-95h-442c-34 0 -57 -6.33301 -69 -19s-18 -27.667 -18 -45c0 -18.667 6.33301 -33.5 19 -44.5
s35.667 -19.833 69 -26.5l145 -30c62 -12.667 110.167 -31.167 144.5 -55.5s51.5 -61.5 51.5 -111.5c0 -52 -18.333 -93.833 -55 -125.5s-99.334 -47.5 -188.001 -47.5h-279v95h305c42 0 70.333 6.5 85 19.5s22 29.833 22 50.5c0 20 -7.66699 35.167 -23 45.5
s-43 19.833 -83 28.5zM280.001 672l70 188h106l-78 -188h-98z" />
    <glyph glyph-name="scedilla.long1" horiz-adv-x="617" 
d="M371 239l-146.999 31c-56 12 -99.833 30.833 -131.5 56.5s-47.5 61.834 -47.5 108.501c0 49.333 17.167 89.166 51.5 119.499s90.5 45.5 168.5 45.5h422v-95h-442c-34 0 -57 -6.33301 -69 -19s-18 -27.667 -18 -45c0 -18.667 6.33301 -33.5 19 -44.5
s35.667 -19.833 69 -26.5l145 -30c62 -12.667 110.167 -31.167 144.5 -55.5s51.5 -61.5 51.5 -111.5c0 -52 -18.333 -93.833 -55 -125.5s-99.334 -47.5 -188.001 -47.5h-279v95h305c42 0 70.333 6.5 85 19.5s22 29.833 22 50.5c0 20 -7.66699 35.167 -23 45.5
s-43 19.833 -83 28.5zM343.001 0l-70 -188h-106l78 188h98z" />
    <glyph glyph-name="scommaaccent.long1" horiz-adv-x="617" 
d="M371 239l-146.999 31c-56 12 -99.833 30.833 -131.5 56.5s-47.5 61.834 -47.5 108.501c0 49.333 17.167 89.166 51.5 119.499s90.5 45.5 168.5 45.5h422v-95h-442c-34 0 -57 -6.33301 -69 -19s-18 -27.667 -18 -45c0 -18.667 6.33301 -33.5 19 -44.5
s35.667 -19.833 69 -26.5l145 -30c62 -12.667 110.167 -31.167 144.5 -55.5s51.5 -61.5 51.5 -111.5c0 -52 -18.333 -93.833 -55 -125.5s-99.334 -47.5 -188.001 -47.5h-279v95h305c42 0 70.333 6.5 85 19.5s22 29.833 22 50.5c0 20 -7.66699 35.167 -23 45.5
s-43 19.833 -83 28.5zM222.001 -188c10.667 32 17.667 55.333 21 70s5 32.334 5 53.001v25h92v-25c0 -20.667 -1.66699 -38.334 -5 -53.001s-11.333 -38 -24 -70h-89z" />
    <glyph glyph-name="scaron.long1" horiz-adv-x="617" 
d="M371 239l-146.999 31c-56 12 -99.833 30.833 -131.5 56.5s-47.5 61.834 -47.5 108.501c0 49.333 17.167 89.166 51.5 119.499s90.5 45.5 168.5 45.5h422v-95h-442c-34 0 -57 -6.33301 -69 -19s-18 -27.667 -18 -45c0 -18.667 6.33301 -33.5 19 -44.5
s35.667 -19.833 69 -26.5l145 -30c62 -12.667 110.167 -31.167 144.5 -55.5s51.5 -61.5 51.5 -111.5c0 -52 -18.333 -93.833 -55 -125.5s-99.334 -47.5 -188.001 -47.5h-279v95h305c42 0 70.333 6.5 85 19.5s22 29.833 22 50.5c0 20 -7.66699 35.167 -23 45.5
s-43 19.833 -83 28.5zM389.001 694c-8 -10.667 -16.667 -19.667 -26 -27s-22.333 -11 -39 -11s-30 3.66699 -40 11s-18.667 16.333 -26 27l-109 156h103l72 -109l71 109h103z" />
    <glyph glyph-name="sacute.long2" horiz-adv-x="602" 
d="M346 239l-146.999 31c-56 12 -99.833 30.833 -131.5 56.5s-47.5 61.834 -47.5 108.501c0 49.333 17.167 89.166 51.5 119.499s90.5 45.5 168.5 45.5h292v-95h-312c-34 0 -57 -6.33301 -69 -19s-18 -27.667 -18 -45c0 -18.667 6.33301 -33.5 19 -44.5
s35.667 -19.833 69 -26.5l145 -30c62 -12.667 110.167 -31.167 144.5 -55.5s51.5 -61.5 51.5 -111.5c0 -52 -18.333 -93.833 -55 -125.5s-99.334 -47.5 -188.001 -47.5h-449v95h475c42 0 70.333 6.5 85 19.5s22 29.833 22 50.5c0 20 -7.66699 35.167 -23 45.5
s-43 19.833 -83 28.5zM257.001 672l70 188h106l-78 -188h-98z" />
    <glyph glyph-name="scedilla.long2" horiz-adv-x="602" 
d="M346 239l-146.999 31c-56 12 -99.833 30.833 -131.5 56.5s-47.5 61.834 -47.5 108.501c0 49.333 17.167 89.166 51.5 119.499s90.5 45.5 168.5 45.5h292v-95h-312c-34 0 -57 -6.33301 -69 -19s-18 -27.667 -18 -45c0 -18.667 6.33301 -33.5 19 -44.5
s35.667 -19.833 69 -26.5l145 -30c62 -12.667 110.167 -31.167 144.5 -55.5s51.5 -61.5 51.5 -111.5c0 -52 -18.333 -93.833 -55 -125.5s-99.334 -47.5 -188.001 -47.5h-449v95h475c42 0 70.333 6.5 85 19.5s22 29.833 22 50.5c0 20 -7.66699 35.167 -23 45.5
s-43 19.833 -83 28.5zM310.001 0l-70 -188h-106l78 188h98z" />
    <glyph glyph-name="scommaaccent.long2" horiz-adv-x="602" 
d="M346 239l-146.999 31c-56 12 -99.833 30.833 -131.5 56.5s-47.5 61.834 -47.5 108.501c0 49.333 17.167 89.166 51.5 119.499s90.5 45.5 168.5 45.5h292v-95h-312c-34 0 -57 -6.33301 -69 -19s-18 -27.667 -18 -45c0 -18.667 6.33301 -33.5 19 -44.5
s35.667 -19.833 69 -26.5l145 -30c62 -12.667 110.167 -31.167 144.5 -55.5s51.5 -61.5 51.5 -111.5c0 -52 -18.333 -93.833 -55 -125.5s-99.334 -47.5 -188.001 -47.5h-449v95h475c42 0 70.333 6.5 85 19.5s22 29.833 22 50.5c0 20 -7.66699 35.167 -23 45.5
s-43 19.833 -83 28.5zM189.001 -188c10.667 32 17.667 55.333 21 70s5 32.334 5 53.001v25h92v-25c0 -20.667 -1.66699 -38.334 -5 -53.001s-11.333 -38 -24 -70h-89z" />
    <glyph glyph-name="scaron.long2" horiz-adv-x="602" 
d="M346 239l-146.999 31c-56 12 -99.833 30.833 -131.5 56.5s-47.5 61.834 -47.5 108.501c0 49.333 17.167 89.166 51.5 119.499s90.5 45.5 168.5 45.5h292v-95h-312c-34 0 -57 -6.33301 -69 -19s-18 -27.667 -18 -45c0 -18.667 6.33301 -33.5 19 -44.5
s35.667 -19.833 69 -26.5l145 -30c62 -12.667 110.167 -31.167 144.5 -55.5s51.5 -61.5 51.5 -111.5c0 -52 -18.333 -93.833 -55 -125.5s-99.334 -47.5 -188.001 -47.5h-449v95h475c42 0 70.333 6.5 85 19.5s22 29.833 22 50.5c0 20 -7.66699 35.167 -23 45.5
s-43 19.833 -83 28.5zM366.001 694c-8 -10.667 -16.667 -19.667 -26 -27s-22.333 -11 -39 -11s-30 3.66699 -40 11s-18.667 16.333 -26 27l-109 156h103l72 -109l71 109h103z" />
    <glyph glyph-name="tcedilla.long" horiz-adv-x="470" 
d="M15 505v95h100v117h107v-117h353v-95h-353v-343c0 -25.333 5.33301 -42.833 16 -52.5s28 -14.5 52 -14.5h155v-95h-160c-56 -0 -98.833 12.833 -128.5 38.5s-44.5 66.5 -44.5 122.5v344h-97zM364 0l-70 -188h-106l78 188h98z" />
    <glyph glyph-name="tcommaaccent.long" horiz-adv-x="470" 
d="M15 505v95h100v117h107v-117h353v-95h-353v-343c0 -25.333 5.33301 -42.833 16 -52.5s28 -14.5 52 -14.5h155v-95h-160c-56 -0 -98.833 12.833 -128.5 38.5s-44.5 66.5 -44.5 122.5v344h-97zM243 -188c10.667 32 17.667 55.333 21 70s5 32.334 5 53.001v25h92v-25
c0 -20.667 -1.66699 -38.334 -5 -53.001s-11.333 -38 -24 -70h-89z" />
    <glyph glyph-name="tcaron.long" horiz-adv-x="470" 
d="M273 649l42 170h95l-42 -170h-95zM15 505v95h100v117h107v-117h353v-95h-353v-343c0 -25.333 5.33301 -42.833 16 -52.5s28 -14.5 52 -14.5h155v-95h-160c-56 -0 -98.833 12.833 -128.5 38.5s-44.5 66.5 -44.5 122.5v344h-97z" />
    <glyph glyph-name="tbar.long" horiz-adv-x="470" 
d="M15 285v55h97v165h-97v95h100v117h107v-117h353v-95h-353v-165h133v-55h-133v-123c0 -25.333 5.33301 -42.833 16 -52.5s28 -14.5 52 -14.5h155v-95h-160c-56 -0 -98.833 12.833 -128.5 38.5s-44.5 66.5 -44.5 122.5v124h-97z" />
    <glyph glyph-name="wcircumflex.alt1" horiz-adv-x="1070" 
d="M590 600l0.00195312 -500h290v500h110v-600h-694c-74.667 0 -129.334 19 -164.001 57s-52 86.667 -52 146v397h110v-402c0 -37.333 7.66699 -63 23 -77s40.666 -21 75.999 -21h191v500h110zM596.002 672l-71 109l-72 -109h-103l109 156c7.33301 10.667 16 19.667 26 27
s23.333 11 40 11s29.667 -3.66699 39 -11s18 -16.333 26 -27l109 -156h-103z" />
    <glyph glyph-name="yacute.alt1" horiz-adv-x="691" 
d="M158 600l333 -456v5v451h110v-413c0 -34.667 -5.83301 -64 -17.5 -88s-27 -43.333 -46 -58s-40.833 -25.167 -65.5 -31.5s-50 -9.5 -76 -9.5h-360v95h356l-372 505h138zM302 672l70 188h106l-78 -188h-98z" />
    <glyph glyph-name="ydieresis.alt1" horiz-adv-x="691" 
d="M158 600l333 -456v5v451h110v-413c0 -34.667 -5.83301 -64 -17.5 -88s-27 -43.333 -46 -58s-40.833 -25.167 -65.5 -31.5s-50 -9.5 -76 -9.5h-360v95h356l-372 505h138zM306 692h-110v106h110v-106zM496 692h-110v106h110v-106z" />
    <glyph glyph-name="ycircumflex.alt1" horiz-adv-x="691" 
d="M158 600l333 -456v5v451h110v-413c0 -34.667 -5.83301 -64 -17.5 -88s-27 -43.333 -46 -58s-40.833 -25.167 -65.5 -31.5s-50 -9.5 -76 -9.5h-360v95h356l-372 505h138zM416 672l-71 109l-72 -109h-103l109 156c7.33301 10.667 16 19.667 26 27s23.333 11 40 11
s29.667 -3.66699 39 -11s18 -16.333 26 -27l109 -156h-103z" />
    <glyph glyph-name="Agrave.alt1" horiz-adv-x="820" 
d="M10 0l312 583c28.667 54 60.5 95.333 95.5 124s84.167 43 147.5 43h165v-750h-115v201h-372l-104 -201h-129zM422 545l-126 -241.999h319v347h-47c-38 0 -66.667 -7.83301 -86 -23.5s-39.333 -42.834 -60 -81.501zM638 822.001h-98l-78 188h106z" />
    <glyph glyph-name="Aacute.alt1" horiz-adv-x="820" 
d="M10 0l312 583c28.667 54 60.5 95.333 95.5 124s84.167 43 147.5 43h165v-750h-115v201h-372l-104 -201h-129zM422 545l-126 -241.999h319v347h-47c-38 0 -66.667 -7.83301 -86 -23.5s-39.333 -42.834 -60 -81.501zM536 822.001l70 188h106l-78 -188h-98z" />
    <glyph glyph-name="Acircumflex.alt1" horiz-adv-x="844" 
d="M10 0l312 583c28.667 54 60.5 95.333 95.5 124s84.167 43 147.5 43h165v-750h-115v201h-372l-104 -201h-129zM422 545l-126 -241.999h319v347h-47c-38 0 -66.667 -7.83301 -86 -23.5s-39.333 -42.834 -60 -81.501zM651 822.001l-71 109l-72 -109h-103l109 156
c7.33301 10.667 16 19.667 26 27s23.333 11 40 11s29.667 -3.66699 39 -11s18 -16.333 26 -27l109 -156h-103z" />
    <glyph glyph-name="Atilde.alt1" horiz-adv-x="820" 
d="M10 0l312 583c28.667 54 60.5 95.333 95.5 124s84.167 43 147.5 43h165v-750h-115v201h-372l-104 -201h-129zM422 545l-126 -241.999h319v347h-47c-38 0 -66.667 -7.83301 -86 -23.5s-39.333 -42.834 -60 -81.501zM594 920.001
c6.66699 -6.66699 12.001 -11.668 16.001 -15.001s9 -5 15 -5c5.33301 0 9.66602 2 12.999 6s5 10.333 5 19v81h87v-76c0 -35.333 -8.66699 -63.166 -26 -83.499s-42 -30.5 -74 -30.5c-22.667 0 -42 4.66699 -58 14s-33.333 23.666 -52 42.999l-34 35
c-6.66699 6.66699 -12 11.667 -16 15s-8.66699 5 -14 5s-9.83301 -2 -13.5 -6s-5.5 -10.333 -5.5 -19v-81h-87v78c0 36 9 63.667 27 83s42.333 29 73 29c22.667 0 42 -4.66699 58 -14s33.333 -23.666 52 -42.999z" />
    <glyph glyph-name="Adieresis.alt1" horiz-adv-x="820" 
d="M10 0l312 583c28.667 54 60.5 95.333 95.5 124s84.167 43 147.5 43h165v-750h-115v201h-372l-104 -201h-129zM422 545l-126 -241.999h319v347h-47c-38 0 -66.667 -7.83301 -86 -23.5s-39.333 -42.834 -60 -81.501zM540 842.001h-110v106h110v-106zM730 842.001h-110v106
h110v-106z" />
    <glyph glyph-name="Aring.alt1" horiz-adv-x="820" 
d="M10 0l312 583c28.667 54 60.5 95.333 95.5 124s84.167 43 147.5 43h165v-750h-115v201h-372l-104 -201h-129zM422 545l-126 -241.999h319v347h-47c-38 0 -66.667 -7.83301 -86 -23.5s-39.333 -42.834 -60 -81.501zM473 904.001v24c0 26 8.5 47 25.5 63s37.833 24 62.5 24
h39c24.667 0 45.5 -8 62.5 -24s25.5 -37 25.5 -63v-24c0 -26 -8.5 -47 -25.5 -63s-37.833 -24 -62.5 -24h-39c-24.667 0 -45.5 8 -62.5 24s-25.5 37 -25.5 63zM533 926.001v-20c0 -11.333 3.33301 -20.5 10 -27.5s15 -10.5 25 -10.5h25c10 0 18.5 3.5 25.5 10.5
s10.5 16.167 10.5 27.5v20c0 11.333 -3.5 20.5 -10.5 27.5s-15.5 10.5 -25.5 10.5h-25c-10 0 -18.333 -3.5 -25 -10.5s-10 -16.167 -10 -27.5z" />
    <glyph glyph-name="Amacron.alt1" horiz-adv-x="820" 
d="M10 0l312 583c28.667 54 60.5 95.333 95.5 124s84.167 43 147.5 43h165v-750h-115v201h-372l-104 -201h-129zM422 545l-126 -241.999h319v347h-47c-38 0 -66.667 -7.83301 -86 -23.5s-39.333 -42.834 -60 -81.501zM730 832.001h-240v78h240v-78z" />
    <glyph glyph-name="Abreve.alt1" horiz-adv-x="820" 
d="M10 0l312 583c28.667 54 60.5 95.333 95.5 124s84.167 43 147.5 43h165v-750h-115v201h-372l-104 -201h-129zM422 545l-126 -241.999h319v347h-47c-38 0 -66.667 -7.83301 -86 -23.5s-39.333 -42.834 -60 -81.501zM416 980.001l77 0.00195312v-40
c0 -14.667 3.83301 -25.834 11.5 -33.501s19.167 -11.5 34.5 -11.5h70c16 0 27.5 3.66699 34.5 11s10.5 18.666 10.5 33.999v40h76v-46c0 -28.667 -9.66699 -53.667 -29 -75s-45.333 -32 -78 -32h-99c-34 0 -60.5 10.667 -79.5 32s-28.5 46.333 -28.5 75v46z" />
    <glyph glyph-name="Aogonek.alt1" horiz-adv-x="820" 
d="M10 0l312 583c28.667 54 60.5 95.333 95.5 124s84.167 43 147.5 43h165v-750h-115v201h-372l-104 -201h-129zM422 545l-126 -241.999h319v347h-47c-38 0 -66.667 -7.83301 -86 -23.5s-39.333 -42.834 -60 -81.501zM638 0.000976562l92 0.000976562l-48 -58l-16.5 -21
c-4.33301 -5.33301 -6.5 -11.333 -6.5 -18s2.66699 -12.334 8 -17.001s13.333 -7 24 -7h39v-69h-65c-36.667 0 -63.167 7 -79.5 21s-24.5 31.333 -24.5 52c0 12.667 3.16699 25.667 9.5 39s17.833 28.333 34.5 45z" />
    <glyph glyph-name="Agrave.alt2" horiz-adv-x="820" 
d="M810 0h-129l-104 201h-372v-201h-115v750h165c63.333 0 112.5 -14.333 147.5 -43s66.833 -70 95.5 -124zM205 650v-347.001h319l-126 242c-20.667 38.667 -40.667 65.834 -60 81.501s-48 23.5 -86 23.5h-47zM287 821.999h-98l-78 188h106z" />
    <glyph glyph-name="Aacute.alt2" horiz-adv-x="820" 
d="M810 0h-129l-104 201h-372v-201h-115v750h165c63.333 0 112.5 -14.333 147.5 -43s66.833 -70 95.5 -124zM205 650v-347.001h319l-126 242c-20.667 38.667 -40.667 65.834 -60 81.501s-48 23.5 -86 23.5h-47zM186 821.999l70 188h106l-78 -188h-98z" />
    <glyph glyph-name="Acircumflex.alt2" horiz-adv-x="820" 
d="M810 0h-129l-104 201h-372v-201h-115v750h165c63.333 0 112.5 -14.333 147.5 -43s66.833 -70 95.5 -124zM205 650v-347.001h319l-126 242c-20.667 38.667 -40.667 65.834 -60 81.501s-48 23.5 -86 23.5h-47zM301 821.999l-71 109l-72 -109h-103l109 156
c7.33301 10.667 16 19.667 26 27s23.333 11 40 11s29.667 -3.66699 39 -11s18 -16.333 26 -27l109 -156h-103z" />
    <glyph glyph-name="Atilde.alt2" horiz-adv-x="820" 
d="M810 0h-129l-104 201h-372v-201h-115v750h165c63.333 0 112.5 -14.333 147.5 -43s66.833 -70 95.5 -124zM205 650v-347.001h319l-126 242c-20.667 38.667 -40.667 65.834 -60 81.501s-48 23.5 -86 23.5h-47zM334 919.999c6.66699 -6.66699 12.001 -11.668 16.001 -15.001
s9 -5 15 -5c5.33301 0 9.66602 2 12.999 6s5 10.333 5 19v81h87v-76c0 -35.333 -8.66699 -63.166 -26 -83.499s-42 -30.5 -74 -30.5c-22.667 0 -42 4.66699 -58 14s-33.333 23.666 -52 42.999l-34 35c-6.66699 6.66699 -12 11.667 -16 15s-8.66699 5 -14 5
s-9.83301 -2 -13.5 -6s-5.5 -10.333 -5.5 -19v-81h-87v78c0 36 9 63.667 27 83s42.333 29 73 29c22.667 0 42 -4.66699 58 -14s33.333 -23.666 52 -42.999z" />
    <glyph glyph-name="Adieresis.alt2" horiz-adv-x="820" 
d="M810 0h-129l-104 201h-372v-201h-115v750h165c63.333 0 112.5 -14.333 147.5 -43s66.833 -70 95.5 -124zM205 650v-347.001h319l-126 242c-20.667 38.667 -40.667 65.834 -60 81.501s-48 23.5 -86 23.5h-47zM200 841.999h-110v106h110v-106zM390 841.999h-110v106h110
v-106z" />
    <glyph glyph-name="Aring.alt2" horiz-adv-x="820" 
d="M810 0h-129l-104 201h-372v-201h-115v750h165c63.333 0 112.5 -14.333 147.5 -43s66.833 -70 95.5 -124zM205 650v-347.001h319l-126 242c-20.667 38.667 -40.667 65.834 -60 81.501s-48 23.5 -86 23.5h-47zM122 903.999v24c0 26 8.5 47 25.5 63s37.833 24 62.5 24h39
c24.667 0 45.5 -8 62.5 -24s25.5 -37 25.5 -63v-24c0 -26 -8.5 -47 -25.5 -63s-37.833 -24 -62.5 -24h-39c-24.667 0 -45.5 8 -62.5 24s-25.5 37 -25.5 63zM182 925.999v-20c0 -11.333 3.33301 -20.5 10 -27.5s15 -10.5 25 -10.5h25c10 0 18.5 3.5 25.5 10.5
s10.5 16.167 10.5 27.5v20c0 11.333 -3.5 20.5 -10.5 27.5s-15.5 10.5 -25.5 10.5h-25c-10 0 -18.333 -3.5 -25 -10.5s-10 -16.167 -10 -27.5z" />
    <glyph glyph-name="Amacron.alt2" horiz-adv-x="820" 
d="M810 0h-129l-104 201h-372v-201h-115v750h165c63.333 0 112.5 -14.333 147.5 -43s66.833 -70 95.5 -124zM205 650v-347.001h319l-126 242c-20.667 38.667 -40.667 65.834 -60 81.501s-48 23.5 -86 23.5h-47zM330 831.999h-240v78h240v-78z" />
    </font>
</defs>
</svg>
